<svg width="205" height="174" viewBox="0 0 205 174" fill="none" xmlns="http://www.w3.org/2000/svg">
<path d="M155.112 2.625L155.784 2.737H156.344H156.68L157.016 3.073L157.352 3.746L157.688 4.755L158.584 5.87601L158.808 6.10001L159.032 6.436L159.144 6.884L159.368 7.55701L159.592 8.117L160.04 8.56599L160.376 8.78999L161.72 9.01401L162.392 9.35001L162.728 9.575L163.848 11.256L164.184 11.48H164.52L165.08 11.144L165.64 10.808L165.976 10.359L166.536 10.023H166.872L167.096 10.135L167.544 10.583L167.656 10.92L167.768 11.368L167.88 12.489L167.656 13.049L167.432 13.386L165.304 14.058L165.08 14.282L165.192 14.843L166.424 19.214L166.648 19.663L167.096 19.999L167.544 20.223L169 20.896H169.336H169.672L170.568 20.559H170.904L171.24 20.671L174.04 26.276L174.488 26.949L174.712 27.173L176.168 28.069L176.392 28.406L176.616 28.854L176.728 29.751L176.616 30.311V30.872L176.056 32.889V33.786L176.168 35.467L176.056 36.028L175.832 36.364L175.384 36.588H175.16L174.6 36.364L174.264 36.252L173.928 36.364L173.704 36.588L173.48 36.812L173.368 37.149L173.592 37.933L173.928 38.83L176.168 42.865L177.288 44.322L177.848 44.659H178.072H178.408L178.968 44.322L179.304 44.21H179.528L179.864 44.322L180.088 44.547L180.984 45.443L181.432 46.116L181.656 46.564L181.992 46.9L182.552 46.788L183.112 46.564L183.336 46.452L183.672 46.564L185.688 48.246L185.912 48.582L186.024 49.142L186.136 50.151V50.711L186.024 53.29L186.248 54.074L186.696 54.41L187.032 54.747L193.752 57.325L194.088 57.773L194.312 58.334L194.424 61.136L194.536 61.584L194.872 62.257L195.096 62.705L195.432 62.929L197 64.162L197.448 64.835L197.896 66.516V66.964V67.637L197.784 68.646L197.56 69.206L197.336 69.655L197.224 69.879L195.88 70.663L195.32 71.112L195.208 71.336L192.744 75.483V75.932L192.856 76.492L193.416 77.613L194.088 78.51L194.424 78.958L196.888 82.209L197.224 82.769L199.8 89.607L199.912 90.391V91.96L199.688 96.444L199.016 99.134L198.904 99.47L197.448 103.506V103.842V104.178L197.896 104.627L198.568 105.187L199.016 105.747L199.352 106.196L199.8 107.429L200.248 109.671L200.36 110.679V113.257V113.93L200.472 114.266L201.928 118.414L202.152 118.638L202.376 118.862L203.496 119.198L203.72 119.31L203.832 119.534V120.319L203.608 120.767L203.16 121.216L200.36 123.57L199.912 124.018L199.688 124.466L199.352 124.803L198.904 124.915H197.896L197 124.579L196.216 123.906L194.648 122.785L193.976 122.561L193.528 122.449L193.192 122.561L192.744 123.009L192.52 123.346L192.184 124.13L191.848 124.691L191.288 125.475L190.168 126.372L189.832 126.596H189.272H188.488L188.04 126.484L187.704 126.26L186.92 125.699L186.36 125.363L186.024 125.251L185.688 125.363L185.24 125.812L185.016 126.596L185.128 126.932L185.016 127.717L184.792 127.941L184.344 128.165H183.448L183 128.053L182.776 127.829L182.664 127.157L182.552 125.363L182.328 124.466L181.88 123.682L179.528 120.431L179.08 119.534L178.968 119.31V118.974L179.08 116.62L178.968 116.284L178.856 115.948L178.632 115.836L178.296 115.948L177.736 116.396L176.952 117.181L176.616 117.293L176.168 117.405H175.384L174.376 117.181L173.704 116.956L173.48 116.732L173.256 116.508L173.144 115.836L173.032 115.499L172.808 115.275L172.248 114.939L172.136 114.715L172.024 114.378L172.136 113.706V113.37L172.024 113.033L171.688 112.921L171.352 112.809L171.128 112.921L170.232 113.706L169.56 113.93L168.776 114.715L168.552 115.051L168.44 115.275L168.664 116.284V116.62L168.44 116.732L168.104 116.844L167.208 116.62L166.536 116.396L166.2 116.284L165.752 116.396L165.304 116.844L165.08 117.069L164.072 118.974L163.512 119.871L162.728 121.328L162.28 121.776L160.04 123.233L159.704 123.57L159.368 124.018L159.144 124.691L159.032 125.027L159.144 125.251L159.704 125.924L159.928 126.26L159.816 126.596L159.704 127.381L159.256 128.95L159.144 129.286L158.808 129.623L158.36 129.847H157.24L156.792 129.735L156.456 129.51L156.232 128.95H155.784L153.992 129.286L153.656 129.174L153.432 128.95L153.32 128.502L152.76 128.165H152.424L152.088 128.277L150.968 129.398L150.632 129.623L147.944 130.519L147.048 131.08L146.6 131.528L146.264 132.201L145.816 132.761L145.032 133.434L144.696 133.994L144.36 134.33L143.8 134.554L143.016 134.442L142.68 133.994L142.456 133.546L142.12 131.976L141.784 130.968L141.56 130.519L141 129.847L139.096 128.502L134.168 126.708L133.72 126.596H131.592L131.256 126.708L130.808 127.044L130.36 127.717L130.136 128.39L129.8 128.838L129.24 129.174L125.544 129.062L123.64 128.39L123.08 128.277L122.52 128.502L121.96 129.174L121.736 129.735L121.624 130.407V131.64L121.848 133.434V135.227L121.736 135.787L121.512 136.908L121.288 137.357L120.84 137.805L119.272 139.15L118.6 139.823L118.488 140.271L118.264 140.832V141.392L117.928 142.401L117.48 143.858L117.032 144.306L116.248 144.867L114.232 145.427L113 145.988L111.544 146.436H110.76L110.312 146.548L109.752 147.221L109.416 147.333L109.192 147.221L108.968 146.996L108.52 146.1L108.184 145.763L107.96 145.539L107.064 145.203L106.28 145.091L105.16 145.203H104.824L103.48 144.643L102.696 144.53L100.456 144.643L100.008 144.867L96.984 146.66L95.976 146.996H93.512H92.952H92.168L91.944 146.772L91.272 146.212L90.04 145.539L88.248 144.979L86.68 144.867L85.672 144.418L85 144.306L81.864 144.53L81.192 144.306H80.632L78.392 144.867L77.608 144.979L77.16 144.867L76.936 144.643L76.6 144.082L76.376 143.97L75.816 143.858L75.032 143.97H74.584L74.136 143.746L73.576 143.522L73.128 143.41L72.232 143.522L71.448 143.297H71L70.328 143.522L68.312 144.643L66.408 146.436L64.952 147.557L64.392 148.229L64.28 148.678L64.616 149.238V149.574L64.728 150.135V150.359L64.056 153.049L63.944 153.386L63.496 153.946L61.144 155.964L60.584 156.748L60.36 157.197L60.808 157.645L62.04 158.205L62.376 158.43L62.488 158.654L62.6 158.878V160.783V161.568L62.376 162.241L62.04 162.577L61.368 162.913L56.888 163.362H56.552L56.104 162.913L55.992 162.689L55.656 162.129L55.432 161.904L55.096 161.792L53.976 161.568L52.52 161.68L52.184 161.792L51.848 162.129L51.4 162.689L51.176 163.137L51.064 163.698L50.952 164.819L50.728 165.491L42.664 169.751L42.104 170.535H41.88H41.432L40.536 170.311L40.088 170.087L39.752 169.863L39.416 169.302L39.192 169.078L38.856 168.966L38.296 169.078L37.624 169.414L35.832 170.759L34.264 172.441L33.48 172.777L31.576 172.553L30.568 171.656L30.008 171.096L29.448 170.872H28.776L28.104 171.096L25.192 172.329L24.632 172.441H24.408L24.184 172.217L24.072 171.88L24.184 171.208L24.296 170.872L24.408 170.647L25.528 169.639L25.752 169.414L26.088 168.854L26.312 168.406L26.424 167.845L26.536 167.509H26.984L27.208 167.397L27.544 166.948L27.88 166.5L28.104 166.052V165.267V164.819L27.768 163.586L26.872 161.68L25.752 160.223L25.08 159.214L24.52 158.093L24.408 157.645L24.296 156.86V154.17L24.184 153.834L24.072 153.498L23.624 153.273L20.936 152.153L18.92 150.695L18.472 150.247L18.024 149.799L17.912 149.35V148.902L18.024 148.005L18.136 147.557L18.472 147.221L19.48 146.66L19.704 146.436L19.816 146.212L19.928 145.876L19.592 145.539L19.368 145.315L19.032 145.203L18.584 144.867L18.248 144.53L17.688 143.746L17.24 143.522L16.904 143.41L15.224 143.522L12.984 143.185L12.648 143.073L12.424 142.289L11.304 136.46L10.968 135.675L10.744 135.451L9.17599 135.115L8.728 134.667L8.392 133.882L8.28 133.097V132.649L8.504 132.201L8.728 131.976L9.39999 131.416L9.62399 131.08V130.631L9.39999 129.847L9.064 129.062L8.616 128.614L8.056 128.277L7.72 128.165H6.71201L6.48801 128.053L5.59201 127.269L4.35999 126.596L4.24799 126.372V126.036L4.58401 125.475L4.80801 125.027L5.25601 123.682L5.59201 123.346L5.92801 123.121H6.26401L6.48801 122.897L6.60001 122.449L6.48801 121.44L6.15201 120.767L5.70401 120.319L5.03201 120.095H3.12799L2.79199 119.983L2.23199 119.647L1.784 119.086L1.56 118.302V117.629L1.672 117.069L1.896 116.508L2.56799 115.387L3.12799 115.051L5.25601 113.706L6.37601 113.257L6.60001 112.921L6.71201 112.473L6.60001 110.904V110.455L7.048 110.007L7.272 109.783L8.504 109.11L8.616 108.886L8.728 108.438L8.504 107.429L8.392 106.868L8.28 106.42V105.972L8.504 105.523L8.952 104.851V104.402L8.84 103.954L8.504 103.394L8.168 103.057L7.832 102.833L6.936 102.273L6.60001 102.161V101.376L8.056 99.807L10.408 100.479L10.968 101.04L10.856 101.376L10.408 101.6L10.072 101.824L9.95999 102.161L10.072 102.833L10.296 103.282L10.744 103.842L11.976 104.739L12.984 105.187L16.68 104.739L18.248 104.851L18.696 104.627L18.92 104.29L18.696 103.282L18.808 102.945V102.609L19.144 102.161L20.04 101.264L20.488 100.816L21.048 99.919L21.16 99.47L21.496 98.462L21.832 97.901L22.616 97.565L23.96 96.556L24.52 96.332H26.648L27.208 96.22L27.656 95.996L28.328 94.987L28.776 94.426L29.224 94.202L29.672 94.314L30.12 94.426L31.912 94.539L32.248 94.651L32.92 94.987L33.144 95.099L33.704 95.211L34.04 95.099V94.763L33.816 94.202L33.48 93.418L33.256 92.969V92.745L33.48 92.409L33.928 91.96L34.824 91.512L35.272 90.952L35.944 90.167L36.28 90.055H36.616L37.96 90.615L38.184 90.84V91.064L38.072 91.4L37.4 92.521L37.064 93.081L36.952 93.53V93.866L37.064 94.09L37.288 94.314L37.624 94.539L48.488 96.78L48.936 97.117L49.048 97.341V98.125V98.462L49.384 98.91L49.944 99.246H50.504L50.84 99.022L50.952 98.686L52.184 93.53L52.52 92.409L52.632 92.073V90.952V90.167L52.856 89.382L53.08 89.046L53.304 88.598L53.976 88.262L54.424 88.037H54.872L55.208 88.149L55.768 88.486L56.44 89.158L57 90.055L57.448 90.503H57.896L59.912 89.831L60.248 89.607L60.92 88.934H61.256L61.48 89.046L63.272 90.055L63.608 89.943L63.832 89.831L64.168 89.27L64.952 87.589L65.176 87.253H65.512L65.736 87.365L66.184 87.813L66.632 87.925L67.416 88.037L68.312 87.701H68.872H69.208L69.656 88.149L70.888 90.279L71.112 90.615L71.448 90.84H71.784H72.12L73.24 90.055L75.256 89.494L75.48 89.27L76.152 88.486L76.488 88.149L77.048 87.813L77.384 87.925L78.392 88.374L79.064 88.262L79.4 88.149L80.072 87.477L80.632 87.029H81.08L81.304 87.141L81.64 87.701L81.864 88.037L82.312 88.262L83.096 88.486L83.544 88.037L83.768 87.589V87.253V86.132V85.796L83.992 85.011L85.448 82.321L86.12 81.536L87.24 80.639L87.464 80.415L88.024 79.519L88.696 78.846L90.264 77.389L90.6 76.828L90.936 76.492L93.624 74.699L93.96 74.138L94.296 73.69L95.304 71.112L95.64 70.663L96.2 70.103L98.104 68.758L98.44 68.422L98.552 67.749L98.664 66.628V65.956L98.552 65.619L98.328 65.395L98.104 65.171L97.32 64.947L97.096 64.835L96.872 64.611L96.76 63.938V62.817L96.872 62.481L97.208 62.033L97.88 61.36L98.104 61.024L98.888 58.894L99.56 57.661L99.672 56.876V56.54L99.336 55.643V55.419V55.083L99.448 54.747L100.344 53.29L100.456 52.953L101.016 49.479V49.142L100.904 48.806L100.792 48.582L100.232 48.133L100.12 47.909V47.125L100.344 46.676L101.016 45.219L101.128 44.547L101.016 44.322L100.232 43.762L100.008 43.538L99.896 43.202V42.977L100.12 42.641L100.904 41.632L101.464 40.399L101.912 39.839L102.36 39.503L102.696 39.278L104.824 39.054L109.64 35.692L110.312 35.467L110.984 35.355H113.224L113.896 35.243L115.016 34.907L115.464 34.795L116.136 34.907L116.36 35.019L116.584 35.243L116.696 36.252L116.808 36.588L117.144 37.149L117.816 37.821L118.04 38.382V39.166L118.376 39.727L118.824 40.287L119.272 40.96L119.608 41.184L119.944 40.96L120.056 40.623L120.168 39.727L120.392 39.278L120.728 38.718L121.064 38.606H121.288L121.848 39.054L122.184 39.278L122.632 39.39L123.416 39.278L123.864 39.166L124.2 38.942L124.536 38.382L124.648 38.045L124.984 36.252L125.208 35.804L125.432 35.579H125.768L126.104 35.692L126.328 36.028L126.44 36.588L126.328 38.606L126.44 38.942L126.552 39.166L126.888 39.39L132.712 40.511L133.272 40.287L133.496 39.839L134.168 38.494L134.84 37.373L135.96 36.252L136.072 36.028L136.296 35.243L136.184 34.234L136.408 33.674L137.976 31.544L138.536 30.199L138.872 29.527L138.984 28.742V27.957V27.173L138.76 25.828L138.872 25.603L139.096 25.155L139.32 24.931L139.656 24.819L142.008 24.034L142.568 23.81L142.904 23.474L143.016 22.689L142.792 22.129L142.456 20.896L142.12 19.551V18.766L142.008 18.093L141.56 16.86L141.448 16.524L141.784 16.076L142.232 15.515L144.248 13.946L144.584 13.61L144.92 12.937L145.256 12.041L145.48 11.48L145.816 11.368L146.376 11.704H146.824L147.608 11.592L148.392 11.256L149.624 9.911L150.072 9.35001L150.408 8.67799L150.52 8.342V7.66901L150.296 7.10899L149.4 5.87601L149.176 5.427V4.755L149.288 3.97L149.512 3.522L149.848 2.961L150.52 2.177L150.744 1.84L151.08 1.616L151.64 1.392H151.976H152.76L153.208 1.616L153.768 1.953L154.328 2.289L155.112 2.625Z" fill="#FFD700" stroke="#0057B8" stroke-width="2" stroke-linecap="round" stroke-linejoin="round"/>
</svg>
