<svg width="163" height="93" viewBox="0 0 163 93" fill="none" xmlns="http://www.w3.org/2000/svg">
<path d="M91.424 16.836L92.88 15.154L94 15.603L96.912 14.818L98.144 15.491L99.712 17.06L100.16 17.732L101.28 20.423L102.064 21.656L102.96 22.44L103.968 22.776L105.312 22.889L106.32 22.328L105.424 19.077L105.984 17.732L106.656 17.62L107.104 18.069L107.44 18.741L107.664 19.077L108.336 19.19L110.464 19.077L111.696 18.741L111.472 17.732L110.464 16.724L109.344 15.939L107.104 15.266L105.872 14.594L105.76 13.585L106.992 12.576L108.448 12.913L110.688 14.594L111.584 15.042L112.592 15.154L113.264 14.594L113.6 13.025L113.376 12.464L112.144 11.119L111.92 10.447L112.256 9.54999L113.04 9.43799L113.712 10.11L114.048 11.007L114.272 12.576L114.832 13.697L115.728 13.585L116.624 12.016L116.736 11.007L116.288 9.66199L116.624 8.87701L117.296 8.31699L117.856 8.20499L118.528 8.42899L119.2 8.87701L118.752 10.783L119.088 12.688L119.984 14.033L121.104 14.594L122.672 14.37L123.568 13.585L124.24 12.464L125.136 11.343L126.368 10.783H127.712L130.064 11.343L130.848 12.352L131.296 12.688L131.52 12.576L131.744 12.24L132.08 12.016L132.864 12.128L134.096 12.576L136.784 12.801L137.456 12.688L137.792 12.24L138.576 11.007L138.912 10.671H141.04L141.712 10.895L143.056 11.792L143.84 12.016L144.512 11.904L145.184 11.792L145.632 11.455L145.968 10.671V9.43799L145.632 8.98901L144.96 8.87701L144.4 8.54099L144.288 7.30801L145.632 7.08401L148.096 7.53201L148.656 7.98099L149.216 8.54099L149.776 8.98901L150.56 8.87701L151.232 8.31699L152.016 6.74799L152.8 6.18701L155.152 7.08401L156.944 8.76501L158.176 11.119L159.072 13.921L160.416 20.086L161.088 20.983L159.632 23.001L155.824 26.139L154.816 26.7L153.92 26.363L152.24 24.682L151.008 24.346L148.768 25.579L145.072 30.174L142.72 31.407L140.704 31.295L134.096 28.829L132.752 27.933L132.08 27.82L131.408 28.045V28.717L131.52 29.502V30.062V30.511L131.744 30.959L131.856 31.519L131.52 31.744L130.736 31.519L130.064 31.632L129.616 31.407L129.168 31.295L128.608 31.856L126.256 32.304L124.128 30.959L122.112 29.278L120.096 28.381L119.424 28.605L119.2 29.166L118.976 29.838L118.416 30.399H117.968L116.96 29.95H116.624L115.952 30.959L116.064 31.744L116.4 32.865L116.736 34.658V36.451L116.512 37.684L115.84 38.245L114.608 38.357L113.376 37.909L112.704 36.9L112.032 35.667L111.136 34.77L109.904 34.322L109.568 35.106L109.232 36.227L107.216 37.572L106.544 38.693L106.096 40.15V40.935L104.192 41.832L96.352 43.625L95.344 43.849L92.432 43.961L91.424 44.298L89.296 45.306L88.288 45.643L87.168 45.531L86.608 45.306L86.16 48.333L86.272 50.463L85.6 53.377L84.592 56.291L83.584 58.309L82.912 59.206L81.232 60.551L80.448 61.559L79.104 64.698L78.544 65.707L75.632 67.052H69.584L65.664 68.285L62.752 67.949L61.632 68.173L59.84 68.957L56.48 69.406L52.448 71.087L21.984 74.45L19.408 76.243L13.36 86.331L10.784 88.797L6.86403 90.479L1.37604 91.487V90.366V89.918L1.60004 87.788L1.71204 87.452L4.62402 80.951L4.84804 80.166V79.382L4.73602 78.709L4.62402 78.485L4.06403 77.252L3.84003 76.355V74.338L3.72803 73.665L3.50403 73.105L2.49603 71.984L2.27203 71.423L1.71204 69.854L1.60004 69.182V67.724L1.26404 65.931L1.37604 65.258L1.48804 64.474L1.71204 63.801L4.51202 58.421L4.84804 57.748L5.07204 56.067V55.731L5.40804 55.282L5.85603 54.722L6.86403 54.049L7.53603 53.713L8.65604 53.377L9.10403 53.041L12.352 49.23L13.024 48.781L13.584 48.445L14.256 48.333L14.48 48.109L14.592 47.66L14.48 47.324L14.144 46.427L14.032 45.755V44.522L14.256 43.849L14.48 43.401L14.928 42.953L15.824 42.28L16.72 41.832L17.392 41.495L17.952 41.159L23.888 33.313L28.704 29.614L30.944 28.605L33.52 27.708L36.32 27.372L37.552 27.484L38.336 27.708L39.568 28.157L40.24 28.493L40.688 28.829H41.472L41.808 28.717L42.032 28.381L42.368 27.82L42.592 27.148L43.04 24.682L43.376 16.387L43.264 15.379L41.584 10.783L40.912 8.20499L40.8 7.08401V6.63599L40.912 6.18701L41.248 5.40302L41.584 4.95401L42.144 4.28201L42.928 3.49701L45.28 1.70401L46.064 2.26401L47.408 2.71201L50.096 2.93701L50.656 3.49701L51.104 5.73901L51.776 6.18701L52.448 5.96301L52.784 5.29001L52.896 4.39401L53.344 3.60901L55.024 2.48801L55.92 3.27301L56.704 4.73001L57.824 5.62701L59.056 7.30801L59.28 7.86899V8.65302V8.98901L62.304 10.11L63.312 10.222L64.32 10.11L65.328 9.32599L66.112 7.53201L66.896 6.85999L68.464 7.53201H69.024L69.36 6.97198L69.584 5.51501L69.808 4.95401L70.816 4.50601L71.376 5.06601L71.6 6.41101V7.53201L71.04 10.559V11.68L71.712 13.025L72.72 13.921L73.952 14.594L75.072 14.482L75.856 13.249L74.848 11.792L74.4 10.783L74.176 9.77399V8.42899L74.288 7.98099L76.08 8.20499L76.864 9.32599L76.752 12.016L77.088 14.706L78.992 15.939L82.576 15.154L83.696 15.266L84.48 15.603L86.048 16.499L88.064 17.284L89.744 17.396L91.424 16.836Z" fill="#FFD700" stroke="#0057B8" stroke-width="2" stroke-linecap="round" stroke-linejoin="round"/>
</svg>
