<svg width="261" height="165" viewBox="0 0 261 165" fill="none" xmlns="http://www.w3.org/2000/svg">
<path d="M157.999 45.279L156.431 46.288L156.543 46.96L156.655 47.297L157.663 48.978L157.775 50.099L158.335 50.547L158.895 50.771L159.343 51.22L159.903 52.117L161.023 54.807L162.703 57.048L163.039 57.833L165.727 60.86L178.831 79.803L179.279 80.139L179.951 80.251L180.623 80.587L180.959 81.26L181.295 82.044L181.855 82.717L183.087 83.277L184.207 83.502L185.215 83.95L186.111 85.183L184.767 86.752L183.871 87.313L182.863 87.649L181.855 87.088L180.847 86.08L180.063 85.071L179.503 84.623L172.447 82.044L171.215 81.26L170.767 80.587L169.871 80.027L168.751 79.803L167.855 79.691L166.735 80.139L166.063 80.475H165.503L161.807 77.561L161.023 76.664L159.343 73.301L158.447 72.517V71.844L159.231 71.396L161.359 70.948L162.143 70.275L162.479 69.939L163.263 69.378L163.599 68.818L163.823 67.921L163.599 67.585L163.375 67.361L162.367 61.308L162.031 60.187L160.463 58.73L160.127 57.609L159.903 56.264L159.455 55.703L158.671 55.367L157.999 54.807L156.431 51.108L155.759 50.659L152.511 50.884L151.615 50.659L151.167 50.099L150.383 48.754L149.935 48.081L149.487 47.857L147.807 47.521L148.367 46.736L149.487 45.615L149.935 45.055V44.494L148.591 44.719L146.351 46.064L144.895 46.288L142.655 45.503L141.535 45.279L140.191 45.727L141.199 44.158L142.543 42.365L143.215 40.459L142.319 38.442L140.751 37.769L139.183 38.442L137.615 39.563L135.935 40.235L136.271 39.114L137.055 37.545L137.279 36.312L137.503 35.303L138.063 34.631L138.735 34.294L139.631 34.07L139.743 33.958L141.759 33.622L142.207 33.734L142.655 32.949L142.767 32.053L142.655 31.044L142.319 29.811L140.639 31.828L139.631 32.613L137.055 33.173L136.047 33.734L129.663 39.675L127.199 40.908L124.511 41.468V40.908L126.303 39.675L126.975 39.002L127.311 38.217L127.647 37.209L128.095 36.312L128.879 35.976L129.439 35.415L129.663 33.398L130.223 32.837L131.007 32.725L131.903 32.501L132.463 32.053L133.023 31.716L133.471 31.044L134.479 29.699L134.703 29.138L135.039 27.793V27.121L134.815 26.672L134.703 25.776L134.031 25.327L129.551 23.758V24.318L130.783 25.663L131.455 26.56L131.679 27.345L131.119 28.466L130.111 28.354L129.103 28.017L128.767 28.241L128.543 29.026L127.983 30.147L126.863 31.94L126.079 32.277L125.407 31.38L124.511 29.138L125.295 27.793L125.743 27.345L124.735 26.784L123.391 27.121L122.383 28.354L121.935 30.147L121.711 32.389L121.375 33.173L121.039 32.613V30.483H120.703L120.479 31.044L120.255 31.38L119.919 31.492L119.359 31.716L119.807 31.044V29.811L118.127 31.716L118.239 30.82L118.799 29.362L118.911 28.241L119.247 27.793L120.591 27.121L121.039 26.784L121.263 24.991L120.479 24.094L119.135 23.422L118.127 22.525L118.575 22.413L119.807 21.852L118.351 19.611L117.567 18.826H116.335L116.111 19.274L115.887 20.844L115.551 21.292L114.991 21.404L114.319 21.18L113.647 20.844L113.199 20.395L112.975 19.05L113.087 17.593L112.975 17.032L110.735 20.507L109.839 20.731L109.167 19.498L109.951 18.49L108.943 17.817L106.255 17.032L105.807 17.705L105.583 17.257L105.135 16.808L104.687 16.584L103.903 16.248L103.343 15.8H103.007L102.895 15.912L102.783 16.36L102.895 16.808L103.007 17.032L103.679 17.257L107.263 20.395L107.935 21.068L108.271 22.189L108.383 23.982L108.047 25.551L107.151 26L106.143 26.112L105.359 26.784L103.791 25.215L103.119 23.982L102.783 22.525L103.903 22.973H104.799L105.583 22.637L106.255 21.852V21.292L102.783 18.153L100.767 17.032L98.191 13.334L96.959 12.549L95.727 12.101L92.815 11.988L92.143 12.325L92.367 12.885L93.487 13.894L94.159 14.23L94.831 14.118L95.279 14.23L95.615 15.127L94.383 15.687V16.472L94.831 17.481L95.167 18.49L94.719 19.611L93.711 19.274L92.703 18.602L92.367 18.153L91.919 17.817L91.695 17.032L91.247 16.136L90.463 15.8L89.903 16.136L89.343 16.92L88.559 17.593L87.551 17.705L87.999 17.032L87.663 16.472L87.551 16.136V15.8L88.783 15.239L88.223 13.782L85.871 10.868L86.431 10.195L86.655 9.29797V6.83197L86.319 6.38397L83.743 5.263V8.28998L83.407 9.63501L82.623 10.307L79.823 8.62598L79.263 8.065L76.463 2.909L76.015 2.237L75.343 1.67603L74.895 2.349L75.455 5.599L74.783 7.841L72.767 9.97101L73.775 11.764L73.999 13.109L73.439 14.118L72.767 15.015L72.879 16.024L73.663 19.162L73.775 19.835L73.327 20.507L72.991 21.404V22.189L73.775 22.413L73.887 22.973L73.439 23.982L72.207 25.551L72.991 26.112L73.439 25.776L73.887 25.215L74.559 24.991L76.127 24.879L79.711 25.776L80.831 26.448L81.951 27.457L80.943 28.017L78.815 28.578L77.807 29.138L76.799 28.802L76.687 30.371L76.799 32.501L76.687 33.51L75.343 33.734L74.671 33.622L74.335 33.173L74.111 32.613L73.663 32.165L72.879 31.828L72.207 31.716H71.647L70.975 32.053L69.743 32.837L68.175 34.743L66.719 35.191L66.047 35.303L65.263 35.079L64.143 34.294L63.695 34.07L62.799 34.518L60.223 36.2L59.215 36.648L57.311 38.666L57.087 39.226L54.847 40.235L50.255 43.037L48.127 43.374L45.887 42.028L44.879 40.683L44.319 40.347L43.759 40.795L43.647 41.804L44.207 42.253L44.767 42.589L45.103 42.925L44.767 44.046L43.983 44.607L29.871 51.22L25.615 54.022L23.711 56.04L23.375 56.6L23.151 57.161L22.927 57.945L23.039 58.618L23.263 59.402L23.151 60.075L22.255 60.411L21.583 60.299L20.351 59.851L19.791 59.739L18.783 59.851L18.335 60.299L17.887 60.972L16.543 62.317L15.535 62.877L14.415 63.213L12.959 63.326L11.727 63.662L4.33502 69.266L2.54303 71.284L1.64697 73.638L1.98297 74.871L3.66302 79.691L5.00702 79.915L7.13501 81.036L8.479 81.484H12.959L13.855 81.036L15.983 78.57L16.991 77.897L18.335 77.673L27.631 78.458L30.095 79.578L32.335 81.036L36.479 84.623L37.039 84.959L38.159 85.407L38.719 85.743L39.391 87.088L39.951 87.873L41.519 88.77L43.647 91.46L44.543 92.357L47.343 93.253L48.687 93.926L49.247 95.159L49.919 95.944L51.375 95.607L53.503 94.262L55.855 93.365L58.431 93.029L59.439 93.478L62.911 96.616L67.167 99.418L68.735 101.436L69.743 105.023L69.855 107.265L70.079 108.049L71.199 110.291L71.423 110.851L71.535 112.309L72.207 115.671V117.689L71.983 119.482L71.647 120.939L70.975 122.06L69.183 122.621L68.512 122.845L67.728 123.966L67.168 125.535L66.72 127.329L66.496 127.777L66.384 128.114L65.824 128.562L66.384 129.683L66.72 130.916L67.056 133.382L67.728 135.175L67.84 136.072L67.616 137.529L67.056 138.426L66.272 139.322L65.712 140.443L65.824 141.676L66.384 142.237L68.4 142.573L69.296 142.909L67.952 143.47H64.816L63.92 143.806L63.472 144.142H61.456L60.896 144.254L59.44 145.263L58.992 145.599L57.088 145.936L56.864 145.712V146.72L57.312 147.841L64.032 152.549L64.816 153.334L65.936 154.23L67.28 154.118L68.624 153.782L69.744 153.67L70.416 154.23L72.32 156.696L72.656 157.481L72.992 159.162L73.888 159.947L78.48 162.189L79.039 162.301L79.823 162.413L83.855 162.525L84.639 162.413L85.871 161.964H86.655L90.575 163.534L91.919 163.758L93.263 163.534L99.871 160.395L101.327 160.171L102.223 159.947L104.239 158.489L105.023 157.817L105.807 156.36L106.367 155.015L107.151 154.006L110.063 153.445L110.847 152.773L112.191 150.643L112.303 150.307V149.747L112.639 149.41H114.431L115.887 149.634L116.335 149.41L117.007 148.289L119.359 142.012L121.487 138.313L122.159 137.529L122.495 136.856L124.959 133.381H125.183L125.295 133.942L126.863 132.261L128.879 131.364L133.807 130.243L136.159 129.234L140.527 126.32L142.767 125.423L147.135 126.208L148.031 125.759L148.927 125.199L151.055 125.647L152.175 125.423L153.519 124.078L154.191 123.742L154.863 123.63L156.991 123.742L158.223 124.19L158.895 125.199L159.567 126.432L160.127 127.329L162.815 127.777L164.607 125.087L165.839 121.276L167.407 118.361L168.527 117.801L171.215 117.241L172.335 116.232L173.679 113.317L174.799 112.645L176.367 113.542L176.703 113.093L177.375 112.645L177.599 112.309L180.623 114.662L180.175 111.972L180.287 110.851L181.071 109.843L181.967 109.506L183.983 109.618L184.879 109.282V108.722L183.087 107.937L182.639 107.489L182.527 106.592L182.639 105.92L182.975 105.247L183.087 104.238L183.647 103.454L187.007 100.876L189.247 99.755L191.823 99.194H194.511L197.199 99.642L201.679 101.436L205.599 103.902L206.383 104.687L208.287 106.928L208.623 107.825L209.183 109.731L210.415 110.403L214.671 109.618L219.487 109.843L220.383 108.834L221.391 106.816L222.847 105.471L224.751 106.256V105.583L228.223 107.825L233.823 109.058L234.943 108.722L235.279 108.273L235.615 106.816L235.839 106.256L236.399 105.92L237.071 105.695L242.671 105.471L247.151 103.79L247.935 103.005L248.047 101.66L247.263 100.315L245.583 98.41L245.247 96.504V94.598L245.807 89.442L246.255 87.537L246.927 85.743L247.823 84.623L248.271 84.398L249.727 84.286L250.287 83.95L250.623 83.277L250.511 82.829L250.063 82.493L249.839 81.82L250.175 80.139L250.959 79.13L252.191 78.906L253.647 79.13L255.439 80.139L256.223 80.251H256.895L258.911 79.691L259.471 78.794L259.023 76.664L257.903 73.638L257.007 72.629L255.999 72.068L254.991 72.181L253.871 73.414L252.863 73.638L251.855 72.741L250.287 70.611L249.055 70.387L245.359 71.284L244.127 70.948L242.111 69.602L240.991 69.378L240.319 69.602L239.759 70.163L239.199 70.611H238.415L238.863 69.042L238.415 67.921L237.407 67.697L236.399 68.482L235.503 69.042L228.335 68.93L227.103 69.378L225.871 70.723L224.079 71.844L223.855 72.181L223.071 74.871L221.279 77.225L218.927 77.785L216.575 76.888L211.871 74.086L210.751 73.189L210.303 72.181L210.639 70.499L211.199 69.154L210.975 68.37L209.519 68.145L208.511 68.818L207.727 70.163L207.167 71.732L206.943 73.414L206.719 73.75L205.711 75.095L205.375 75.431L204.479 75.655L204.255 76.216L204.143 77L203.919 77.897L202.239 79.691L200.895 80.587L189.919 83.726L187.679 83.502L178.383 77L160.575 50.547L157.999 45.279Z" fill="#FFD700" stroke="#0057B8" stroke-width="2"/>
</svg>
