<svg width="248" height="163" viewBox="0 0 248 163" fill="none" xmlns="http://www.w3.org/2000/svg">
<path d="M125.88 3.74701L128.008 4.19501L128.792 3.97101L129.016 3.85901H129.352L129.8 3.97101L130.36 4.42001L130.808 4.64401L131.48 4.75601L132.824 4.42001H133.272L134.84 4.75601H135.96L136.296 4.86801L137.416 5.31601L139.208 6.66101L139.656 7.10999L139.992 7.55801L140.216 8.45499L140.44 8.79099L144.472 12.042L144.808 12.602L145.032 13.05L145.368 13.387L147.048 14.508L147.272 14.844L148.392 16.301L149.288 17.198L152.872 19.327L153.88 20.112L155.112 21.569L155.56 21.681L156.008 21.793H156.792L158.024 21.457H158.36L161.496 22.018L161.832 21.906L162.392 21.681L162.728 21.569L163.176 21.681L164.184 22.578L164.52 22.914L164.856 23.139L165.192 23.251L167.096 23.139L167.544 23.251L167.992 23.475L168.552 24.035L169 24.259H169.56L169.896 24.035L170.456 23.699H170.904L173.48 24.484L174.824 25.044L175.384 25.492H176.056H176.504L177.064 25.044L177.624 24.82H177.96L178.52 24.596L178.744 24.484L179.752 23.699L180.872 23.139L183.784 22.018L184.568 21.569L185.128 21.681L185.912 22.242L187.592 23.811L188.152 24.596L188.376 25.268V26.053V26.389L188.824 26.95L189.944 28.295L190.168 28.743L189.944 29.303L189.272 30.536L188.824 30.985L187.256 31.882L186.584 32.554L186.472 32.778V33.002L186.808 33.227L188.824 33.114H189.16L189.608 33.451L190.616 34.347L191.176 34.684L192.744 35.132L193.304 35.468L193.528 35.917V36.365L193.752 36.813L194.312 37.262L195.656 38.046L196.216 38.495L196.664 38.943L197 39.728L197.336 40.064L199.016 41.297L199.352 41.745L199.464 42.194L199.128 42.642L198.792 42.978L197.56 43.875L197.336 44.099L197.112 44.772L197 45.108L197.112 45.444L197.336 45.669L199.688 47.35L201.256 48.919L205.624 52.618L206.408 53.515L206.632 54.075L206.408 54.748L205.624 56.317L205.4 56.877V57.214L205.624 57.438L206.632 58.223L207.64 59.343L207.864 59.792L207.64 60.352L205.96 62.258L205.736 62.818L205.848 63.042L206.52 63.715L206.744 63.827H207.08L207.64 63.379L208.2 62.818L208.424 62.594L208.648 62.482L209.32 62.818L209.768 63.267L210.104 63.491H210.552L211 63.267L212.12 62.482L212.232 62.146V61.809L211.672 61.361L211.56 61.249L211.448 60.913L211.56 60.576L212.568 58.895L217.048 53.403L218.056 52.73L218.392 52.618H218.952L219.96 52.954L222.648 54.524L223.656 55.308L223.992 55.757L224.328 56.317L224.552 56.541L225 56.765L225.784 56.877L228.024 56.653L228.584 56.429L229.032 55.869L230.264 55.084L233.848 54.636L234.072 55.42L234.184 56.205L234.408 56.653L234.632 56.877H234.968L237.096 56.541H237.432L237.656 56.653L237.88 56.877L237.768 57.438L237.544 57.774L236.984 58.11L236.76 58.335L236.088 59.68L235.528 60.128L235.304 60.352L235.192 60.913V62.706V63.267L235.304 63.491L235.416 63.603L235.64 63.715L237.656 63.491L237.88 63.379L238.104 63.154L238.44 62.482L238.888 60.352L239 59.904L239.336 59.343L239.672 59.007L240.008 58.895L242.696 58.671L243.368 58.783L243.592 59.007L243.704 59.231L243.928 59.792L244.04 60.801L244.152 62.818L244.04 63.267L243.928 63.603L243.48 63.939L242.808 64.275L242.024 64.612L241.8 64.836L241.688 65.172L241.912 66.069L242.024 66.853V67.078L241.912 67.414L241.688 67.638L241.016 67.974L240.792 68.199L240.68 68.647L240.568 71.449L240.792 71.897L241.352 72.346V72.57L241.128 73.018L240.792 73.243L239.336 73.915L239.112 74.139L239 74.476V75.26L239.112 75.709L239.336 77.054L239.672 79.744L239.56 80.192L239.224 82.21V82.658L239.336 83.331L239.448 83.555L239.672 83.779H240.008L240.792 83.443L241.464 83.331L242.024 83.443L242.36 83.555L242.472 83.779L242.584 84.339L242.808 84.564L243.032 84.676L244.376 84.9L244.712 85.124L244.936 85.348L245.048 85.572V86.581L245.16 87.254L245.496 88.487L246.056 92.074L246.168 92.97L246.28 93.979V94.315L246.168 94.764L245.832 95.324L244.936 96.221L244.488 96.557L244.04 96.781L243.368 96.893L243.144 97.118L242.92 97.454L242.808 98.014V98.911L243.256 101.377L243.368 102.05L244.04 103.731L244.152 104.403L244.264 105.636V106.421L244.152 106.757L243.816 107.318L243.144 107.99L241.576 109.335L240.904 109.784L240.232 110.008L239.896 109.896L237.768 108.775L235.416 108.102L234.856 107.766L234.632 107.542L234.408 106.645L233.96 106.197L233.736 105.973L230.04 104.852H229.368L227.352 105.412H226.232H225.896L225.336 105.636L224.888 106.197L224.664 106.757L224.552 107.654L224.216 113.034L224.328 113.483L224.552 114.716V115.725L224.888 116.285L225.224 116.509L226.344 116.733L226.68 116.845L226.904 116.957L227.016 117.294L227.688 118.975L228.136 119.76V120.32L227.8 120.432L227.128 120.544L225.112 120.656H224.664L224.328 120.881L223.88 121.217L223.432 121.329H222.424L222.2 121.553L221.976 121.777L221.864 122.338L221.752 122.674V123.459L221.864 123.795L222.088 124.131L222.648 124.467L223.544 124.692L223.88 125.028L224.104 125.364L224.552 127.494L213.128 129.175L212.904 129.063L212.68 128.839L212.344 128.391L211.896 127.942L211.224 127.83L210.888 127.942L210.328 128.166L209.656 128.727L209.432 129.175L208.984 129.848L208.536 130.184L207.976 130.296H206.632L205.848 130.184L205.4 130.072L204.728 129.399L204.504 129.287L204.168 129.063L202.712 128.951L202.152 128.727L202.04 128.503L201.816 126.485L201.704 125.925L201.48 125.7H200.808L200.472 125.813L200.024 125.925L199.576 126.485L199.352 126.933L199.016 127.606L198.792 127.83L198.232 128.054L195.432 128.279H194.984L194.536 127.83L194.312 127.606L193.752 127.382L193.64 127.158L193.528 126.485L193.304 126.261L192.744 125.925L192.632 125.7L192.52 125.028L192.632 124.692L192.744 124.58H193.304L193.528 124.804L193.976 125.252L194.312 125.364L194.648 125.252L194.984 124.804L195.096 124.355L195.656 122.786L196.104 121.777V121.441V121.105L195.88 120.208L195.992 119.536L196.104 118.975V118.639H195.992L194.2 118.751L193.752 118.415L193.528 118.078L193.304 117.854L192.52 117.518L192.408 117.294L192.52 116.285V115.837L192.408 114.604L192.296 113.931L191.96 113.371L191.736 113.259L191.4 113.146L190.504 112.922L190.168 112.586V112.362L190.28 112.026L190.616 111.465L191.4 110.568L191.736 109.896L191.848 109.56L191.624 108.999L191.288 108.887L190.84 108.999L188.824 110.456L188.264 110.568H187.592L187.256 110.344L187.144 110.12V109.335V108.999L186.808 108.214L186.696 107.542L186.808 107.094L187.032 105.861V105.524V105.188L186.808 104.964L186.584 104.74L186.36 104.628L185.912 104.516H185.24L181.544 105.412L178.184 106.757L177.512 106.869L176.952 106.757L176.056 105.3L175.608 104.852L175.272 104.74L172.248 104.067L171.688 103.731L170.904 102.834L170.456 102.05L170.008 101.601L169.336 101.377L168.664 101.265L166.872 101.489L164.296 102.162L163.736 102.498L162.728 103.283L161.384 104.74L160.712 105.188L159.704 105.524L159.144 105.636H158.584L157.688 105.076L147.944 103.395L143.912 101.377L142.568 100.929H142.008L138.648 101.489L137.64 101.825L137.08 101.937H136.52L134.84 101.153L134.168 101.041H133.16L131.816 101.377L131.48 101.601L130.92 101.937L129.8 102.05H129.24L128.568 101.937L127.896 102.162L127 102.722L124.872 104.516L123.304 105.524H119.72L119.384 105.412L119.16 105.188L118.936 104.628L118.824 103.955V103.283V102.162V101.937L118.6 101.713L118.264 101.601H117.592L117.256 101.825L116.92 102.05L116.696 102.946L116.584 103.395L116.696 103.843L116.92 104.74L117.256 105.524L117.368 105.861L117.144 106.421L117.032 106.982L116.92 109.223L116.808 109.447L116.584 109.784L115.8 110.344L115.464 110.568L115.24 111.129V111.577L115.352 111.913L115.576 112.026L115.8 112.138H116.472L116.808 112.25L117.032 112.362L117.256 112.922V113.707V114.043L117.592 114.604L117.928 115.052L118.6 115.388L120.84 115.949L121.176 116.061L121.512 116.621L121.624 117.182L121.736 117.518L121.624 118.303L121.4 118.751L121.064 119.087L120.392 119.423L117.704 119.984L117.368 120.208L115.688 121.665L115.352 122.114L115.128 122.786L114.904 123.683V124.355L115.128 124.916L115.576 125.364L120.392 128.279L120.728 128.727L120.84 129.063V129.624L120.616 130.072L120.056 131.081L119.832 131.641V132.09V132.426L120.056 133.323V133.659L119.832 134.892V135.228L119.944 135.452L120.28 135.676L121.4 135.901L122.856 136.125L123.192 136.349L123.416 136.461V137.134L122.744 141.505L122.296 142.962L121.848 145.652L121.4 147.222L120.504 149.576L120.392 150.248V150.472L120.616 150.696L121.848 151.705L122.184 152.154L122.52 152.714V153.387L122.072 155.292L121.96 155.628L121.624 156.301L121.064 156.973L120.504 157.086L116.472 156.861L110.088 155.628L104.824 153.387L101.688 152.826L101.016 153.05L92.504 157.086L84.664 158.767L77.496 161.121L74.584 161.569L68.424 161.009L58.792 157.87H57.336L49.496 160L43.448 160.448L42.664 160.224L42.552 160L42.216 158.991L41.88 158.431L41.544 158.094H41.096L39.64 158.206L39.304 158.094L39.08 157.87L38.744 156.637L38.52 156.077V155.74L38.744 155.068L39.304 153.947V153.723L39.192 153.275L38.968 152.938L38.52 152.49L38.072 152.378L37.736 152.266L34.04 153.05L33.48 153.275L33.368 153.499L33.256 153.835L33.48 154.732V155.404L33.368 155.74L32.92 156.189L32.36 156.413L25.752 157.758L25.304 157.982L24.968 158.543L24.856 159.103L24.632 159.327L24.296 159.664H23.848L23.512 159.551L22.84 159.215L22.28 158.655L21.832 158.206L21.72 157.982L21.496 157.422L21.272 156.525L21.048 155.965L20.376 155.628L19.368 155.18L14.776 154.283L14.328 153.835L13.432 153.05L13.096 152.938L8.39203 151.593L3.12799 150.809L2.67999 150.584L2.45599 150.36L2.34399 150.136V149.688L2.45599 149.015L2.90399 148.343L3.57599 147.558L3.91199 147.11L4.13599 146.661V146.101L4.02399 145.204L3.68799 144.195L3.23999 143.074L2.23199 141.281L1.896 140.384L1.784 139.824L2.12 139.6L2.56799 139.151L2.90399 139.039L5.25598 138.367L7.94397 138.142L8.16803 137.806L8.28003 137.358L7.94397 136.125L7.60797 135.564L7.27197 135.228L6.82397 134.892L6.59998 134.443V133.771V128.727L6.82397 127.494L7.04797 126.933L7.15997 126.485L7.27197 124.355L7.38397 123.907L7.49597 123.571L7.94397 123.01V122.674L7.71997 122.114L7.15997 121.217L6.71198 120.993L6.26398 120.881L5.92798 120.993H5.25598L4.91998 120.769L4.80798 120.432V119.872L5.25598 118.19L5.59198 117.294L5.70398 116.733L5.03198 116.173L5.70398 113.034L6.37598 110.568L6.59998 110.344L7.04797 110.008L7.60797 109.896L8.28003 109.447L8.72803 108.775L9.28802 107.654L9.73602 107.094L10.296 106.533L11.192 105.861L11.64 105.524L12.088 105.412L14.44 105.636L15.896 105.188L16.344 104.964L16.568 104.628L16.904 103.507L17.016 102.722L16.904 102.05V101.377L16.792 100.704L17.016 99.92L17.24 98.799L17.576 97.118L17.8 96.893L18.136 96.781H18.36L18.584 97.23L19.032 99.808V100.032L18.696 100.817L18.584 101.153V101.825L18.808 102.722L18.92 103.058L19.144 103.283L19.48 103.507L19.704 103.283L19.928 103.058L20.376 101.601L20.936 100.256L21.048 99.92L23.624 97.118L23.96 96.557L24.184 95.997L24.408 95.773H24.744L24.968 95.885L25.528 96.557L25.976 97.006H26.648L27.432 96.893L27.768 96.781L28.104 96.445L28.664 95.773L31.128 93.419L31.352 93.195L32.024 91.849L32.36 91.625L32.696 91.513H33.144L33.592 91.401L34.376 91.177L34.712 90.841L34.824 90.392L35.496 86.021L35.384 85.348L35.272 85.124L35.048 84.9L34.264 84.676L34.04 84.451L33.816 84.003L33.704 83.219L33.592 78.399L33.144 76.493V75.709L33.032 75.148L32.472 74.812L32.248 74.7L32.136 74.363L32.024 73.579L32.136 73.018L32.36 72.682L32.808 72.346L32.92 72.01V71.673L31.576 68.535L31.352 67.974V67.526L31.464 66.853V66.629L31.24 66.517H30.68L30.456 66.405L30.344 65.957L30.232 65.172V64.387L30.456 64.051L30.68 63.715L32.472 62.594L37.736 60.464L37.96 60.576L38.072 61.025H38.408L38.856 60.801L40.536 59.007L41.096 58.671L47.592 55.42L48.152 55.084L50.392 52.73L50.728 52.506L51.4 52.394L51.848 52.282L52.408 52.058L53.192 51.385L53.64 50.937L53.752 50.6L53.64 50.376L53.304 50.152L50.84 49.592L50.504 49.48L50.392 49.255L50.28 48.583L49.944 48.022L49.72 47.798L46.024 47.574L45.352 47.462L44.008 46.453L43.672 46.341L40.2 45.669L39.976 45.556L39.528 45.108L39.192 44.211L38.968 43.651L38.744 43.427L38.184 43.09L37.96 42.866L37.624 42.418L37.288 41.409L37.4 40.849L38.296 39.392L38.744 38.943L39.08 38.719H39.416H39.64L39.864 38.943L40.2 39.504L40.424 39.728H40.872H41.208L43.672 37.598L44.008 37.486H44.456L45.128 37.71L45.352 37.934L45.576 38.159L45.8 39.167L45.912 39.392L46.136 39.616L46.472 39.84H46.808L47.144 39.728L47.592 39.504L48.712 37.934L49.272 37.486H49.608L50.392 37.598L50.616 37.822L50.84 38.046V38.383L50.616 39.616L50.728 39.952L50.84 40.176L51.288 40.064L51.624 39.616L52.072 38.943L52.296 38.607H52.52L52.632 38.831L52.744 39.952V40.176L53.08 40.849V41.745L53.64 42.082L53.976 41.97L54.312 41.745L54.648 41.185L55.096 39.616L55.544 38.831L56.104 38.495L56.44 38.046L56.888 37.262L57.448 36.813L57.672 36.365L57.784 36.029L57.896 35.58L58.232 34.46L59.8 31.994L60.36 32.554L67.304 37.486L67.752 37.598L68.648 37.486H69.096L69.432 37.71L70.216 38.383L70.552 38.719L71.672 39.167L74.92 39.728L76.824 40.737L78.728 43.203L79.512 43.315L81.304 42.082L82.648 40.737L83.096 40.288L83.208 39.952L83.096 39.728L82.984 39.392L82.2 38.831L81.976 38.607L81.864 38.271V37.598L81.976 37.262L82.088 36.926L83.32 35.58L83.992 35.132L84.328 34.796L84.44 34.46L84.216 32.442L83.992 31.882L83.768 31.657L81.976 29.864L81.752 29.303V28.631L81.864 27.398L82.088 26.613L82.648 25.38L83.544 22.69L83.992 22.018L84.328 21.681L85 21.121L86.12 20.673H86.904L87.352 20.448L87.688 20.112V19.776L87.576 19.552L87.352 19.44H86.68L86.232 19.327L86.12 18.767L86.344 18.207L86.568 17.982L88.136 16.637L89.032 15.741L89.816 14.62L89.928 14.283L90.04 13.499L89.928 12.826V12.49L90.152 12.042L90.488 11.93H90.824L91.496 12.266L102.696 7.33401L104.824 6.99799L109.864 5.42801L110.424 5.20401L110.872 4.86801L111.432 4.08301L112.104 3.41101L112.552 3.07501L113.112 2.85001L113.448 2.73801L115.016 2.85001L115.464 2.73801L116.024 2.29001L116.36 2.17801H116.696L118.488 2.85001L118.712 3.07501L118.824 3.29901V3.63501L118.712 3.85901L118.264 4.30701L118.04 4.53201L117.928 4.86801L118.04 5.09201L118.264 5.42801L118.6 5.54001L119.384 5.65302L119.72 5.42801L120.056 5.31601L120.392 4.64401L120.728 3.41101L120.952 2.85001L121.512 2.29001L121.848 2.06601L122.296 1.95401H122.632L123.304 2.17801L123.976 2.51401L125.88 3.74701Z" fill="#FFD700" stroke="#0057B8" stroke-width="2" stroke-linecap="round" stroke-linejoin="round"/>
</svg>
