<svg width="160" height="222" viewBox="0 0 160 222" fill="none" xmlns="http://www.w3.org/2000/svg">
<path d="M157.1 130.261L147.24 129.925L144.33 131.046L142.2 133.736L140.63 137.323L139.51 141.582L139.06 145.393L138.39 146.851L137.05 146.963L134.92 146.178L133.91 146.29L132.79 147.187L130.44 149.877L129.32 150.886L127.75 151.558L114.76 153.352L112.63 154.809L111.06 157.387L109.83 160.638L109.05 163.888L109.16 170.389L108.82 172.968L107.368 175.77L105.464 178.348L104.68 180.029L104.568 181.486L105.352 182.383L106.472 182.607L108.82 182.159L109.94 182.271L110.95 182.719L111.51 183.728L111.29 185.522L110.5 186.867L109.27 187.763L107.816 188.436L106.696 189.333L105.464 191.35L105.016 194.152L105.352 196.955L106.248 199.533L105.016 200.766L101.656 205.473L99.528 206.482L100.984 203.568L100.872 202.111L99.304 201.438L97.288 199.869L96.952 199.981L96.616 200.317L95.048 201.214L94.488 201.438L92.136 200.542L90.456 200.205L89.784 200.654L84.296 199.645L77.576 202.111H74.888L66.824 200.654L64.696 201.438L60.776 205.698L54.28 214.889L52.712 218.14L51.592 219.597L50.248 220.269L50.584 217.915L49.128 216.122L47 215.001L44.984 214.665L43.752 215.001L40.952 217.243L33.784 220.045L33.224 220.157L31.432 216.682L31.32 216.01L31.432 215.562L31.768 215.001L31.992 214.777L33.784 213.096L34.008 212.871L34.68 212.423H35.016L35.912 212.871L36.248 212.983H36.472L37.032 212.759L37.928 212.087L38.04 211.638L37.928 211.078L36.696 208.948L36.92 208.388L37.368 207.939L38.04 207.267L38.264 207.043L38.376 206.706L38.152 206.37L37.704 205.81L37.48 205.586L36.472 204.913L35.464 203.792L35.016 203.68L34.568 204.016L34.12 204.801H33.896L33.672 204.689L31.544 202.895L31.208 202.559L30.984 201.999L30.312 199.196L29.752 198.188L28.856 196.618L28.52 196.17L28.296 195.946L27.176 195.273L24.488 194.152L23.928 193.816L22.472 192.247L22.136 191.799L21.912 191.238L22.136 190.902L22.472 190.79L22.808 190.678L26.056 190.453L26.616 190.229L27.064 189.893L27.176 189.22L26.952 186.867L26.84 186.306L26.728 185.746L25.832 183.84L25.496 183.056V182.047L25.608 181.71L25.832 181.374L26.392 181.15L26.952 181.038L27.512 181.598H27.848L28.52 181.71H28.744L29.416 182.383L30.2 182.607L31.32 182.719H32.664L34.904 181.935L35.128 181.71L35.352 181.486L35.464 181.15V180.814V179.805V179.469L35.688 178.796L36.248 177.899L36.584 177.227L36.808 176.442L37.032 175.77L37.48 175.321L37.928 174.985L38.152 174.873H38.712L39.272 175.097L39.496 175.209L40.168 175.882L40.616 176.666L40.84 177.227L40.952 177.339L41.512 177.227L41.96 176.891L42.296 176.442L42.408 176.106L42.184 175.321V174.537V173.864L42.296 173.528L42.52 172.743L43.192 171.51V171.174V170.389L43.416 169.717L44.312 167.923L44.536 167.587V167.251L44.424 167.027L43.976 166.915H42.856L40.28 166.466L39.944 166.578L39.72 166.803L39.608 167.363L39.16 167.699H38.824L38.488 167.363L37.256 165.457L37.032 165.233L32.216 160.974L30.536 158.844L30.088 158.396L27.4 156.715L26.952 156.602H26.504L24.936 157.947L24.488 158.284L24.264 158.508L23.48 158.06L22.472 157.051L20.008 154.361L19 153.464L18.328 153.016L16.424 153.8L15.752 153.912L15.528 153.8L15.304 153.464L15.192 152.903L15.304 152.343L15.528 151.222V150.886L15.304 150.662L14.184 150.438L13.96 150.213L13.736 149.877L13.512 149.429V148.644L13.624 148.308L13.96 148.196L14.52 147.972L15.08 147.747L15.304 147.523V147.299L15.192 147.075L14.744 146.851L13.176 146.514L12.84 146.178L12.392 145.618L11.608 143.264L9.81598 139.453L9.70398 138.892L9.59198 137.547L9.47998 136.875L9.36798 136.65L9.14398 136.538H8.69598L7.12799 136.763H6.45599L5.672 136.65L5 136.314L4.664 135.305L4.552 131.494L4.104 129.365L3.88 129.028L3.54401 128.692L2.64801 128.468L2.08801 128.132L1.86401 127.795L1.75201 127.459V126.675L1.86401 126.338L1.97601 125.778L2.20001 125.554L2.42401 125.329H3.43201L3.88 125.217L4.328 124.881L4.664 124.657H5.112L7.12799 124.545L7.79999 124.433L8.13599 124.321V123.76L7.68799 122.976L7.01599 121.294L6.90399 120.958L6.67999 120.846L6.34399 120.734L5.224 120.51L4.888 120.285L4.552 119.725V118.716L4.328 117.483L4.216 117.035L4.552 111.655L4.664 110.758L4.888 110.197L5.336 109.637L5.896 109.413H6.23199H7.35199L9.36798 108.852H10.04L13.736 109.973L13.96 110.197L14.408 110.646L14.632 111.542L14.856 111.767L15.416 112.103L17.768 112.775L19.896 113.896L20.232 114.008L20.904 113.784L21.576 113.336L23.144 111.991L23.816 111.318L24.152 110.758L24.264 110.422V109.637L24.152 108.404L24.04 107.731L23.368 106.05L23.256 105.377L22.808 102.912V102.015L22.92 101.454L23.144 101.118L23.368 100.894L24.04 100.782L24.488 100.558L24.936 100.221L25.832 99.325L26.168 98.764L26.28 98.316V97.98L26.168 96.971L26.056 96.074L25.496 92.487L25.16 91.254L25.048 90.582V89.573L24.936 89.349L24.712 89.125L24.376 88.9L23.032 88.676L22.808 88.564L22.584 88.34L22.472 87.779L22.36 87.555L22.024 87.443L21.464 87.331L20.792 87.443L20.008 87.779H19.672L19.448 87.555L19.336 87.331L19.224 86.659V86.21L19.56 84.193L19.672 83.744L19.336 81.054L19.112 79.709L19 79.261V78.476L19.112 78.14L19.336 77.916L20.792 77.243L21.128 77.019L21.352 76.57V76.346L20.792 75.898L20.568 75.45L20.68 72.647L20.792 72.199L21.016 71.975L21.688 71.639L21.912 71.414L22.024 71.078V70.854L21.912 70.069L21.688 69.173L21.8 68.836L22.024 68.612L22.808 68.276L23.48 67.94L23.928 67.603L24.04 67.267L24.152 66.819L24.04 64.801L23.928 63.792L23.704 63.232L23.592 63.008L23.368 62.783L22.696 62.671L20.008 62.896L19.672 63.008L19.336 63.344L19 63.904L18.888 64.353L18.44 66.482L18.104 67.155L17.88 67.379L17.656 67.491L15.64 67.715L15.416 67.603L15.304 67.491L15.192 67.267V66.707V64.913L15.304 64.353L15.528 64.129L16.088 63.68L16.76 62.335L16.984 62.111L17.544 61.775L17.768 61.438L17.88 60.878L17.656 60.654L17.432 60.542H17.096L14.968 60.878H14.632L14.408 60.654L14.184 60.205L14.072 59.421L13.848 58.636L12.952 56.394L12.728 55.273L12.952 52.695L12.84 51.014V50.229L11.832 46.082L11.608 45.073V44.289L11.832 43.952L12.056 43.504L12.392 43.28L12.728 43.168H13.4L14.184 43.392L15.976 44.401L16.76 44.625L19.672 44.849L20.008 44.737L20.68 44.065L21.352 43.392L22.248 42.607L22.472 42.495L23.144 42.271L23.704 42.159H24.04L24.824 42.271L30.76 45.297L31.432 45.858L31.768 45.97L32.328 46.082L32.664 45.858L32.888 45.634V45.185V44.849L32.776 44.625L32.552 44.401L31.208 43.84L30.872 43.504L30.76 43.28V42.719L30.872 42.383L31.656 41.262L31.992 40.926L32.328 40.814H32.664L33.336 41.15L33.784 41.262H34.456L34.792 41.15L35.016 40.814L35.24 39.469L35.464 38.796L35.688 38.46L36.024 38.236H36.696H37.032L37.368 38.348L37.592 38.572L38.152 39.357L38.6 39.805L38.824 40.029L39.496 40.141H40.056L41.4 39.805L41.848 39.581L42.072 39.245V38.908L41.848 37.227L41.96 36.891L42.072 36.442L42.408 35.882L42.744 35.658L43.192 35.546L43.528 35.322L43.64 34.985L43.976 34.201L44.312 33.304L44.536 32.968L46.888 31.286L47.336 31.062H49.016L49.8 30.838L50.136 30.614L50.36 30.277V29.941L50.136 29.381L49.688 28.596V28.26V27.812L49.8 27.139V26.803L49.688 26.466L49.128 26.13L48.904 25.906V25.57V25.233L50.024 23.44L50.36 22.992L50.696 22.768L52.152 22.207L52.488 21.871L52.712 21.422L52.824 20.638L52.936 20.077L53.384 19.069L54.056 18.396L68.168 9.65302L68.616 9.09299L68.84 8.64401L68.728 8.42001L67.832 7.07501L67.496 6.73901L67.16 6.62701L65.816 6.73901L63.464 6.40201L62.68 6.17801L62.344 6.06601L62.12 5.84201V5.61801L64.024 2.367L64.36 1.91901L64.808 1.80701L70.744 1.69501L78.696 3.936L81.496 3.82401L82.504 3.60001L82.84 3.37601L83.064 3.04001L83.176 2.255L83.4 1.358H84.072L84.632 1.69501L85.416 2.367L85.752 2.81601L86.312 3.60001L86.648 3.71201L86.984 3.82401L88.104 3.936L88.44 4.16101L88.776 4.38501V4.94501L88.552 5.16901L88.216 5.28201L86.536 5.39401L86.312 5.50601L85.976 6.17801L85.64 7.29901V7.74701L85.864 8.08401L86.312 8.53201L89.112 9.65302L90.792 10.774L91.352 10.886L91.688 10.774L91.912 10.662L93.592 9.09299L93.816 8.98001L94.152 8.86801L96.728 8.98001L96.952 9.09299L97.176 9.31699V9.76501L96.728 12.231V13.016V14.361L96.616 15.145L96.28 15.706L95.608 16.378L95.384 16.715L95.496 17.499L95.832 18.62L97.624 22.992V23.328V23.776L97.4 24L97.176 24.225L96.952 24.337L95.944 24.449H95.608L95.496 24.785V25.346L95.384 25.682L95.16 25.794L94.376 25.682L94.04 25.794L93.816 26.018L93.704 26.242L93.368 27.027V27.363L93.48 27.587L93.816 27.812L94.6 28.036L95.048 28.26L95.608 28.932L96.056 29.157L96.392 29.269L103.448 29.717L105.912 30.502L106.136 31.51L106.808 33.752L107.032 34.649L107.144 35.322V36.667V37.115L107.368 37.451L107.928 37.788L108.82 38.012L109.16 38.124L109.94 38.236L110.17 38.46L110.28 38.908V39.469L110.17 39.917V40.478L110.39 41.15L110.95 42.159L111.18 43.168L111.29 43.84L111.18 44.289L110.84 44.961L110.5 45.634L109.72 46.755L109.61 46.979L109.38 47.763V48.548L109.61 48.996L109.83 49.109L111.06 48.772H111.4L111.74 48.884L111.85 49.221L111.74 49.781L111.51 50.566L110.5 51.911L109.05 53.144L108.71 53.592L108.49 54.04L108.26 54.713V55.049L108.49 57.403L108.71 58.86V59.309L108.6 60.093V60.542L108.71 60.878L109.5 62.896L109.61 63.456V64.016L109.5 64.353L109.05 65.474L108.94 66.258L109.16 66.594L109.38 66.931L110.06 67.491L110.84 67.827L111.74 68.052L112.07 68.164L112.3 68.5L112.41 69.397L112.3 70.069L111.96 70.854L111.74 71.639L111.62 72.872V73.544V74.217L111.74 74.665L112.07 75.113L112.97 75.674L113.42 76.01L113.98 76.122H114.31L114.65 76.234L115.43 76.683L115.77 76.795H116.1L116.66 76.346L117 75.898L117.22 75.674L117.56 75.786L118.01 76.234L118.68 77.467L119.02 78.14L119.24 79.261L119.46 79.597L119.91 80.045L121.14 81.054L121.82 81.951L122.6 83.744L122.82 84.193L122.71 84.641L122.49 85.313L122.04 85.762L121.59 85.986L118.79 86.434L118.46 86.659L118.23 86.883V87.443L118.46 88.116L118.79 89.237L119.13 90.47L119.35 90.806L119.69 91.142L120.47 91.478L121.48 91.703L127.64 91.03L127.98 91.142L128.2 91.478L128.65 92.263L128.87 93.16L129.1 94.056L129.32 94.953L130.33 97.195L130.55 97.755L130.44 98.092L130.33 98.876L130.1 99.997L130.33 100.333L130.66 100.782L131.9 101.566L139.74 104.593L143.32 106.723L143.54 106.947L143.77 107.395L143.88 108.292L143.77 108.74L143.66 109.189L143.1 109.973L142.65 110.982L142.42 111.767L142.76 112.327L143.43 113L145 114.457L145.78 114.905L146.34 115.129L150.71 115.017L156.54 116.362L156.76 116.923L156.98 117.819L156.76 120.846V121.63L157.1 122.303L157.32 122.751L157.66 122.976L158.22 123.312L158.33 124.657L157.21 129.477L157.1 130.261Z" fill="#FFD700" stroke="#0057B8" stroke-width="2" stroke-linecap="round" stroke-linejoin="round"/>
</svg>
