<svg width="134" height="173" viewBox="0 0 134 173" fill="none" xmlns="http://www.w3.org/2000/svg">
<path d="M74.6 4.58701L79.64 12.433L80.648 14.339L81.768 17.477L81.992 18.15L82.44 19.046V19.495L82.328 19.831L81.992 20.391L81.88 21.176V21.512L81.992 22.185L82.104 22.521L82.328 23.194L82.552 24.987L82.664 26.108L82.776 26.444L82.888 26.78L83.224 27.117L84.456 27.565L84.792 28.013L85.016 28.686L85.24 29.583L85.464 30.592V31.376L85.352 32.161L85.128 32.833L84.904 33.057L84.008 33.842L83.672 34.403L83.56 35.075V35.299L84.008 36.532L84.12 36.981V37.765L84.008 38.55L83.896 39.335L84.12 40.007L84.456 40.567L84.792 40.792H85.352L85.688 40.68L86.696 39.895L87.368 39.671H87.592L88.824 40.231L90.728 40.567L91.064 40.904L91.288 41.24L91.624 41.913L91.736 42.361L91.848 42.921V43.706L91.96 44.379L92.296 44.939V45.612V45.948L91.848 46.396L91.624 46.62L91.064 46.845L90.728 46.732L90.056 46.62L88.264 45.612L87.48 45.499H86.808L86.472 45.724L86.36 45.948L86.248 46.284V46.957L86.472 47.517L87.144 48.077L89.16 48.974L89.72 49.31L90.056 49.983L90.28 51.216L90.504 52.001L91.4 53.458L92.296 54.242H93.416L95.992 53.794L96.888 53.906L100.248 55.924L100.808 56.596V57.493L100.36 59.062V60.071L100.808 60.968L102.264 63.322L103.048 63.994L103.496 63.434L103.832 62.313L103.944 61.192L104.168 60.407L104.504 59.735L105.064 59.062L106.408 57.941L107.08 57.717L107.976 57.829V58.502L107.416 59.623L106.856 61.977L106.52 64.555L106.744 66.236L108.312 64.555L109.768 64.667L113.128 66.236L111.784 67.581L108.312 68.59L107.64 70.159L108.312 72.513L109.992 71.953L113.128 68.814L114.024 68.702L114.584 68.926H114.696L114.808 67.581L114.696 66.348L114.584 65.563L114.808 65.003L116.152 64.891L116.936 65.115L117.608 65.563L118.504 65.788L119.512 65.563L119.624 65.115L119.512 64.443V63.882L120.072 63.658L120.52 63.77L121.416 64.218L121.976 64.33L121.416 65.676L121.192 66.236L120.632 66.796L121.416 67.805L122.648 68.926L124.104 69.711L125.224 70.159L126.792 70.271L127.8 70.832L129.704 72.625L131.384 73.634L131.832 73.97L132.504 75.427L132.392 75.988L132.056 76.212L131.832 76.884L131.72 77.669V77.893L131.832 78.005L132.504 78.79L132.84 79.911L132.616 80.583L132.28 81.144V81.704L129.928 83.498L129.144 84.282L128.584 84.955L128.248 85.403L127.912 86.188L127.8 86.636V87.085L127.912 88.206L128.584 90.784L130.264 95.379L130.376 96.388L130.04 104.683L129.592 107.149L129.368 107.821L129.032 108.382L128.808 108.718L128.472 108.83H127.688L127.24 108.494L126.568 108.157L125.336 107.709L124.552 107.485L123.32 107.373L120.52 107.709L117.944 108.606L115.704 109.615L110.888 113.314L104.952 121.16L104.392 121.496L103.72 121.832L102.824 122.281L101.928 122.953L101.48 123.402L101.256 123.85L101.032 124.523V125.756L101.144 126.428L101.48 127.325L101.592 127.661L101.48 128.109L101.256 128.334L100.584 128.446L100.024 128.782L99.352 129.23L96.104 133.041L95.656 133.378L94.536 133.714L93.864 134.05L92.856 134.723L92.408 135.283L92.072 135.731V136.068L91.848 137.749L91.512 138.422L88.712 143.802L88.488 144.474L88.376 145.259L88.264 145.932L88.6 147.725V149.182L88.712 149.855L89.272 151.424L89.496 151.984L90.504 153.105L90.728 153.666L90.84 154.338V156.356L91.064 157.253L91.624 158.486L91.736 158.71L91.848 159.382V160.167L91.624 160.952L88.712 167.453L88.6 167.789L88.376 169.919V170.367V171.488L86.36 171.824L85.24 171.04L83.784 168.798L81.656 164.987L80.872 163.978L79.976 163.081L74.936 161.176L72.92 159.831L71.8 158.598L71.464 157.365V156.244L71.016 154.787L70.12 153.554L68.552 152.209L66.088 150.864L66.312 149.743L66.872 146.492L67.208 145.371L70.456 140.551L70.568 140.103L70.456 139.767L68.44 136.74L64.184 132.481L63.736 131.92L63.512 131.472L63.176 130.575L63.064 130.015V129.567V129.118L63.288 128.446L63.624 127.885L63.96 127.325L64.296 126.54L64.52 125.98L64.408 125.531L64.296 125.195L63.064 123.177L61.944 120.824L61.496 120.263L57.464 116.452L56.232 115.555L55.56 114.883L55 114.21L54.664 113.874L54.216 113.65H52.648H52.424L52.2 113.314L52.088 112.193L51.864 111.072L51.64 110.511L51.304 110.063L50.632 109.503L50.184 109.166L49.736 108.83L49.512 108.942L49.288 109.166L48.952 110.063L48.392 110.96L48.056 111.408L47.272 111.969L46.712 112.193L45.256 112.417H43.688L41.784 111.969L41.336 111.744L40.888 111.408L40.104 110.623L39.768 110.063L39.544 109.615L39.432 109.278L38.984 106.476L38.872 105.355V104.571L39.32 102.217L39.432 101.88L39.544 101.096V100.76L39.432 100.087L39.208 99.414L39.096 98.406L39.208 97.845L39.32 96.949V96.5V95.828L39.096 95.491L38.76 95.267H38.424L37.864 95.379L34.84 97.397L33.608 97.957L30.92 98.406L29.576 99.302L28.568 100.423L28.344 100.647L27.784 100.984L27.224 101.208H26.776L26.328 101.096L25.656 100.76L25.32 100.535L25.096 100.199L24.984 99.863L25.096 99.078L25.208 98.406L25.432 97.733L25.656 96.949L25.544 96.388L25.432 95.828L24.984 94.819L24.76 94.37L24.2 93.698L23.752 93.362L23.192 93.137L22.408 93.025L21.848 92.801L21.288 92.465L17.816 89.551L17.48 89.102L17.256 88.654L17.144 87.981L17.368 86.748V86.188L17.144 85.403L16.92 85.067L16.584 84.843L15.912 84.619L15.128 84.507H14.344L13.6718 84.619L12.7758 84.955H12.2158L11.7678 84.843L10.6478 83.946L6.72781 79.238L4.37581 78.117L1.7998 77.445L4.48781 67.021L4.37581 66.236L4.26381 65.227L4.03981 64.555L3.7038 63.994L3.03181 63.097L2.80781 62.649V62.201V61.865L3.03181 61.192L4.48781 54.242L4.82381 53.458L5.83181 52.785L7.1758 51.552L7.39981 51.328L8.51981 50.319L8.9678 49.535L9.41581 48.414L10.9838 43.482L11.2078 43.146L11.7678 42.361L12.8878 41.464L13.8958 40.792L14.568 40.567L15.576 40.455L21.736 41.352L24.872 41.128L25.32 41.016L25.88 40.68L27.224 39.447L27.672 39.222H28.008L28.792 39.335L31.032 40.231L31.48 40.119L32.264 39.783L35.064 37.765L35.624 37.541H35.96L36.744 37.653L39.432 38.55H39.88H40.552L43.464 37.205L44.136 37.093L45.704 37.205L47.16 36.869L47.72 36.644L50.408 35.075L52.872 34.066L53.544 33.954H53.88L54.664 34.066L54.888 34.178L55.336 34.29L55.896 34.178L57.128 33.73L57.688 33.282L58.136 32.945L58.472 32.273V31.6L58.36 31.264L57.128 29.695L56.68 29.022L55.896 29.471L54.776 29.359L53.32 28.91L52.872 28.462L52.76 26.22V25.772L52.872 25.435L53.32 24.427L53.432 23.978L53.544 23.642L53.432 23.306L53.096 22.857L52.536 22.521L52.2 22.409L51.864 22.521L51.528 22.633L50.184 23.866L49.624 24.202H49.4H49.064L48.728 24.09L48.392 23.53L48.28 23.194V22.745L48.392 22.073L48.616 21.736L48.84 21.512L50.072 21.064L50.744 20.952H52.088L52.984 20.728L53.656 20.391L54.104 19.943L54.664 19.046L56.68 16.917L57.016 16.468L57.128 16.132L57.016 15.796L56.68 15.347L54.776 14.114L54.552 13.89L54.664 13.33L55 12.321L56.904 9.29501L57.24 8.62201L57.352 7.83701L57.128 7.16501L56.904 6.492L56.456 5.70801L56.344 5.371L56.456 4.811L56.68 4.25L57.24 3.13L57.688 2.569L58.024 2.233L58.248 2.121H58.696L60.824 2.681H61.608L66.312 1.448H66.984L67.768 1.672L68.328 1.897L68.888 2.233L70.344 3.466L70.568 3.69L71.016 4.026H71.352L71.912 3.914L72.472 4.138L73.032 4.47501L73.704 4.58701H74.6Z" fill="#FFD700" stroke="#0057B8" stroke-width="2" stroke-linecap="round" stroke-linejoin="round"/>
</svg>
