<svg width="203" height="185" viewBox="0 0 203 185" fill="none" xmlns="http://www.w3.org/2000/svg">
<path d="M198.264 52.458L198.376 53.019L198.6 53.916L199.608 56.269L200.056 57.054L200.504 57.502L201.736 58.287L201.848 58.511V58.848L201.512 59.184L201.176 59.296L200.84 59.408L199.496 59.52L198.264 59.856L197.144 60.417L196.808 60.865L196.696 61.314L196.92 61.874L199.608 63.892L199.72 64.116L199.608 64.452L199.384 64.788L199.16 65.012L198.264 65.461L197.928 66.021L197.704 66.245L197.144 67.703L196.696 67.815L195.24 67.478L194.904 67.591L194.68 67.703L194.008 68.487L193.224 69.72L193.112 70.056V70.393L193.224 70.953L193.56 71.177H193.784L195.464 70.505H195.8H196.136L196.36 70.617L196.808 71.065L196.92 71.402V71.738L196.808 74.428V75.661L196.92 76.109V76.782L196.808 77.23L196.36 77.791L195.688 78.687L195.464 79.136L194.904 80.817L194.568 81.265L194.344 81.602L193.784 81.826L193.56 82.05L193.448 82.498V83.059L193.896 84.404L194.008 84.628L194.568 85.413V85.637V85.973L193.896 86.422V86.87L194.568 88.775L194.68 89.448L194.568 89.784L194.232 90.345L194.008 90.681L192.664 91.578L192.44 91.802L192.216 92.138L191.88 93.595L191.656 95.165L191.32 96.061L190.984 96.51L190.648 96.734L189.64 96.958L189.192 97.294L188.408 98.415L188.296 98.751L188.184 99.088L188.408 99.648L188.632 99.984L189.304 100.769L189.416 100.993L189.64 101.666L189.752 102.226L189.864 102.899L189.528 107.719V108.84L189.752 109.624L190.088 109.736L191.096 109.848L191.768 110.185L192.104 110.409L192.44 110.857V111.193V111.754L192.328 112.426L191.32 113.884L190.536 114.78L188.856 116.013L187.4 117.358L187.176 118.255L187.064 119.04L186.84 119.376L186.504 119.6L185.496 119.824L182.696 119.936L174.744 117.695L168.808 117.807L168.36 117.919L168.024 118.367L166.12 121.618V121.842L166.344 122.066L166.68 122.178L167.464 122.402L169.816 122.739L171.16 122.627L171.496 122.739L171.832 123.075L172.728 124.42L172.84 124.644L172.616 125.092L172.168 125.653L158.056 134.396L157.384 135.068L156.936 136.077L156.824 136.638L156.712 137.422L156.488 137.871L156.152 138.207L154.696 138.767L154.36 138.992L154.024 139.44L152.904 141.233V141.57V141.906L153.128 142.13L153.688 142.466L153.8 142.803V143.139L153.688 143.811V144.26V144.596L154.136 145.381L154.36 145.941V146.277L154.136 146.614L153.8 146.838L153.016 147.062H151.336L150.888 147.286L148.536 148.968L148.312 149.304L147.976 150.201L147.64 150.985L147.528 151.321L147.192 151.546L146.744 151.658L146.408 151.882L146.072 152.442L145.96 152.891L145.848 153.227L146.072 154.908V155.245L145.848 155.581L145.4 155.805L144.056 156.141H143.496L142.824 156.029L142.6 155.805L142.152 155.357L141.592 154.572L141.368 154.348L141.032 154.236H140.696H140.024L139.688 154.46L139.464 154.796L139.24 155.469L139.016 156.814L138.792 157.15L138.456 157.262H137.784L137.336 157.15L136.664 156.814H136.328L135.992 156.926L135.656 157.262L134.872 158.383L134.76 158.719V159.28L134.872 159.504L135.208 159.84L136.552 160.401L136.776 160.625L136.888 160.849V161.185V161.634L136.664 161.858L136.328 162.082L135.768 161.97L135.432 161.858L134.76 161.297L128.824 158.271L128.04 158.159H127.704L127.144 158.271L126.472 158.495L126.248 158.607L125.352 159.392L124.68 160.064L124.008 160.737L123.672 160.849L120.76 160.625L119.976 160.401L118.184 159.392L117.4 159.168H116.728L116.392 159.28L116.056 159.504L115.832 159.952L115.608 160.289V161.073L115.832 162.082L116.84 166.229V167.014L116.952 168.695L116.728 171.273L116.952 172.394L117.848 174.636L114.264 175.084L113.032 175.869L112.584 176.43L112.024 176.654L109.784 176.878L109 176.766L108.552 176.542L108.328 176.317L107.992 175.757L107.656 175.309L106.648 174.524L103.96 172.955L102.952 172.618H102.392L102.056 172.731L101.048 173.403L96.568 178.895L95.56 180.577L95.448 180.913L95.56 181.249L95.672 181.361L96.232 181.81V182.146L96.12 182.482L95 183.267L94.552 183.491H94.104L93.768 183.267L93.32 182.819L92.648 182.482L92.424 182.594L92.2 182.819L91.64 183.379L91.08 183.827H90.744L90.52 183.715L89.848 183.043L89.736 182.819L89.96 182.258L91.64 180.353L91.864 179.792L91.64 179.344L90.632 178.223L89.624 177.438L89.4 177.214V176.878L89.624 176.317L90.408 174.748L90.632 174.076L90.408 173.515L89.624 172.618L85.256 168.92L83.688 167.35L81.336 165.669L81.112 165.445L81 165.108L81.112 164.772L81.336 164.1L81.56 163.875L82.792 162.979L83.128 162.643L83.464 162.194L83.352 161.746L83.016 161.297L81.336 160.064L81 159.728L80.664 158.944L80.216 158.495L79.656 158.047L78.312 157.262L77.752 156.814L77.528 156.365V155.917L77.304 155.469L76.744 155.132L75.176 154.684L74.616 154.348L73.608 153.451L73.16 153.115H72.824L70.808 153.227L70.472 153.003V152.779L70.584 152.554L71.256 151.882L72.824 150.985L73.272 150.537L73.944 149.304L74.168 148.743L73.944 148.295L72.824 146.95L72.376 146.39V146.053V145.269L72.152 144.596L71.592 143.811L69.912 142.242L69.128 141.682L68.568 141.57L67.784 142.018L64.872 143.139L63.752 143.699L62.744 144.484L62.52 144.596L61.96 144.82H61.624L61.064 145.044L60.504 145.493H60.056H59.384L58.824 145.044L57.48 144.484L54.904 143.699H54.456L53.896 144.036L53.56 144.26H53L52.552 144.036L51.992 143.475L51.544 143.251L51.096 143.139L49.192 143.251L48.856 143.139L48.52 142.915L48.184 142.578L47.176 141.682L46.728 141.57L46.392 141.682L45.832 141.906L45.496 142.018L42.36 141.458H42.024L40.792 141.794H40.008L39.56 141.682L39.112 141.57L37.88 140.112L36.872 139.328L33.288 137.198L32.392 136.301L31.272 134.844L31.048 134.508L29.368 133.387L29.032 133.051L28.808 132.603L28.472 132.042L24.44 128.791L24.216 128.455L23.992 127.558L23.656 127.11L23.208 126.662L21.416 125.317L20.296 124.868L19.96 124.756H18.84L17.272 124.42H16.824L15.48 124.756L14.808 124.644L14.36 124.42L13.8 123.972L13.352 123.859H13.016L12.792 123.972L12.008 124.196L9.88 123.747L10.104 123.187L10.216 122.514L10.104 121.394L9.76801 120.273L9.54401 119.264L9.32001 118.703L8.08801 116.574L7.97601 116.237V115.901V115.341L8.20001 114.444L8.64801 113.547L9.20801 112.651L12.344 109.176L12.904 108.952L13.24 108.84L13.576 108.952L14.136 109.288L14.696 110.072L15.368 110.633L16.04 110.969L16.488 111.081L22.536 111.642L23.88 111.418L27.128 109.736L28.136 108.952L30.04 106.822L31.608 104.244L33.176 102.114L33.288 101.666L33.176 101.217L32.504 100.321V99.872L32.728 99.424V99.088L32.616 98.751L32.168 98.415L31.384 97.967L31.048 97.631L30.936 96.958L30.488 96.061L30.264 95.501V94.828L30.376 94.38L30.712 93.595L30.824 93.371L31.048 93.147L32.056 92.923L32.616 92.699L32.952 92.587L33.288 92.699L36.872 93.595H37.208L37.432 93.371L37.768 92.811L37.992 92.587L38.328 92.474L39.336 92.362L39.672 92.25L39.784 92.138L39.896 91.69L39.672 91.129L39 90.457L37.656 89.672L36.648 88.551L35.416 87.879L35.192 87.542L35.08 86.87L35.192 86.646L35.528 86.534H38.44L39.784 86.309L40.344 85.973L40.12 85.189L39.672 83.844L36.872 78.575L36.648 78.015L36.424 77.342L36.536 76.782L36.648 76.558L37.208 76.221L37.432 76.109V75.773L37.208 74.428L37.096 74.204L36.872 73.868L36.424 73.755H34.52L34.184 73.868L33.96 74.092L33.736 74.316L33.512 75.101L33.4 75.437L33.176 75.661H32.84L32.056 75.549L28.92 74.54L28.584 74.428L28.36 74.092V73.643L28.248 73.307L28.024 72.971L26.344 72.635L25.896 72.522L25.672 72.186L25.56 71.514L25.448 70.281L25.336 69.944L25.112 69.608L23.88 68.711L23.656 68.487L23.432 68.039L23.096 67.478L22.76 65.909L22.648 65.461V64.004L22.872 61.314L22.76 60.529L22.648 59.856L22.2 59.072L21.192 58.063L20.744 57.839L20.408 57.727L20.072 57.615L19.4 57.839L18.616 58.399L17.944 58.511L17.272 58.399L13.352 56.494L13.016 56.157L12.232 54.924L11.784 54.7L11.336 54.476H8.76001L7.97601 54.364L7.30402 54.028L6.85602 53.579L6.29602 52.907L5.73602 52.458L4.50403 52.122L4.16803 52.01L3.94397 51.674L3.27197 50.441L3.04797 50.217L2.71198 49.88L2.37598 49.32L2.03998 46.63L1.92798 46.294L1.03198 43.715V43.491L1.70398 42.482L2.26398 41.586L5.06403 38.896L5.51202 38.335L5.62402 37.551L5.73602 36.205V30.937L5.17603 29.592L7.41602 28.359L8.20001 27.575L8.42401 26.678L8.98401 25.333L9.32001 25.109H9.54401L9.88 25.557L10.328 26.005L11.112 26.678L11.784 27.014L12.344 27.238L12.68 27.126L12.904 26.79L13.128 26.117L13.016 25.557V25.109L13.128 24.548L14.024 23.427L14.584 22.979L15.032 22.867L15.928 23.539L16.376 23.651L16.6 23.539L16.824 23.315L17.048 22.418L17.272 21.97L17.608 21.41L18.28 20.513L18.728 20.177L19.288 19.952L20.072 20.065L20.856 20.177L22.088 20.849L22.424 21.073L22.872 21.185L23.656 21.298L25.784 20.849L26.344 20.625L26.568 20.401L26.68 20.065L26.568 19.392L26.232 18.495L26.344 18.047L26.456 17.711L26.904 17.038L27.24 16.814L27.464 16.702L29.368 17.15H29.704L30.04 16.926L30.152 16.702V16.478L29.816 16.029V15.693L29.928 15.245L30.712 14.46L31.272 14.236L31.72 14.124L32.056 14.236L33.512 15.133L33.96 15.357H34.408L34.744 15.245L34.968 15.021L35.08 14.684V14.236V12.779V12.33L35.192 11.77L35.528 11.546L35.864 11.322H36.2L36.536 11.434L37.208 11.77L41.464 14.46L42.024 14.572L42.248 14.46L42.36 14.236L42.136 14.012L41.688 13.451L41.576 13.227V12.779L41.912 12.555L43.816 13.003L45.72 12.779L46.616 12.33L47.288 12.218L47.736 12.106L49.752 12.667L50.872 12.891L51.88 12.779L52.44 12.667L52.888 12.555L53.112 12.33L53.448 11.658L53.672 10.873L53.784 10.313L54.008 10.201L54.904 9.192L55.576 7.959L56.584 6.726L57.144 6.502L58.264 6.39L58.824 6.16499L59.496 5.493L60.728 3.69901L61.624 3.02699L62.744 2.69099L68.568 2.01801L79.432 2.91499L81.112 3.812L81.56 5.605L83.352 6.502L89.512 16.478L90.968 17.15L92.424 17.038L93.88 16.478L95.224 15.469L96.456 14.236L96.904 14.012H97.688L98.248 14.236L99.592 14.908L100.936 15.245L102.616 16.478L104.632 16.926L105.192 17.15L106.088 17.823L106.312 18.047L106.088 18.495L105.976 20.625L105.864 21.522L105.976 22.418L106.872 23.203L108.216 23.651L109.672 23.876L111.128 23.764L112.248 22.979L112.808 22.194L113.816 20.065L114.376 19.168L115.16 18.495L125.464 12.33L129.496 10.873L133.64 10.537L138.008 11.209L147.08 8.631L148.872 7.174L152.568 3.47501L154.36 2.69099L160.632 1.79401L161.864 2.466L162.76 5.045L163.656 8.183L164.664 10.761L170.04 13.451L172.056 15.581L172.168 19.616L171.496 21.858L171.384 22.979L171.496 23.988L171.832 24.66L174.072 26.902L180.008 36.093L182.136 37.663L187.064 39.904L189.528 41.474L191.656 43.379L193.56 45.845L195.576 49.32V49.544L196.584 51.338V52.795L196.92 53.355L198.264 52.458Z" fill="#FFD700" stroke="#0057B8" stroke-width="2" stroke-linecap="round" stroke-linejoin="round"/>
</svg>
