<svg width="237" height="172" viewBox="0 0 237 172" fill="none" xmlns="http://www.w3.org/2000/svg">
<path d="M71.504 139.8L80.352 140.921L84.608 140.136H86.512L88.416 141.706L90.992 140.473L92.56 140.361L93.12 141.257L93.792 141.93L96.592 141.706L97.376 142.826L96.256 144.059L70.272 139.8L70.72 139.24H70.944L71.504 139.8ZM234.24 121.754L235.136 122.314L234.128 123.435L230.88 129.936L229.312 132.066L227.856 133.635L225.392 134.532L223.824 135.765L221.696 136.325L220.24 137.446L217.888 138.567L216.768 138.119L216.88 137.334L218.896 134.98L221.024 133.635L220.912 133.299L220.576 132.402L227.072 130.385L230.32 128.703L232 125.228L233.456 123.547L234.128 122.09L234.24 121.754ZM41.264 131.169L42.16 131.73L40.704 131.505L38.128 130.16L15.504 125.34L5.76001 121.529L3.85602 119.848L2.17603 117.046L1.72803 115.589L1.16803 113.347L1.05603 111.666L2.17603 112.114L3.18402 115.925L4.19202 118.615L5.64801 120.409L8.112 121.866L28.16 126.798L36.224 128.815L41.264 131.169ZM168.496 11.121L170.064 15.493L173.2 25.805L173.872 27.374L173.984 28.047L174.096 29.504L174.208 29.84L174.32 30.064L174.768 30.289H175.104H175.44L176 30.064L176.672 29.504L176.896 29.392L177.792 29.28L178.128 29.392L179.024 29.84L179.696 30.064L180.256 29.84L180.368 29.616L180.704 28.944L181.264 28.159L181.376 27.823L181.488 27.15L181.6 26.814L181.824 26.59L182.384 26.365L186.64 25.917L187.088 26.029L187.312 26.478L187.2 26.926L186.864 27.262L185.968 27.598L185.52 28.047L185.408 28.831L185.296 29.616L185.408 30.289L185.52 30.625L185.968 31.073L186.864 31.746L186.976 32.082L187.088 32.418V33.091L186.976 33.539L186.864 33.763L186.528 34.1L186.416 34.324L186.304 34.66V35.333L186.864 37.799V38.471L186.64 40.377L186.752 41.386V42.058L187.088 43.291V43.964L187.2 44.3L187.424 44.636L187.984 44.972L188.768 45.197L189.104 45.421L189.328 45.869L190.336 50.128L190.448 53.267L190.56 53.827L190.672 54.164L190.896 54.388L191.456 54.724L192.24 54.836L192.576 55.06L192.688 55.397L192.912 55.845L193.136 56.742L193.248 58.087L193.36 58.311L193.584 58.647L193.92 58.871L195.488 59.208L196.048 59.544L196.832 60.104L197.392 60.441L200.304 61.45L200.64 61.562L200.864 61.898L201.088 62.458L201.76 65.373L202.096 65.933L202.544 66.269L202.992 66.381L203.664 66.494L204 66.606L204.448 66.942L204.672 67.502L204.896 68.063L205.232 69.52V70.192L205.12 70.641L204.896 70.865L203.216 71.538L202.656 71.65L202.32 71.874L202.208 71.986L201.984 72.658V74.788L201.76 75.349L201.312 75.909L201.088 76.47L200.752 77.59L200.304 78.151L200.08 78.263L199.52 78.487L199.072 78.823L198.736 79.384L198.4 79.944L198.176 80.168L197.616 80.281L195.936 80.393L195.376 80.505L195.152 80.729L194.816 81.177L194.704 81.85L194.816 82.859L194.928 83.195L195.264 83.419L195.824 83.643H196.272L196.832 83.419L197.168 83.531L198.288 84.428L198.736 84.652L199.184 84.764L200.528 84.988L200.976 85.212L201.312 85.549L201.648 86.333L201.872 87.23L201.984 88.127L201.872 88.799L201.76 89.136L201.088 89.808L200.752 90.369L200.64 90.929V91.602L201.088 92.386L202.544 94.74L202.88 95.749L203.104 95.973L203.44 96.197L204 96.309L206.128 96.197L209.04 96.421L209.376 96.646L209.6 96.87V97.43L209.488 97.767L209.264 98.103L208.816 98.439L208.704 98.775V100.008L208.816 100.232L209.04 100.345L209.824 100.457L212.736 100.12L213.184 100.232L214.528 101.465L215.424 102.026L215.872 102.138L216.88 102.698L217.552 103.035H219.232L219.68 103.371L220.016 104.156L221.584 110.657V111.105V111.554L221.248 112.562L221.136 113.235V113.907L221.472 115.701V116.037L221.584 117.718L222.144 118.279L224.384 118.727L222.48 120.857L219.792 122.538L213.856 123.995L213.296 124.108L212.512 123.771L212.176 123.211L212.064 122.538L211.952 122.202L211.28 122.538L210.832 123.323L210.72 124.444L210.496 125.228L207.808 126.574L207.584 126.91L206.576 128.479L206.24 129.264L206.128 130.272L206.24 130.945L206.576 132.402L206.912 138.119L207.248 139.464L207.808 140.921L210.048 151.682L210.608 152.915L211.392 153.923L211.952 155.044L215.2 163.899L218 169.28L216.432 170.288L214.192 166.589L213.632 165.02L212.848 161.658L212.288 160.312L211.952 159.64L211.28 158.855L210.608 158.183L209.936 158.071L209.488 158.519L209.264 159.079L209.152 159.864L208.704 160.537L208.256 161.097L207.696 161.433L207.136 161.658L206.464 161.77L206.128 161.321L206.24 160.425L207.472 155.717H207.36L207.136 155.493L207.024 154.932V154.484L207.136 154.372L207.696 153.923L208.032 153.811L208.256 153.363L208.368 152.915L208.032 152.578H207.808L207.024 151.906L206.8 151.682L206.352 150.897L206.24 150V147.983L206.016 146.525L205.68 144.396L205.12 142.49L204.448 141.706L203.664 141.93L203.328 142.714L203.104 143.611L202.544 144.059L202.096 143.723L200.192 141.93L199.968 140.585L199.072 139.24L197.952 138.007L196.832 137.334L197.392 136.549L198.176 135.989L200.64 135.316L202.096 135.429L202.544 135.765L203.328 136.998L203.888 137.334L204.672 136.662V135.204L204.112 133.523L203.664 132.402L201.872 130.609L199.072 128.927L196.272 128.591L194.256 130.609L194.032 132.514L194.368 134.308L194.816 135.989L195.152 137.558L194.816 138.791L191.568 145.405L190.224 146.637L187.76 145.629L185.744 148.095L184.512 147.758L185.184 145.741L184.512 144.844L182.944 144.62H181.264L180.704 144.059L181.04 142.939L181.712 141.593L182.384 141.033L183.168 141.145L183.84 141.818L184.4 142.042L184.96 141.033L183.728 140.024L183.056 138.567V136.998L183.616 135.429L185.744 133.635L186.528 133.747V134.196L186.304 134.644L186.192 135.092L186.416 136.662L186.864 135.765L187.648 134.196L188.32 133.635L188.544 134.532L189.216 136.325L190.112 137.446L190.448 136.325L190.56 135.429L191.232 134.308L191.344 133.299V130.833L191.12 129.936L190.336 129.04L189.552 128.367L188.88 128.031L188.544 128.479L188.208 129.152L187.872 130.609L185.856 132.066L183.616 131.505L179.36 128.031L175.664 126.125L175.104 125.901L174.88 126.461L174.432 126.91L173.984 127.47L173.872 128.031L174.32 128.591L175.776 128.815L176.336 129.264V130.497L176.112 132.851L175.552 135.092L174.88 135.989L174.32 135.653L174.208 134.644V132.402L173.984 131.281L173.76 130.721L170.512 124.108L169.056 121.754L167.152 120.072L165.92 119.736L165.248 120.409L165.024 121.866V124.108L165.36 125.453L166.144 126.574L168.384 128.703L165.808 131.393L165.696 131.954L165.472 131.618L165.024 130.609L165.36 128.703V128.031L164.912 127.246L164.24 126.461L163.568 126.349L163.232 127.134L163.008 128.143L162.336 128.479L160.656 128.031V128.703L161.664 129.376L162.336 129.824L163.008 129.936L163.456 130.385L164.016 132.402L164.352 133.299V133.971H163.68L162.448 133.635H162.112L161.44 133.747L161.104 133.635L160.992 133.187L160.656 131.954V131.73L159.984 131.618L159.536 131.842L159.2 132.178L158.64 132.514L158.304 132.851L157.968 132.963L157.744 132.738L157.408 131.954L157.072 131.73L156.288 130.833L154.72 127.134L154.16 126.237L152.816 126.013L149.232 124.444H148.448L147.552 124.892L146.88 125.116H145.536L144.864 125.004L144.528 124.78L144.08 123.771L142.96 123.211L141.616 122.987L140.72 123.099L139.712 123.883L138.928 124.892L138.144 125.453L136.912 125.116H135.232V125.677H135.344L134.896 126.349L135.456 129.6L134.784 131.842L132.768 133.971L131.872 132.178L130.864 131.169L129.296 131.73L127.952 132.963L126.832 134.196L126.72 135.541L128.4 136.662V137.334L126.72 137.446L125.152 137.895L124.592 139.015L125.824 140.921H125.264L123.92 140.361H120.112L119.552 139.912L117.648 137.334L115.968 135.877L114.4 135.541L113.056 137.334L112.832 136.886L112.496 136.774H112.16L111.824 136.662L112.832 135.653L113.504 134.42L113.392 133.411L112.048 132.963L107.12 133.635L107.568 132.402L107.792 131.281L108.352 125.116L107.008 126.686L105.888 129.152L104.656 131.393L102.752 132.402L102.192 132.514L101.408 132.963H100.848L100.176 132.738L98.944 131.73L95.248 129.936L95.808 132.514L94.912 133.747L88.416 134.868L87.632 134.756L87.072 134.644L86.512 134.308H86.176H84.72H84.16L80.8 133.075L79.344 132.963L78.448 133.187L76.096 134.42L68.256 135.765L67.696 135.989L67.024 136.437L66.016 137.558L65.568 137.895L62.992 138.343L50.56 134.644L49.216 133.747H48.432L48.096 133.635L47.984 133.299L47.76 132.178L47.424 131.057L47.2 129.824L46.864 129.264L47.984 128.255L48.32 127.694L48.544 126.798L46.64 127.582L45.072 127.806L43.392 127.47L40.704 126.461L39.808 126.349L39.024 125.901L36.672 122.762L34.88 121.305L32.976 122.09L29.84 120.409L24.688 116.485L24.576 117.494L24.912 118.615L25.024 119.736L24.576 120.072L20.656 119.96L19.536 119.624L18.528 118.951L17.744 117.943L17.408 116.598L18.192 115.365L19.424 114.468L20.432 113.907L21.776 113.795L25.136 114.58L29.84 113.683L30.4 113.235L33.648 110.208L34.432 110.096H35.216L35.664 109.76L35.104 108.751L32.304 104.828L31.296 104.38L29.056 104.604L26.256 104.156L20.432 101.802L22.672 98.215L23.232 98.439H28.496L33.872 99.672L37.456 99.112H38.8L45.52 100.681L48.992 102.811L51.456 103.483L54.256 103.259L56.608 102.138L58.288 100.345L57.168 98.663L58.848 96.309L63.216 92.61L64.336 91.826L67.248 91.489L68.256 90.817L69.264 89.808L70.272 89.024L71.168 88.239L71.84 86.67L70.384 87.454L68.704 88.687L67.024 89.584L65.568 89.248L57.168 93.955L52.688 94.628L48.544 92.274L47.536 90.817L47.2 90.481L46.528 90.817L45.52 92.05L44.848 92.274L44.176 92.386L42.944 92.835L42.384 92.947L40.928 94.74L40.032 93.843L39.136 90.593L38.128 89.808L34.32 89.024L33.2 88.575L32.416 87.566L31.408 85.997L30.624 84.204L30.288 82.747L29.952 80.953L29.616 80.168L29.728 79.72L32.864 79.832L33.76 79.496L34.32 78.935L35.328 78.151L35.888 78.039L36.336 77.927L37.008 78.039L38.016 78.711L38.8 78.935H39.472L41.376 78.375L42.496 77.927L42.944 77.59L43.28 77.142L43.504 76.806L44.064 75.685L44.736 74.004L44.848 73.555L45.072 73.107L45.632 72.658L45.968 72.434L46.416 72.21L47.2 72.098H47.872L51.456 73.443L53.136 73.555L53.584 73.443L53.92 73.219L54.032 72.995L54.816 70.753L55.04 70.305L55.488 69.744L55.936 69.52L58.064 68.959L59.408 68.847H59.744L59.968 68.959L60.192 69.184L60.528 70.08L60.976 70.305L61.536 70.417L63.776 70.192L64.224 70.08L64.56 69.856L64.896 69.408L65.12 68.623V68.287V66.942L65.232 66.494L65.456 66.381H65.792L66.016 66.494L66.464 66.942L66.688 67.054L67.248 67.166L67.472 67.278L67.92 67.502L68.592 67.614H71.056L71.504 67.727L71.952 68.063L72.288 68.287L73.632 68.735L73.968 68.847L74.304 69.296L74.752 70.08L75.088 70.529L75.312 70.753L75.76 70.977H76.432L79.792 70.529L82.816 70.641L83.152 70.529L83.712 70.192L88.528 68.511L89.536 67.951L90.208 67.502L89.984 67.278L89.76 67.166L89.2 67.278L88.864 67.166L88.304 66.83L87.856 66.718L84.496 67.054L83.04 66.942L82.592 66.718L82.144 66.494L81.92 66.269L81.808 65.933V65.597L82.144 65.148L82.48 65.036L88.528 64.028L89.088 63.803L90.432 62.234L91.328 61.786L93.792 61.113L94.464 60.777L94.8 60.329L94.688 60.104L94.352 59.656L93.904 59.432H91.664L91.44 59.32L90.992 58.871L90.768 58.311V57.638L90.656 56.63L90.768 56.181L90.992 55.733L91.664 55.173L92.224 54.948L92.672 55.285L93.008 55.733L93.344 56.181L93.68 56.518L95.36 57.638L95.472 57.526V56.966L95.584 56.518L95.808 56.181L96.928 54.948L97.376 54.164L97.6 53.491V53.267L97.488 52.931L94.688 50.241L91.104 48.111L90.432 47.999L89.536 48.111H89.2L88.976 47.887L88.864 47.662L88.752 46.766L88.64 46.093L88.528 45.533L88.752 44.86L89.872 43.403L91.44 39.928L92 38.359L92.336 37.911L92.672 37.799L92.896 37.911L93.568 38.695L93.68 38.807H95.136L96.032 38.695L96.48 38.471L96.816 38.247L98.608 36.117L99.056 35.893L99.392 35.781L99.728 35.893L100.512 36.341L100.848 36.454H101.296L101.632 36.229L101.744 35.893L101.968 35.221L102.304 34.436V34.212L102.192 33.876L100.848 31.522L100.512 30.625L100.288 30.064V29.392L100.4 28.607L100.736 27.486L101.296 25.805L101.52 25.02V24.46V23.9L101.296 23.003L99.952 19.976L99.84 19.752L99.504 19.64L99.28 19.528H97.152L96.48 19.304L96.032 18.856L95.696 18.407L95.472 17.847V17.623L95.808 16.838L96.704 15.493L96.928 15.044L97.152 14.26L97.264 13.699L97.488 13.587L97.712 13.699L97.824 13.924L98.496 15.269L98.832 16.502L98.944 16.726L99.056 16.95L99.728 17.174L100.96 17.062L101.52 16.838L101.744 16.614L101.856 16.277V15.605L101.408 14.596L101.296 13.924V13.475L101.408 12.691L101.632 12.018V11.233L101.408 10.785L101.184 10.113L100.736 9.216V8.655V8.319L101.184 7.31V6.974L100.96 6.414L100.624 6.077L99.728 5.293L99.392 4.73199L99.28 4.172L99.168 3.49899L99.28 2.37799L99.392 1.59399L104.096 2.939L104.432 3.05099L105.328 3.836L105.776 4.284L110.368 5.181L111.376 5.629L112.048 5.965L112.272 6.526L112.496 7.422L112.72 7.983L112.832 8.207L113.28 8.655L113.84 9.216L114.512 9.552L114.848 9.664H115.296L115.632 9.328L115.856 9.104L115.968 8.543L116.304 7.983L116.752 7.759L123.36 6.414L123.92 6.189L124.368 5.741L124.48 5.405V4.73199L124.256 3.836L124.368 3.49899L124.48 3.27499L125.04 3.05099L128.736 2.26599L129.072 2.37799L129.52 2.48999L129.968 2.939L130.192 3.27499L130.304 3.72299V3.948L129.744 5.06799L129.52 5.741V6.077L129.744 6.638L130.08 7.871L130.304 8.095L130.64 8.207L132.096 8.095H132.544L132.88 8.431L133.216 8.992L133.552 10L133.664 10.225L134.448 10.449L140.496 10L148.336 7.871H149.792L159.424 11.009L165.584 11.57L168.496 11.121Z" fill="#FFD700" stroke="#0057B8" stroke-width="2" stroke-linecap="round" stroke-linejoin="round"/>
</svg>
