<svg width="111" height="207" viewBox="0 0 111 207" fill="none" xmlns="http://www.w3.org/2000/svg">
<path d="M66.712 6.14499L67.608 6.59398L67.944 6.92998L68.728 8.16298L69.624 8.83499L70.072 9.17198L70.408 10.068L70.632 10.629L70.968 11.077L71.416 11.526L71.864 11.638L73.096 11.974L73.656 12.31V12.646L73.208 13.095L71.864 13.879L71.304 14.216L70.856 14.664L70.52 15.224L70.184 15.897L68.952 20.381V21.165L69.064 21.614L69.4 21.838L69.96 22.286L70.408 22.398L72.088 22.734L72.648 23.071L72.872 23.295L73.096 23.743L73.32 24.864L73.544 25.313L73.88 25.761L74.552 26.321L77.24 27.891L79.256 29.46L79.816 29.796L80.04 30.02L80.152 30.357L79.928 30.693L79.592 31.253L79.48 31.59L79.592 31.926L79.816 32.15H80.264L80.936 32.038L81.272 32.15L81.608 32.374L81.944 33.159L82.28 33.607L82.84 33.943L84.072 34.28L84.632 34.728L84.744 35.064L84.856 35.401L84.968 36.634L85.08 37.082L85.528 37.306H85.752L88.552 37.642L88.888 37.53L89.112 37.418L89.448 36.858L89.896 35.737L90.456 34.952L90.904 34.055L91.128 33.831H91.576H91.912L92.248 34.168L92.472 34.616L92.584 35.401V36.073L92.36 38.315V38.763L92.472 39.1L92.696 39.548L93.144 40.22L94.152 41.341L94.824 42.35L95.048 43.135V43.919L94.936 44.368L94.6 44.592L94.04 44.928L93.816 45.04L93.704 45.377V45.713L93.816 46.161L94.6 46.834L94.824 47.17L94.936 47.394L94.824 47.843L94.04 48.851L93.704 49.524L93.368 50.533L93.256 51.093L93.368 51.429L93.592 51.766L94.04 52.102L95.272 52.662L95.496 52.774L95.72 53.111L95.944 53.559L96.056 54.456L95.944 55.577L95.72 56.361L95.496 56.586L94.488 56.698L94.152 56.922L93.704 57.37L93.368 57.818L92.92 58.267L92.248 58.379L91.8 58.491L88.776 57.931L88.552 58.043V58.379L88.664 58.939L90.456 62.078L90.68 62.75L90.792 63.423V63.647L90.568 63.871L90.232 63.983L89.112 64.096L88.776 64.208L88.664 64.432L88.552 64.768L88.328 66.898L88.552 67.346L89 67.682L91.24 68.579L91.576 68.803L91.8 69.027L92.024 69.588V69.924L91.8 70.933L91.912 71.606L92.248 72.166L93.928 74.408L94.6 75.417L94.824 76.089L94.936 76.762L95.048 77.098L95.384 77.658L95.72 78.107L108.6 81.806L107.48 83.263L106.696 83.487L105.464 83.599L105.24 83.711L105.128 83.823L105.352 84.047L106.472 84.832L106.696 85.168V85.505L106.248 86.177L105.8 86.738L105.24 87.186L104.68 87.522H104.344L102.776 87.186H102.44L102.216 87.298L102.104 87.634L101.432 88.867L101.32 89.204V89.652L101.432 90.1L101.656 90.437L101.88 90.661L103.448 91.445L104.008 91.782L104.456 92.23L104.904 92.678L105.128 93.239L105.352 93.911V94.248L105.24 94.808L105.016 95.481L103.112 99.292L102.552 100.076L102.328 100.413V100.749L102.44 101.085L102.664 101.421L103.336 102.094L103.56 102.318V102.766L103.448 103.327L102.888 104.111L102.44 104.448H101.992L101.432 104.111L101.096 103.999L100.424 104.111L100.2 104.224L99.976 104.672L99.752 105.344V106.802L99.864 107.362L99.976 107.81L101.768 109.156L101.992 109.38L102.104 109.716V109.94L101.768 110.276L100.984 110.837L100.76 111.061L100.648 111.397L100.536 111.846L100.648 112.518L100.872 112.854L101.096 113.079L101.432 113.303L102.216 113.415H106.024L106.248 113.639L106.584 114.2L106.808 114.76L107.256 115.993V116.329L107.144 116.666L106.808 116.89L104.904 117.562L104.68 117.899L104.568 118.347L104.68 118.907L104.904 119.244L105.128 119.916L105.24 120.252L105.352 121.261L105.576 121.934L106.136 122.27L107.144 122.494L107.368 122.718L107.592 122.943L107.704 123.167V123.615L107.592 124.512V125.408L107.816 125.969L108.04 126.193L108.824 127.202L109.16 127.987V128.435L108.936 128.883L108.488 129.556L108.152 130.116L107.928 130.677L107.816 131.349L107.928 132.246L108.264 132.806L108.936 133.815L109.272 134.376L109.384 135.048V135.833V136.617L109.496 137.29L109.608 137.963L109.832 138.635L109.944 138.859L109.832 139.308L109.608 139.644L108.936 139.98L108.488 140.092L106.472 140.204L105.016 140.877L104.568 141.325L103.336 142.894L103 143.231L102.328 143.343L101.656 143.231L100.984 142.894L100.424 142.558L99.192 141.661L98.52 141.325L97.4 141.213L97.064 141.101L96.392 140.653L95.384 139.98L94.488 139.532L92.92 139.196L92.584 139.42L92.136 139.868L90.792 142.334L90.344 142.67L90.008 142.782L87.32 142.334H85.864L85.528 142.67L85.08 143.119L84.632 144.352L84.408 145.024L84.184 145.585L84.072 145.921V146.706L83.96 147.154L83.624 147.602L82.616 148.051L82.392 148.275L82.056 148.835L81.832 149.844L81.496 150.629L81.048 151.077L80.6 151.413L79.928 152.086L79.48 152.31L79.256 152.646L79.144 153.095L78.808 154.328L78.472 154.664L78.36 155.112V155.561L78.584 156.457L78.808 156.906L79.368 157.802L79.48 158.027V158.363L79.368 158.811L79.032 159.26L78.696 159.484L78.136 159.82L77.912 160.044L77.8 160.493L77.912 160.941L78.136 161.95L78.808 163.071L79.256 164.64L79.48 165.985L79.592 166.657L79.816 171.814L80.04 173.047L80.488 174.28L80.824 174.84L81.16 175.4V175.737V176.073L80.824 176.409H80.488H79.816L79.48 176.521L79.368 176.858V177.754L79.48 178.763L79.704 179.211V179.66L79.592 181.79L79.144 184.143L77.8 189.187L77.016 189.748L76.232 191.317L75.56 191.878L74.776 191.99L74.216 191.541L73.656 190.981L73.096 190.533L70.632 190.084L69.288 190.308L69.4 191.541L69.96 191.878L70.632 191.99L70.968 192.438V193.671L70.632 194.456L70.184 194.792L69.512 194.904L68.84 195.016L68.056 194.792L66.712 193.895L66.04 193.671H63.912L63.576 194.007L62.792 195.24L62.456 195.689L61.784 195.801L59.096 195.577L57.864 195.128L57.08 195.016L56.744 195.24L56.52 195.577L56.296 195.689L55.848 195.352L55.064 194.344L52.712 193.783H51.368L50.136 194.344L49.24 195.464L48.568 196.585L47.672 197.37L46.104 197.594L44.984 197.034L44.088 195.689L43.752 193.783L44.2 191.878L43.528 191.429L42.856 191.205L42.296 191.317L41.624 191.878L41.288 192.662L41.736 194.007L41.624 195.016L40.728 196.585L39.832 196.697L39.272 195.577L39.048 194.007L38.712 193.111L38.04 192.438L37.256 192.55L36.92 193.447L37.144 194.119L38.376 195.464L38.6 196.025L38.264 197.594L37.592 198.155L36.584 198.043L35.688 197.594L33.448 195.913L31.992 195.577L30.76 196.585L30.872 197.594L32.104 198.267L34.344 198.939L35.464 199.724L36.472 200.733L36.696 201.741L35.464 202.078L33.336 202.19L32.664 202.078L32.44 201.741L32.104 201.069L31.656 200.621L30.984 200.733L30.424 202.078L31.32 205.328L30.312 205.889L28.968 205.777L27.96 205.44L27.064 204.656L26.28 203.423L25.16 200.733L24.712 200.06L23.144 198.491L21.912 197.818L19 198.603L17.88 198.155L16.424 199.836L15.416 197.594L14.968 196.361L14.744 195.577L14.856 195.24L15.416 195.016L15.64 194.904L15.864 194.456L15.64 194.231L14.856 193.783L14.296 193.223L13.96 192.999L12.728 192.214L12.28 191.99L11.832 191.541L11.72 191.093V190.757L11.832 190.42L12.28 189.524L12.392 188.963V187.954L12.168 187.842L12.056 187.954L11.608 188.403L11.384 188.627L11.048 188.515L10.488 188.179L10.264 187.73V187.394L10.376 186.497L10.264 186.273L9.92802 186.161L9.59203 186.049L9.03203 185.937L8.58403 185.713L7.80002 185.04L7.46402 184.48L7.35202 184.031L7.46402 183.247L7.80002 182.238L7.91202 181.453V179.548L8.024 178.875L8.248 178.203L8.36 177.642L8.248 177.306L7.91202 176.858L7.12802 175.961L7.01602 175.513L6.90402 175.176L7.12802 174.84L7.57602 174.055L7.68802 173.383L7.80002 173.159L8.024 173.047L8.69603 172.934L9.03203 172.71L9.14403 172.374V172.15L8.80803 171.926L7.57602 171.477L7.12802 171.029L6.23201 169.684L6.12001 169.236V168.787L6.34401 165.761L6.56801 164.528V164.079L6.45601 163.743L6.23201 163.519L5.33601 163.743H4.88802L4.77602 163.519V163.183V162.846L5.22401 161.838L5.33601 161.277V160.493L5.22401 159.932L5.00002 159.596L4.55202 158.811L4.44002 158.363L4.66402 158.139L5.22401 157.802L5.44801 157.578L5.56001 157.13L5.44801 156.569L5.11201 155.785V155.449L5.33601 155.224L6.12001 155L6.45601 154.328V154.216L6.34401 153.655L5.67201 152.534L5.22401 151.525L5.11201 150.853V150.404L5.44801 149.844L5.89601 149.284L6.45601 148.723L6.79202 148.387L6.90402 147.939L7.12802 147.266V146.818L7.01602 146.145L6.00801 144.015L5.89601 143.455V143.007L6.00801 142.222V141.774L6.45601 140.765L6.56801 140.316L6.45601 139.98L6.34401 139.644L5.67201 138.859L5.44801 138.523L5.11201 137.738V137.29V136.73L5.44801 135.272V134.376V133.591L5.56001 133.143L5.67201 132.806L5.89601 132.47L6.34401 132.022L6.90402 131.798L7.80002 131.461L8.024 131.125L8.136 130.677V129.668V129.107L8.248 128.659L8.58403 127.874L8.80803 127.202V126.754L8.69603 126.417L8.024 125.408L7.57602 124.624L7.35202 123.951L7.24002 123.503L7.35202 122.943L7.57602 121.822V121.373V120.813L7.12802 119.019L7.01602 118.123V117.114V116.553L6.90402 116.217L6.68001 115.993L5.11201 114.872L4.88802 114.536L4.66402 113.975L4.10402 111.397L3.54402 109.716L2.42401 107.362L2.08801 106.241L1.97601 105.681V105.232L2.08801 104.672L2.98401 102.542L3.20801 102.094L3.65602 101.758L5.33601 100.861L5.67201 100.3L5.89601 99.964L6.12001 98.843L6.34401 96.377L6.45601 95.593L6.68001 94.92L7.12802 94.472L7.80002 93.799L8.024 93.463L8.248 93.015L8.472 92.23V91.67V91.221L8.024 90.773L6.34401 89.316L5.89601 88.643L5.56001 87.971L5.44801 87.41V86.962L5.56001 86.626L5.78401 86.065L6.23201 85.505L6.90402 84.832L7.12802 84.272L7.24002 83.487L7.35202 81.581V80.685L7.24002 80.012L7.12802 79.676L6.90402 79.116L6.56801 78.555L5.11201 77.434L4.66402 76.65L4.32802 75.865V75.417L4.44002 74.968L4.66402 73.847L4.77602 72.726V72.166V71.606L4.44002 71.045L3.99202 70.597L3.20801 69.924L2.87201 69.588L2.53601 68.915L2.42401 68.467V68.019L2.87201 66.898L3.09601 66.225L2.98401 65.441L2.76001 64.432L2.20001 62.863L2.08801 62.078L2.42401 61.63L2.87201 61.181L3.32002 60.733L6.90402 59.612L7.12802 59.276L7.24002 58.827L7.35202 58.043L7.24002 57.594L6.90402 57.37H6.12001L5.67201 57.146L5.33601 56.922L5.00002 56.473L4.88802 56.137L5.00002 55.801L5.22401 55.689L6.34401 55.016L6.56801 54.792L6.90402 54.12L7.12802 52.999V52.55L6.90402 52.326L6.12001 51.654L5.67201 51.093L5.44801 50.757L5.56001 50.421L5.67201 50.084L5.89601 49.972L8.248 49.748L8.92003 49.636L9.25603 49.412L9.48003 48.963L9.70403 48.179V47.73L9.59203 47.394L9.25603 46.834L8.80803 46.385L8.248 46.049L6.12001 45.377L5.78401 45.264L5.56001 45.04L5.89601 44.704L7.24002 44.031L10.264 42.574L11.608 41.678L12.616 40.445L15.192 36.409L15.64 35.961L16.536 35.064L16.984 34.84L17.544 34.616L18.328 34.504H18.888L19.672 34.728L20.12 34.84L21.576 34.616L22.024 34.504L22.584 34.168L23.592 33.047L24.04 32.598L24.712 31.477L24.936 31.253L27.176 29.572L27.736 29.124L28.072 28.675L28.52 27.666L29.08 26.77L29.416 26.321L32.328 24.192L32.664 23.855L32.888 23.295L33 22.734V22.062V21.726L33.112 21.389L35.8 19.26L36.36 18.587L36.696 17.915V17.578L36.92 17.13L37.256 16.682L37.928 16.121L38.152 15.673L38.376 15.112V14.328L38.488 13.879L38.712 13.543L39.048 13.431L39.72 13.543L41.176 14.104L41.512 14.216L41.848 14.104L42.184 13.879L42.408 13.543V13.095L42.296 11.974V11.189L42.52 10.517L42.856 10.068L47.112 8.27498L48.344 7.15399L48.68 7.04199H49.128L50.36 7.60199L51.592 8.27498L52.376 8.49898H52.824L53.384 8.27498L53.944 7.82698L54.28 7.48999L54.728 6.92998L55.736 6.03299L56.184 5.69699L57.416 5.13599L58.76 4.79999L59.32 4.46399L59.432 4.12799L59.768 3.00699L59.992 2.33398L60.44 1.88599L60.888 1.66199H61.784L62.232 1.88599L62.568 2.10999L62.904 2.89499L63.016 3.45499V3.90298V4.79999L63.352 5.13599L63.688 5.47299L66.712 6.14499Z" fill="#FFD700" stroke="#0057B8" stroke-width="2" stroke-linecap="round" stroke-linejoin="round"/>
</svg>
