<svg width="262" height="145" viewBox="0 0 262 145" fill="none" xmlns="http://www.w3.org/2000/svg">
<path d="M260.8 38.994L259.232 41.46L258.896 42.581L258.784 43.029L258.672 43.365L258.448 43.814L257.888 44.262L257.44 45.047L257.104 45.495L256.544 45.831L256.096 46.616L255.648 48.185L255.312 48.746L254.976 48.97L254.64 49.082L254.08 48.746V47.849L253.744 47.176V46.952L253.632 45.831L253.52 45.607H253.296L253.072 45.943L252.624 46.616L252.288 47.064L251.84 47.176L251.728 46.952L251.616 46.616L251.84 45.383V45.047L251.616 44.823L251.392 44.598L250.608 44.486H250.272L249.712 44.935L248.592 46.504L248.144 46.728L247.808 46.84H247.472L247.136 46.616L246.912 46.392L246.8 46.168L246.576 45.159L246.352 44.935L246.128 44.71L245.456 44.486H245.008L244.672 44.598L242.208 46.728H241.872H241.424L241.2 46.504L240.864 45.943L240.64 45.719H240.416H240.08L239.744 45.943L239.296 46.392L238.4 47.849L238.288 48.409L238.624 49.418L238.96 49.867L239.184 50.091L239.744 50.427L239.968 50.651L240.192 51.212L240.528 52.108L240.976 52.557L241.2 52.669L244.672 53.341L245.008 53.453L246.352 54.462L247.024 54.574L250.72 54.798L250.944 55.023L251.28 55.583L251.392 56.256L251.504 56.48L251.84 56.592L254.304 57.152L254.64 57.377L254.752 57.601L254.64 57.937L254.192 58.385L253.408 59.058L252.848 59.282L252.4 59.394L251.728 59.506L251.392 59.73L249.152 62.084L248.592 62.421L242.096 65.671L241.536 66.007L239.856 67.801L239.408 68.025H239.072L238.96 67.577L238.736 67.465L233.472 69.594L231.68 70.715L231.456 71.051L231.232 71.388V72.172L231.344 72.957L231.456 73.405L231.68 73.517H232.24L232.464 73.63V73.854L232.352 74.526V74.975L232.576 75.535L233.92 78.674V79.01L233.808 79.346L233.36 79.682L233.136 80.019L233.024 80.579L233.136 81.364L233.248 81.7L233.472 81.812L234.032 82.148L234.144 82.709V83.493L234.592 85.399L234.704 90.219L234.816 91.003L235.04 91.452L235.264 91.676L236.048 91.9L236.272 92.124L236.384 92.348L236.496 93.021L235.824 97.392L235.712 97.841L235.376 98.177L234.592 98.401L234.144 98.513H233.696L233.36 98.625L233.024 98.85L232.352 100.195L232.128 100.419L229.664 102.773L229.104 103.445L228.768 103.782L228.432 103.894L227.648 104.006H226.976L226.528 103.557L225.968 102.885L225.744 102.773H225.408L225.184 102.997L224.96 103.557L224.624 104.118L222.048 106.92L221.936 107.256L221.376 108.601L220.928 110.059L220.704 110.283L220.48 110.507L220.144 110.283L219.92 110.059L219.808 109.722L219.584 108.826V108.153L219.696 107.817L220.032 107.032V106.808L219.584 104.23L219.36 103.782H219.136L218.8 103.894L218.576 104.118L218.24 105.799L218.016 106.92L217.792 107.705L217.904 108.377V109.05L218.016 109.722L217.904 110.507L217.568 111.628L217.344 111.964L216.896 112.188L215.44 112.637L213.088 112.412L212.64 112.525L212.192 112.861L211.296 113.533L210.736 114.094L210.288 114.654L209.728 115.775L209.28 116.448L208.608 116.896L208.048 117.008L207.6 117.344L207.376 117.569L206.704 120.035L206.032 123.173L205.024 122.388L204.8 122.164V121.828V120.707L204.688 120.147L204.464 119.698L203.344 118.353L203.12 117.905L202.896 117.232L202.784 116.672L202.56 115.999L202.336 115.887H202L200.656 116.784L200.32 116.896L198.752 116.56H198.08L197.296 116.784L196.848 117.008L196.624 117.344L196.512 117.681L196.4 118.353L196.512 119.026L196.736 119.923V120.371L196.512 120.595L196.064 120.931L194.16 121.268L193.936 121.492L193.824 121.828L193.376 122.837L193.264 123.061L192.928 123.173H192.48L191.808 122.837L191.472 122.501L191.248 122.276L190.576 121.268L190.352 121.043H190.016L188.784 121.492L186.208 121.94L185.424 122.388L184.976 122.725L184.752 122.949L184.416 123.509L184.192 124.182L184.08 124.967L184.192 125.639L184.528 126.087L184.864 126.199L185.872 126.424L186.096 126.536L186.208 126.76V127.545L186.096 128.217L185.872 128.441H185.648L183.968 128.665L183.296 128.89L183.072 129.002L182.848 129.562L182.736 129.898L182.96 130.459L183.408 131.244L183.52 131.916L183.408 132.701V133.037L183.52 133.373L184.08 134.046V134.27L183.968 134.494L183.744 134.718L182.512 134.942L182.288 135.055L182.176 135.391L182.064 136.175V136.512V137.969L181.952 138.193L181.84 138.529H181.504L170.752 140.323L170.192 140.211L166.048 138.754L165.824 138.529L165.04 138.417L164.368 138.529L163.696 138.866L163.36 138.978L163.136 138.866L162.016 137.745L160.336 136.736L159.664 136.512L158.656 136.288L156.304 136.624L155.856 136.848L155.52 137.072L155.184 137.521L153.84 139.762L153.056 141.444L152.272 142.452L151.936 142.901L151.6 143.013L151.04 143.237L150.368 143.349L149.92 143.237L149.248 143.013L148.016 142.34L147.456 142.004L147.232 141.556L147.008 140.995L146.448 139.987L146 139.426L145.776 139.314L144.32 138.529L143.648 137.857L143.2 137.633L140.96 137.296L140.288 137.408L139.84 137.633L139.616 138.641L139.392 138.866L139.056 138.978H133.68H133.232L132.896 138.754L132.672 138.305L132.56 137.857V137.408L132.672 136.624V135.951L132 134.942L131.888 134.27V133.934L132.224 133.373L133.232 131.692L133.568 131.131V130.795L133.456 130.123L133.232 129.562L131.888 127.881L131.664 127.657L131.44 127.096L131.328 126.087L131.104 125.527L130.768 125.079L130.432 124.967L130.096 124.854L128.528 125.191L128.192 125.079L127.408 124.406L126.624 123.397L124.72 120.035L123.824 118.465L123.712 117.905L123.936 117.793L126.4 116.672L127.072 116.111L127.52 115.663L127.632 115.327L127.744 114.542V113.87L127.408 112.973L126.96 111.404L126.848 111.179L126.512 110.955L125.952 110.843L123.488 111.404L123.152 111.292L122.704 111.179L122.144 110.731L121.696 110.619L121.248 110.507L120.464 110.619L119.904 110.395L119.568 110.171L118.672 109.162L118.448 109.05L118 108.938L116.992 109.386L116.656 109.61L116.432 109.834L116.32 110.171V110.507V111.516V111.852L115.76 112.188L114.864 112.3H114.528L114.192 112.188L113.968 111.852L113.744 111.628H113.408L112.96 111.964L112.736 112.3L112.624 112.749L112.512 113.87L112.4 114.542L112.176 114.766L111.952 114.878H111.504L111.168 114.766L110.832 114.43V113.87L111.168 113.085L111.392 112.412L111.616 110.395L111.504 109.722L111.28 109.274L110.832 108.938L107.36 109.274L106.576 109.498L106.016 109.722L105.792 109.947L105.568 110.059L105.12 109.947L104.672 109.61L104.336 109.386L104.112 108.714L103.888 108.489L103.664 108.377L102.656 108.826L101.648 109.61H101.088L95.376 108.826L94.704 108.489L94.368 108.265L94.144 107.817L94.032 107.481V107.144V105.687L93.92 105.239L93.696 105.015L92.24 104.678L91.792 104.342L91.568 104.118V103.782L91.344 101.316L91.232 100.643L90.784 100.531L90.224 100.307L89.216 100.195L88.208 99.858L83.728 99.522L82.384 99.634L80.256 100.419L79.472 100.867L78.912 101.428L78.8 102.212L78.576 102.885L78.352 103.109L77.904 103.333L75.888 104.006L75.44 104.342L75.104 104.79L74.88 105.015L74.432 105.351L73.984 105.463L73.536 105.351L72.64 105.015L72.416 104.678L72.192 104.342V103.67L72.08 103.333L71.632 102.885L71.296 102.773L70.96 102.661L70.512 102.773L69.952 103.221L69.728 103.445L69.504 103.782L69.056 105.015L68.832 105.239H68.496L67.824 105.015L67.6 104.678L67.376 104.342L67.264 103.67L66.704 103.445L65.92 103.333H64.016L62.224 102.997L61.552 103.109L58.64 104.118L57.856 104.566L57.296 104.902L57.184 105.127L56.96 105.911L56.624 106.36L56.288 106.584H55.616L53.264 106.023L50.464 105.015L50.016 104.902H49.456L48.896 104.79H39.376L39.04 105.127L38.592 106.808L38.256 107.368L37.808 107.481L36.016 107.368L23.024 106.696L20.784 105.575L19.552 103.782L18.656 101.54L17.648 99.522L16.64 99.858L15.856 100.419L15.296 100.531H14.96L14.624 100.195L13.84 99.41L13.392 99.298L13.056 99.41L12.944 99.634L12.496 100.195L11.152 102.773L10.816 103.109L10.48 103.333H10.144L9.92001 103.221L9.58401 102.997L8.46399 101.54L7.34399 100.643L7.008 100.531L6.672 100.419H6.448L5.44 100.867L3.87201 101.091L3.76001 100.419L4.09601 99.634L4.43201 99.186L4.54401 98.738L4.65601 98.401L4.32001 97.617L4.54401 96.72L4.43201 96.384L3.87201 96.16L2.30399 95.711L1.74399 95.375L1.63199 95.151L1.51999 94.927L1.85599 94.254L2.97601 92.573L3.42401 91.9L3.87201 90.555L3.98401 90.107V89.322L4.09601 88.537L3.98401 87.641L4.09601 87.192L4.65601 86.408L6.672 84.502L8.01599 82.821L8.35199 82.26L9.02399 81.14L9.47198 80.691L10.592 79.682L10.928 79.57H11.488L12.384 79.794L12.608 80.131L12.72 80.467L12.608 81.252L12.72 81.588L13.168 82.373L13.28 82.709L13.616 84.278L13.952 84.838L14.064 85.063L14.512 84.838L15.184 84.278L16.528 82.597L17.424 81.027L17.648 80.691L18.096 80.467L20.224 80.131L21.008 79.682L22.576 77.553L24.48 77.777L25.264 77.441L26.832 75.759L28.624 74.414L29.296 74.078L29.856 73.966L30.192 74.078L30.416 74.302L30.752 74.862L31.088 75.087L31.536 75.311L32.432 75.535H32.88H33.104L33.664 74.75L41.728 70.491L41.952 69.818L42.064 68.698L42.176 68.137L42.4 67.689L42.848 67.128L43.184 66.792L43.52 66.68L44.976 66.568L46.096 66.792L46.432 66.904L46.656 67.128L46.992 67.689L47.104 67.913L47.552 68.361H47.888L52.368 67.913L53.04 67.577L53.376 67.24L53.6 66.568V65.783V63.878L53.488 63.654L53.376 63.429L53.04 63.205L51.808 62.645L51.36 62.196L51.584 61.748L52.144 60.963L54.496 58.946L54.944 58.385L55.056 58.049L55.728 55.359V55.135L55.616 54.574V54.238L55.28 53.678L55.392 53.229L55.952 52.557L57.408 51.436L59.312 49.642L61.328 48.521L62 48.297H62.448L63.232 48.521L64.128 48.409L64.576 48.521L65.136 48.746L65.584 48.97H66.032L66.816 48.858L67.376 48.97L67.6 49.082L67.936 49.642L68.16 49.867L68.608 49.979L69.392 49.867L71.632 49.306H72.192L72.864 49.53L76 49.306L76.672 49.418L77.68 49.867L79.248 49.979L81.04 50.539L82.272 51.212L82.944 51.772L83.168 51.996H83.952H84.512H86.976L87.984 51.66L91.008 49.867L91.456 49.642L93.696 49.53L94.48 49.642L95.824 50.203H96.16L97.28 50.091L98.064 50.203L98.96 50.539L99.184 50.763L99.52 51.099L99.968 51.996L100.192 52.22L100.416 52.332L100.752 52.22L101.312 51.548L101.76 51.436H102.544L104 50.987L105.232 50.427L107.248 49.867L108.032 49.306L108.48 48.858L108.928 47.401L109.264 46.392V45.831L109.488 45.271L109.6 44.823L110.272 44.15L111.84 42.805L112.288 42.357L112.512 41.908L112.736 40.787L112.848 40.227V38.433L112.624 36.64V35.407L112.736 34.734L112.96 34.174L113.52 33.501L114.08 33.277L114.64 33.389L116.544 34.062L120.24 34.174L120.8 33.838L121.136 33.389L121.36 32.717L121.808 32.044L122.256 31.708L122.592 31.596H124.72L125.168 31.708L130.096 33.501L132 34.847L132.56 35.519L132.784 35.967L133.12 36.976L133.456 38.545L133.68 38.994L134.016 39.442L134.8 39.554L135.36 39.33L135.696 38.994L136.032 38.433L136.816 37.761L137.264 37.2L137.6 36.528L138.048 36.08L138.944 35.519L141.632 34.622L141.968 34.398L143.088 33.277L143.424 33.165H143.76L144.32 33.501L144.432 33.95L144.656 34.174L144.992 34.286L146.784 33.95H147.232L147.456 34.51L147.792 34.734L148.24 34.847H149.36L149.808 34.622L150.144 34.286L150.256 33.95L150.704 32.381L150.816 31.596L150.928 31.26L150.704 30.923L150.144 30.251L150.032 30.027L150.144 29.69L150.368 29.018L150.704 28.57L151.04 28.233L153.28 26.776L153.728 26.328L154.512 24.871L155.072 23.974L156.08 22.068L156.304 21.844L156.752 21.396L157.2 21.284L157.536 21.396L158.208 21.62L159.104 21.844L159.44 21.732L159.664 21.62V21.284L159.44 20.275L159.552 20.051L159.776 19.714L160.56 18.93L161.232 18.706L162.128 17.921L162.352 17.809L162.688 17.921L163.024 18.033L163.136 18.369V18.706L163.024 19.378L163.136 19.714L163.248 19.939L163.808 20.275L164.032 20.499L164.144 20.835L164.256 21.508L164.48 21.732L164.704 21.956L165.376 22.18L166.384 22.405H167.168L167.616 22.293L167.952 22.18L168.736 21.396L169.296 20.947L169.632 20.835L169.856 20.947L169.968 21.284L170.08 21.62L169.968 23.974V24.31L170.08 24.534L170.528 25.431L172.88 28.682L173.328 29.466L173.552 30.363L173.664 32.156L173.776 32.829L174 33.053L174.448 33.165H175.344L175.792 32.941L176.016 32.717L176.128 31.932L176.016 31.596L176.24 30.811L176.688 30.363L177.024 30.251L177.36 30.363L177.92 30.699L178.704 31.26L179.04 31.484L179.488 31.596H180.272H180.832L181.168 31.372L182.288 30.475L182.848 29.69L183.184 29.13L183.52 28.345L183.744 28.009L184.192 27.561L184.528 27.449L184.976 27.561L185.648 27.785L187.216 28.906L188 29.578L188.896 29.915H189.904L190.352 29.802L190.688 29.466L190.912 29.018L191.36 28.57L194.16 26.216L194.608 25.767L194.832 25.319V24.534L194.72 24.31L194.496 24.198L193.376 23.862L193.152 23.638L192.928 23.413L191.472 19.266L191.36 18.93V18.257V15.679L191.248 14.67L190.8 12.429L190.352 11.196L190.016 10.747L189.568 10.187L188.896 9.62601L188.448 9.17801V8.84201V8.505L189.904 4.47L190.016 4.134L190.688 1.444L206.144 9.06601L212.64 13.998L213.088 14.446L213.536 14.895L214.656 16.688L215.104 17.809L215.776 18.93L216 19.266L216.448 19.602L222.272 20.163L222.496 20.275L222.72 21.172L223.056 21.508L223.504 21.732L224.96 22.18L225.296 22.517L225.408 22.853L225.296 23.189L225.072 23.413L224.736 23.526L223.84 23.75L223.616 23.862V24.198V25.207V25.543L223.392 25.767L223.056 26.216L222.496 26.552L222.384 26.776L222.72 27.112L223.616 27.897L223.84 28.121L224.96 29.578L225.184 30.139L225.408 30.363L226.528 31.148L226.864 31.372L227.088 31.82L227.312 32.044H227.536L228.096 31.708L228.656 30.699H229.328L230.224 30.923L232.128 31.82L232.8 32.381L233.248 32.829L233.696 33.165L236.384 34.286L236.944 34.847L237.28 35.183L237.504 35.519L237.84 35.631L238.512 35.407L238.96 35.183L239.184 34.959L239.856 33.726L240.304 33.614H240.864L243.104 34.734L243.552 35.183L244.224 35.855L244.448 36.08L244.896 37.2L245.12 37.873V38.433L245.344 38.658H245.568L246.016 38.321L246.24 37.985L246.352 37.537L246.576 35.855L246.912 35.183L247.248 34.959L247.92 34.847L249.04 34.734L249.6 34.51L250.048 34.286L250.16 33.95L252.064 33.614L253.856 35.407L254.976 35.743L257.104 35.855L258.112 35.967L259.12 36.528L259.568 37.088L260.8 38.994Z" fill="#FFD700" stroke="#0057B8" stroke-width="2" stroke-linecap="round" stroke-linejoin="round"/>
</svg>
