<svg width="181" height="229" viewBox="0 0 181 229" fill="none" xmlns="http://www.w3.org/2000/svg">
<path d="M81.256 26.098L81.368 26.883L81.256 27.219L81.144 27.443L80.92 27.667H80.584L79.352 27.555L79.016 27.667L78.792 27.892L78.68 28.34L78.792 28.9L79.576 30.806L79.688 31.479L79.8 32.263L79.688 33.048L78.568 38.54L78.456 39.437L78.344 45.49L78.568 48.404L78.68 48.852L78.792 49.077L79.128 49.301H79.8L80.136 49.077L80.696 48.628L80.92 48.404H81.256L82.04 48.852L82.712 49.413L83.496 49.637H84.056H84.392L84.952 49.749L85.512 50.085L87.08 51.543L87.416 51.991L87.64 52.551L87.864 53.56L87.976 54.345V55.129L87.64 56.811L87.304 58.492L87.192 58.94V59.725L87.304 60.398L87.416 60.734L87.864 61.07L88.424 61.406L91.784 62.639L92.344 62.976L94.36 64.545L94.92 65.105L95.144 65.554V65.778L94.808 67.908L94.696 68.692L94.248 69.813L93.688 71.158L92.792 72.728L92.568 73.288V73.736L92.792 73.96L93.128 74.185H93.8L95.592 73.624L96.04 73.736L96.6 73.96L97.272 74.633L97.608 75.081L98.056 75.642L98.28 75.866L98.616 75.978L99.176 75.866L99.512 75.642L99.848 75.418L100.296 74.409L100.52 74.297L100.856 74.185L103.768 74.969L104.552 75.081L105 74.969L105.896 74.073L106.568 73.848H107.352L110.712 74.073H111.384L112.056 73.848L112.392 73.736L113.064 73.176L113.624 72.84H113.96L114.408 72.952L114.632 73.288L114.856 73.848L115.416 74.633L115.864 75.193L115.976 75.53L115.864 75.866L115.64 76.651V76.987L115.864 77.323L116.2 77.547L117.096 77.659L117.992 77.772L118.44 77.884L118.664 78.108V78.556V79.453L118.888 79.789L120.344 81.022L121.128 81.919L121.576 82.479L121.8 83.04L122.024 83.6L122.36 84.945L122.472 85.954V86.739L122.36 87.187L122.136 87.86L121.688 88.42L121.464 88.644L121.24 88.756L120.568 88.644L120.344 88.756L120.12 89.093L120.008 89.877L119.896 90.213L120.008 90.55L120.344 91.11L122.136 92.904L122.472 93.128L122.808 93.352L124.04 93.24L124.488 93.352L124.824 93.576L125.048 94.025L125.16 94.473L125.048 95.818L125.272 96.378L125.608 96.939L125.832 97.163L126.168 97.275L126.616 97.387H127.288L127.848 97.611L128.408 98.06L128.744 98.172L129.192 98.396L129.864 98.172L130.2 98.06L130.536 97.836H131.432L132.664 97.948L137.48 99.181L138.152 98.62L138.824 97.836L139.272 97.499L139.832 97.387L143.64 98.284H143.976L144.536 98.06L145.096 97.611L145.32 97.499L145.656 97.387L146.552 97.499H146.888L147.112 97.275L147.336 97.051L148.008 96.266L148.456 95.93L148.792 95.818L149.464 95.706L149.8 95.594L150.024 95.37L150.36 94.809L150.808 94.361L151.368 94.025L152.04 93.912L154.504 94.137H154.952L155.176 94.025L155.624 93.464L156.408 92.343L156.632 92.119L157.192 91.895L157.416 91.671V91.446V90.774V90.438L157.528 90.101L157.864 89.653L157.976 89.317L158.088 88.308L158.2 87.972L158.76 87.635L159.992 87.187L161.336 87.075L161.896 87.299L162.568 87.747L164.36 89.541L165.144 90.101L167.384 93.128L167.944 93.8L168.504 94.249L168.84 94.361L169.624 94.473H172.2L172.536 94.809L172.872 95.37L172.984 96.715L172.872 98.06L172.76 98.732L172.536 98.956L172.2 99.181L170.856 98.956L170.52 99.069L170.296 99.181L169.624 100.189L169.288 100.75L169.176 101.086V101.535L169.4 102.095L170.856 103.328L171.08 103.552L171.304 103.888L171.416 104.561V105.458L171.528 106.13L171.752 106.691L172.088 107.027L172.536 107.363L173.432 107.812L173.992 107.924H174.44L175.224 107.812L175.896 107.924L176.232 108.148L176.344 108.372V108.82L176.232 109.157L175.336 110.053L175 110.502L175.336 111.062L175.672 111.51L179.48 113.752L177.912 118.012L176.904 119.469L176.68 119.805L176.568 120.029L176.68 120.478L177.016 121.038L177.128 121.374L176.792 122.159L175.112 124.625L174.328 124.289L173.768 123.952L173.208 123.616L172.76 123.392H171.976H171.64L171.08 123.616L170.744 123.84L170.52 124.177L169.848 124.961L169.512 125.522L169.288 125.97L169.176 126.755V127.427L169.4 127.876L170.296 129.109L170.52 129.669V130.342L170.408 130.678L170.072 131.35L169.624 131.911L168.392 133.256L167.608 133.592L166.824 133.704H166.376L165.816 133.368L165.48 133.48L165.256 134.04L164.92 134.937L164.584 135.61L164.248 135.946L162.232 137.515L161.784 138.076L161.448 138.524L161.56 138.86L162.008 140.093L162.12 140.766V141.55L162.456 142.896L162.792 144.129L163.016 144.689L162.904 145.474L162.568 145.81L162.008 146.034L159.656 146.819L159.32 146.931L159.096 147.155L158.872 147.603L158.76 147.827L158.984 149.173V149.957V150.742L158.872 151.526L158.536 152.199L157.976 153.544L156.408 155.674L156.184 156.234L156.296 157.243L156.072 158.028L155.96 158.252L154.84 159.373L154.168 160.494L153.496 161.839L153.272 162.287L152.712 162.511L146.888 161.39L146.552 161.166L146.44 160.942L146.328 160.606L146.44 158.588L146.328 158.028L146.104 157.691L145.768 157.579H145.432L145.208 157.803L144.984 158.252L144.648 160.045L144.536 160.382L144.2 160.942L143.864 161.166L143.416 161.278L142.632 161.39L142.184 161.278L141.848 161.054L141.288 160.606H141.064L140.728 160.718L140.392 161.278L140.168 161.727L140.056 162.623L139.944 162.96L139.608 163.184L139.272 162.96L138.824 162.287L138.376 161.727L138.04 161.166V160.382L137.816 159.821L137.144 159.149L136.808 158.588L136.696 158.252L136.584 157.243L136.36 157.019L136.136 156.907L135.464 156.795L135.016 156.907L133.896 157.243L133.224 157.355H130.984L130.312 157.467L129.64 157.691L124.824 161.054L122.696 161.278L122.36 161.502L121.912 161.839L121.464 162.399L120.904 163.632L120.12 164.641L119.896 164.977V165.201L120.008 165.538L120.232 165.762L121.016 166.322L121.128 166.546L121.016 167.219L120.344 168.676L120.12 169.125V169.909L120.232 170.133L120.792 170.582L120.904 170.806L121.016 171.142V171.478L120.456 174.953L120.344 175.289L119.448 176.747L119.336 177.083V177.419V177.643L119.672 178.54V178.876L119.56 179.661L118.888 180.894L118.104 183.024L117.88 183.36L117.208 184.032L116.872 184.481L116.76 184.817V185.938L116.872 186.611L117.096 186.835L117.32 186.947L118.104 187.171L118.328 187.395L118.552 187.619L118.664 187.956V188.628L118.552 189.749L118.44 190.422L118.104 190.758L116.2 192.103L115.64 192.663L115.304 193.112L114.296 195.69L113.96 196.138L113.624 196.699L110.936 198.492L110.6 198.828L110.264 199.389L108.696 200.846L108.024 201.518L107.464 202.415L107.24 202.639L106.12 203.536L105.448 204.321L103.992 207.011L103.768 207.795V208.132V209.253V209.589L103.544 210.037L103.096 210.486L102.312 210.261L101.864 210.037L101.64 209.701L101.304 209.141L101.08 209.028H100.632L100.072 209.477L99.4 210.149L99.064 210.261L98.392 210.373L97.384 209.925L97.048 209.813L96.488 210.149L96.152 210.486L95.48 211.27L95.256 211.494L93.24 212.055L92.12 212.839H91.784H91.448L91.112 212.615L90.888 212.279L89.656 210.149L89.208 209.701H88.872H88.312L87.416 210.037L86.632 209.925L86.184 209.813L85.736 209.365L85.512 209.253H85.176L84.952 209.589L84.168 211.27L83.832 211.831L83.608 211.943L83.272 212.055L81.48 211.046L81.256 210.934H80.92L80.248 211.606L79.912 211.831L77.896 212.503H77.448L77 212.055L76.44 211.158L75.768 210.486L75.208 210.149L74.872 210.037H74.424L73.976 210.261L73.304 210.598L73.08 211.046L72.856 211.382L72.632 212.167V212.952V214.072L72.52 214.409L72.184 215.53L70.952 220.686L70.84 221.022L70.504 221.246H69.944L69.384 220.91L69.048 220.462V220.125V219.341L68.936 219.116L68.488 218.78L57.624 216.538L57.288 216.314L57.064 216.09L56.952 215.866V215.53L57.064 215.081L57.4 214.521L58.072 213.4L58.184 213.064V212.839L57.96 212.615L56.616 212.055H56.28L55.944 212.167L55.272 212.952L54.824 213.512L53.928 213.96L53.48 214.409L53.256 214.745V214.969L53.48 215.417L53.816 216.202L54.04 216.763V217.099L53.704 217.211L53.144 217.099L52.92 216.987L52.248 216.65L51.912 216.538L50.12 216.426L49.672 216.314L49.224 216.202L48.776 216.426L48.328 216.987L47.656 217.996L47.208 218.22L46.648 218.332H44.52L43.96 218.556L42.616 219.565L41.832 219.901L41.496 220.462L41.16 221.47L41.048 221.919L40.488 222.815L40.04 223.264L39.144 224.161L38.808 224.609V224.945L38.696 225.281L38.92 226.29L38.696 226.626L38.248 226.851L36.68 226.739L32.984 227.187L31.976 226.739L30.744 225.842L30.296 225.281L30.072 224.833L29.96 224.161L30.072 223.824L30.408 223.6L30.856 223.376L30.968 223.04L30.408 222.479L28.056 221.807L27.496 220.462L26.824 220.125L25.816 220.237H25.032L24.584 220.013L24.36 219.789L24.248 219.341L23.8 218.444L22.68 216.763L21.896 214.857L21.56 214.521L21.336 214.185L21.112 214.072L19.32 213.848L18.648 213.624L17.752 213.176L17.416 212.727L17.192 212.391V211.606L16.968 211.046L16.744 210.373L15.848 208.58L15.736 207.683L15.848 207.011L16.072 206.562L16.52 206.114L19.544 204.096L19.768 203.872L20.104 203.2V202.415V201.182L19.88 200.398L18.536 197.483L18.312 196.923V196.586L18.424 196.25L18.76 195.914L19.208 195.69L19.656 195.353L19.88 194.905L19.992 193.784V193.112L19.88 192.663L19.656 192.327L17.192 191.094L16.856 190.87L16.408 190.422L15.96 189.749L15.736 189.189L15.624 188.74L15.512 187.731V186.947L15.624 186.162L15.736 185.826L16.408 184.593L16.632 183.696L16.744 183.024L16.632 182.687L16.52 182.351L15.96 182.015L15.624 181.791L12.488 181.342L12.712 179.885L13.272 179.437L14.168 178.988L14.392 178.54L14.616 178.092L14.728 177.643V176.859V176.298L14.616 175.962L14.504 175.738H13.832L12.376 175.962H11.592L10.808 175.85V175.402L11.256 174.841L11.592 174.281L12.04 173.384L12.376 172.263L12.6 171.03L12.712 170.358L12.6 169.797L12.264 169.125L12.152 168.676L11.928 167.892L12.04 167.443L12.152 167.107L12.712 166.771L12.936 166.659H13.272L14.056 166.771L14.504 166.546L14.84 166.21L15.176 165.538L15.512 165.313L15.848 165.201L16.408 165.313L16.968 165.201L19.208 163.52L21.224 162.623L21.672 162.287L22.344 161.502L22.68 161.39L23.576 161.054L23.912 160.83L24.36 160.382L25.368 159.036L25.816 158.028L26.152 157.579L26.376 157.355L28.056 156.458L28.504 156.122L29.96 154.553L30.296 153.992L30.408 153.432L30.296 152.759L26.712 146.931L26.488 146.146V145.474L26.712 145.137L27.048 144.689L27.272 144.129L26.376 140.542L26.264 139.645V139.085L26.376 138.636L26.6 138.3L26.936 138.188L28.952 137.627L29.4 137.403L29.848 136.955L30.296 135.946V135.498L30.184 135.049L29.848 134.489V133.256V132.583L29.624 132.135L29.4 131.911L28.504 131.35L28.056 131.014L27.944 130.678L27.72 130.117L27.608 129.781L27.72 127.651L27.608 126.53L27.944 122.719V121.823L27.72 121.374L26.936 121.038L26.712 120.926L26.264 120.478L25.704 119.469L25.032 117.675L24.584 117.115L24.36 116.891L23.576 116.779H22.792L22.568 116.555L22.232 115.994L22.008 114.537L21.224 112.407L20.888 109.717L20.664 109.269L19.992 108.26L19.208 107.251L18.76 106.803L18.424 106.691L18.088 106.579L15.4 106.691H15.064L12.712 107.699L12.376 107.812H12.04L11.592 107.475L11.256 106.803L11.144 106.354L11.368 106.018L12.712 105.906L13.048 105.794L13.384 105.57L13.72 104.897V104.561L13.496 104.337L12.488 103.776L12.264 103.44V103.104L12.376 102.768L12.6 102.655H12.936L14.056 102.88H14.392L14.616 102.768L14.84 102.543L15.176 101.871L15.736 99.965L15.848 99.181L15.736 98.956L15.4 98.396L14.728 98.06L14.392 97.723L14.168 96.939V96.49L14.392 96.266L15.064 96.154L15.4 96.042L15.736 95.482L16.296 93.688L16.632 92.567L16.52 92.231L16.408 91.895L15.288 91.11L14.84 90.55L14.504 89.989V89.653L14.616 89.205L15.176 87.86L15.848 86.851L17.528 84.161L18.088 82.816L18.536 82.255L20.44 81.246L20.776 80.91L21.112 80.462L21.448 79.565L21.56 79.005V78.556L20.664 75.193L20.44 73.736L20.216 72.84L19.992 72.503L19.544 72.055L18.872 71.831L18.088 71.719L15.736 71.943H15.512L15.176 71.719L15.064 71.27V70.934L16.296 63.985L16.184 63.312L16.072 62.864L15.96 62.639L14.504 60.958L11.032 55.466L10.808 55.242L10.472 55.129H10.136L9.79999 54.905L9.46399 54.345L9.12799 53L9.23999 52.439L9.46399 52.103H11.48L11.816 52.215L12.152 52.327L12.936 53L13.16 53.112H13.496L13.72 52.439V51.767L13.496 49.525V48.852L13.608 47.732L13.72 47.283L14.056 46.611L14.84 45.378L15.176 44.705V44.257V43.808L15.064 43.584L14.728 42.912L14.28 42.463L14.056 42.239L13.496 41.903L11.928 41.455L11.704 41.23L11.368 41.006L11.256 40.67L11.144 39.997L10.92 39.437L10.696 39.101L10.36 38.652L8.45599 36.859L7.336 36.074L6.664 35.85H6.328H5.992L5.88 36.074L4.53601 38.204L4.42401 38.428L4.20001 38.54L3.97601 38.092L3.75201 37.419L3.41599 36.074L2.74399 30.918L1.62399 26.659V26.21L1.95999 26.098L2.74399 25.986L3.41599 25.874L4.53601 25.202L6.44 23.744L7.224 22.96L8.008 21.951L8.67999 20.606L8.79199 19.821L8.90399 18.7L9.12799 15.001L9.01599 14.217V13.993L8.79199 13.656L8.56799 13.768L8.008 14.105L7.784 14.217L7.448 14.105L7.112 13.656L6.664 12.76L8.34399 11.3024L9.79999 10.8541L12.488 11.975H13.72L14.616 10.2936L15.512 7.93971L16.184 6.70672L16.968 6.25842L18.648 6.14632L19.992 5.47382L21 4.46501L21.896 3.11992L23.128 1.88692L24.36 1.43851L25.816 1.21442L27.16 1.32652L28.168 2.11111L29.176 3.90452L29.736 5.47382L30.52 6.48261L36.232 7.49142L37.352 7.15511L37.912 6.48261L38.92 4.57702L39.704 4.01662L40.376 4.12872L41.384 4.80122L42.168 4.68912L45.976 2.67152L47.32 2.33531L56.056 2.11111L57.848 2.55942L59.528 3.79241L61.88 7.04301L62.776 7.93971L65.912 9.50902L66.696 10.2936L67.032 10.9662L67.256 11.6387V12.423V13.432L67.144 14.217L66.696 16.234L66.472 16.346L66.92 17.467L68.824 19.933L69.608 20.606L70.616 21.054H72.408L73.304 21.278L74.312 22.063L75.656 24.193L76.664 24.529L77.448 24.417L78.344 24.641L79.128 25.089L79.8 25.874L80.248 26.883L80.92 26.659L81.256 26.098Z" fill="#FFD700" stroke="#0057B8" stroke-width="2" stroke-linecap="round" stroke-linejoin="round"/>
</svg>
