<svg width="146" height="216" viewBox="0 0 146 216" fill="none" xmlns="http://www.w3.org/2000/svg">
<path d="M75.1 210.261L75.21 209.477L76.33 204.657L76.22 203.312L75.66 202.975L75.3199 202.751L75.1 202.303L74.76 201.63V200.846L74.98 197.819L74.76 196.923L74.54 196.362L68.71 195.017L64.34 195.129L63.78 194.905L63 194.457L61.4301 192.999L60.76 192.327L60.42 191.766L60.65 190.982L61.1 189.973L61.66 189.188L61.77 188.74L61.88 188.292L61.77 187.395L61.54 186.947L61.3199 186.722L57.74 184.593L49.9 181.566L48.66 180.782L48.33 180.333L48.1 179.997L48.33 178.876L48.44 178.092L48.55 177.755L48.33 177.195L47.32 174.953L47.1 174.056L46.87 173.16L46.65 172.263L46.2 171.478L45.98 171.142L45.64 171.03L39.48 171.702L38.47 171.478L37.69 171.142L37.35 170.806L37.13 170.469L36.79 169.236L36.46 168.116L36.23 167.443V166.883L36.46 166.658L36.79 166.434L39.59 165.986L40.04 165.762L40.49 165.313L40.71 164.641L40.82 164.192L40.6 163.744L39.82 161.951L39.14 161.054L37.91 160.045L37.46 159.597L37.24 159.26L37.02 158.14L36.68 157.467L36.01 156.234L35.56 155.786L35.22 155.674L35 155.898L34.66 156.346L34.1 156.795H33.77L33.43 156.682L32.65 156.234L32.31 156.122H31.98L31.42 156.01L30.97 155.674L30.07 155.113L29.74 154.665L29.62 154.216V153.544V152.871L29.74 151.638L29.96 150.854L30.3 150.069L30.41 149.397L30.3 148.5L30.07 148.164L29.74 148.052L28.84 147.827L28.06 147.491L27.38 146.931L27.16 146.594L26.94 146.258L27.05 145.473L27.5 144.353L27.61 144.016V143.456L27.5 142.895L26.71 140.878L26.6 140.542V140.093L26.71 139.309V138.86L26.49 137.403L26.26 135.049V134.713L26.49 134.04L26.71 133.592L27.05 133.144L28.5 131.911L29.51 130.566L29.74 129.781L29.85 129.22L29.74 128.884L29.4 128.772H29.06L27.83 129.108L27.61 128.996L27.38 128.548V127.763L27.61 126.979L27.72 126.755L28.5 125.634L28.84 124.961L29.18 124.289L29.29 123.84L29.18 123.168L28.95 122.159L28.39 121.15L28.17 120.478V119.917L28.28 119.469V118.908L28.17 118.46L27.94 118.236L27.16 118.124L26.82 118.012L25.927 117.787L25.367 117.451L25.143 117.115V116.666V115.321L25.031 114.649L24.807 113.752L24.135 111.51L23.911 110.502L21.447 109.717L14.391 109.269L14.055 109.156L13.607 108.932L13.047 108.26L12.599 108.036L11.815 107.811L11.479 107.587L11.367 107.363V107.027L11.703 106.242L11.815 106.018L12.039 105.794L12.375 105.682L13.159 105.794L13.383 105.682L13.495 105.345V104.785L13.607 104.449H13.943L14.951 104.337L15.175 104.225L15.399 104L15.623 103.776V103.328V102.992L13.831 98.62L13.495 97.499L13.383 96.715L13.607 96.378L14.279 95.706L14.615 95.145L14.727 94.361V93.016V92.231L15.175 89.765V89.317L14.951 89.092L14.727 88.98L12.151 88.868L11.815 88.98L11.591 89.092L9.91101 90.662L9.68701 90.774L9.35101 90.886L8.79102 90.774L7.11102 89.653L4.31097 88.532L3.86298 88.084L3.63898 87.747V87.299L3.97498 86.178L4.31097 85.506L4.53497 85.393L6.21503 85.281L6.55103 85.169L6.77502 84.945V84.385L6.43903 84.161L6.10303 83.936L4.98297 83.824L4.64697 83.712L4.31097 83.6L3.75098 82.815L3.41498 82.367L2.63098 81.695L2.07098 81.358H1.39899L2.85498 80.013L4.53497 78.78L5.31897 77.883L6.32703 76.426L6.43903 75.754V75.193V74.857L6.10303 74.409L5.76703 74.185L5.09497 73.848L4.08698 73.736L3.75098 73.624L3.52698 72.839V71.719L3.86298 66.899L3.75098 66.226L3.63898 65.666L3.41498 64.993L3.30298 64.769L2.63098 63.984L2.40698 63.648L2.18298 63.088L2.29498 62.751L2.40698 62.415L3.19098 61.294L3.63898 60.958L4.64697 60.734L4.98297 60.51L5.31897 60.061L5.65503 59.165L5.87903 57.595L6.21503 56.138L6.43903 55.802L6.66302 55.578L8.00702 54.681L8.23102 54.345L8.56702 53.784L8.67902 53.448L8.56702 52.775L7.89502 50.87V50.422L8.56702 49.973V49.637V49.413L8.00702 48.628L7.89502 48.404L7.44702 47.059V46.498L7.55902 46.05L7.78302 45.826L8.34302 45.602L8.56702 45.265L8.90302 44.817L9.46301 43.136L9.68701 42.687L10.359 41.791L10.807 41.23L10.919 40.782V40.109L10.807 39.661V38.428L10.919 35.738V35.402L10.807 35.065L10.359 34.617L10.135 34.505H9.79901H9.46301L7.78302 35.177H7.55902L7.22302 34.953L7.11102 34.393V34.056L7.22302 33.72L8.00702 32.487L8.67902 31.703L8.90302 31.591L9.23901 31.478L10.695 31.815L11.143 31.703L11.703 30.245L11.927 30.021L12.263 29.461L13.159 29.012L13.383 28.788L13.607 28.452L13.719 28.116L13.607 27.892L10.919 25.874L10.695 25.313L10.807 24.865L11.143 24.417L12.263 23.856L13.495 23.52L14.839 23.408L15.175 23.296L15.511 23.184L15.847 22.848V22.511L15.735 22.287L14.503 21.502L14.055 21.054L13.607 20.269L12.599 17.916L12.375 17.019L12.263 16.458L14.951 14.777L15.735 14.441L16.407 14.665L17.527 15.338L18.199 15.562L21.111 13.432L21.447 9.285L20.999 4.80099L21.671 1.88699L22.679 1.66299L26.6 1.99899L28.28 1.66299L29.4 1.88699L30.3 2.896L32.2 8.5L32.98 9.621L34.22 10.181L36.9 10.406L38.02 10.854L39.48 11.863L41.72 12.759L46.2 11.863L49.22 12.423L49.9 12.199L50.46 11.863L51.91 11.302H52.02L52.58 13.208L52.7 14.777L53.03 15.562L53.48 16.01L57.1801 18.812L63.67 20.606L65.8 22.623L67.37 24.977L68.9399 26.659L74.87 26.322L75.88 25.986L77.11 24.977L79.02 22.063L80.14 20.83L82.49 19.933L84.17 21.39L87.64 30.358L88.98 32.375L90.89 33.496L93.13 34.056L95.59 33.496L98.0601 32.375L100.41 31.815L102.65 33.384L103.77 33.944L107.46 34.281L108.25 35.289L108.92 37.531L109.93 41.566L111.5 44.929L113.4 46.162L115.53 46.835L118.1 48.068L121.24 51.094L122.58 51.767H124.26L126.17 51.43L127.96 50.646L129.53 49.749L133.22 45.938L134.79 45.378L135.91 45.49L142.07 47.059L142.97 48.068L142.63 50.085L141.74 51.43L139.38 52.775L138.26 53.896L137.03 57.035L137.37 60.061L138.71 62.863L141.18 66.675L144.09 70.149L144.76 71.606L144.65 73.288L143.75 76.538L143.64 80.013L143.19 80.91L141.74 81.695L140.5 82.703L138.49 85.954L137.26 87.299L133.56 89.877L131.88 91.558L130.54 93.8L130.31 95.145L130.09 97.835L129.86 98.844L129.08 99.293L128.18 99.405L126.28 99.068H124.38L119.34 100.862L116.2 100.638L115.08 101.422L114.63 106.13L115.53 107.363L116.76 108.148L117.88 109.269L118.66 110.95L119.22 112.295L119.9 113.192L121.35 113.864L126.28 114.985L128.41 114.649L129.19 114.761L129.86 115.321L130.98 116.891L131.77 117.227L133.11 116.554L134.23 115.097L135.46 113.976L137.03 114.088L138.15 115.658V117.563L137.26 119.357L136.14 120.926L133.34 123.168L130.87 123.504L123.93 120.702L122.58 120.814L121.24 121.486L119.9 122.831L119.45 123.952L119 124.961L118.55 125.858L116.98 126.418L116.42 127.203L112.62 139.869L112.06 142.223L114.41 142.111L115.64 141.662L123.03 142.559L124.71 143.456L125.83 145.137L126.39 147.603V148.276L126.73 149.509L126.5 150.293L125.94 150.405H125.38L125.05 150.517L125.27 151.975L125.83 152.647L126.5 153.208L128.41 157.467L129.08 159.933L129.53 161.166L130.2 161.951L128.74 163.408L127.74 164.753L123.48 168.34L127.74 171.03L128.97 170.918L132.22 169.685L133.56 170.021L134.46 171.59L134.34 173.384L133.45 175.065L132.44 176.41L129.42 178.652L128.3 179.997L125.16 185.938L124.38 187.731L124.26 189.861L125.16 192.775V193.672L124.94 193.784L124.6 193.672L121.13 194.345L120.46 194.793L120.01 195.577L120.12 196.138L120.57 196.586L121.24 197.707L122.14 199.725L122.25 200.622L122.14 202.079L121.91 202.751L121.24 204.208L121.02 204.993L121.13 205.666L121.35 206.899V207.571L120.9 210.149L119.9 212.503L118.33 214.072L116.31 214.521L110.15 212.839L108.25 212.727L104.44 213.4L102.65 213.176L101.19 212.615L98.5 213.4H97.16L96.04 212.951L93.91 211.494L92.6801 211.27L83.61 212.167L81.14 212.839L79.91 212.951L78.6801 212.615L75.3199 210.261H75.1Z" fill="#FFD700" stroke="#0057B8" stroke-width="2" stroke-linecap="round" stroke-linejoin="round"/>
</svg>
