<svg width="176" height="187" viewBox="0 0 176 187" fill="none" xmlns="http://www.w3.org/2000/svg">
<path d="M151.664 35.132L152.112 36.141L153.008 36.59L154.24 36.702L155.024 36.59L155.584 36.365L157.264 35.357L157.936 35.244L158.272 35.132L158.72 35.244L159.392 35.469L159.952 35.805L160.176 36.253L160.4 36.926L160.624 38.159L160.736 38.943L160.624 39.504L160.4 40.064L159.952 40.625L158.16 42.418L158.048 42.642V43.091L158.272 43.763L159.504 45.108L159.728 45.669V46.117L159.28 48.471L159.168 50.152L159.28 51.385L159.728 53.739L160.288 54.524L166.112 59.68L170.592 62.482V63.155L170.704 63.715L170.928 64.051L171.264 64.5L171.488 64.724L172.832 65.621L173.168 66.181L173.392 66.742L173.616 67.078L174.288 68.087L174.624 68.647L174.736 69.32L174.624 69.656L174.288 69.992L173.728 70.104L172.832 70.216L172.496 70.441L172.16 70.777L171.824 71.561V72.01V72.458L172.16 73.019L172.272 73.691L172.384 74.364L172.272 74.7L171.936 75.26L171.6 75.597L171.04 76.045L170.032 76.606L169.36 76.718L168.464 76.83L168.128 76.942L166.896 77.726L166.56 77.951L165.216 78.287L162.976 79.52L162.64 79.632L158.048 80.529L157.488 80.753L156.816 80.977L153.904 81.313L153.568 81.425L153.232 81.762L153.008 82.434L152.672 84.116V84.9V85.236L153.12 86.133L154.128 87.702L154.352 88.039L154.464 88.711V89.047L154.352 89.832L154.016 90.168L153.68 90.617L152.336 91.401L151.888 91.513L151.328 91.626L150.656 91.513L150.32 91.401L149.76 90.729H149.424L149.088 90.953L148.752 91.289L147.408 93.979L147.072 94.988L146.624 95.997L144.944 99.248L144.608 99.584L133.856 105.637L133.296 105.861H132.736L132.4 105.749H131.616L131.28 105.973L130.944 106.533L130.608 109.56L130.384 110.793L129.6 112.586H128.704L128.032 112.474L127.472 112.138L126.912 111.914L126.352 112.026H126.016L125.568 111.69L125.344 111.465L123.888 110.232L123.328 109.896L122.768 109.672L121.984 109.448H121.312L116.608 110.681H115.824L113.696 110.12H113.248L113.024 110.232L112.688 110.569L112.24 111.129L111.68 112.25L111.456 112.81L111.344 113.371L111.456 113.707L111.904 114.492L112.128 115.164L112.352 115.837L112.24 116.621L111.904 117.294L110 120.32L109.664 121.329L109.552 121.89L109.776 122.114L111.68 123.347L112.016 123.795L112.128 124.131L112.016 124.468L111.68 124.916L109.664 127.046L109.104 127.943L108.656 128.391L107.984 128.727L107.088 128.951H105.744L105.072 129.063L103.84 129.512L103.616 129.736L103.392 130.072L103.28 130.745V131.193L103.392 131.529L103.728 132.09L104.064 132.202H104.4H104.624L105.184 131.866L106.528 130.633L106.864 130.521L107.2 130.409L107.536 130.521L108.096 130.857L108.432 131.305L108.544 131.641L108.432 131.978L108.32 132.426L107.872 133.435L107.76 133.771V134.22L107.872 136.461L108.32 136.91L109.776 137.358L110.896 137.47L111.68 137.022L112.128 137.694L113.36 139.264L113.472 139.6V140.272L113.136 140.945L112.688 141.281L112.128 141.73L110.896 142.178L110.336 142.29L109.888 142.178L109.664 142.066L108.88 141.954H108.544L107.872 142.066L105.408 143.075L102.72 144.644L102.16 144.868L100.704 145.204L99.136 145.092L98.464 145.204L95.552 146.549H94.88H94.432L91.744 145.653L90.96 145.541H90.624L90.064 145.765L87.264 147.782L86.48 148.119L86.032 148.231L83.792 147.334L83.008 147.222H82.672L82.224 147.446L80.88 148.679L80.32 149.015L79.872 149.127L76.736 149.352L70.576 148.455L69.568 148.567L68.8957 148.791L67.8877 149.464L66.7677 150.36L66.2077 151.145L65.9837 151.481L64.4157 156.413L63.9677 157.534L63.5197 158.319L62.3997 159.328L62.1757 159.552L60.8317 160.785L59.8237 161.457L59.4877 162.242L58.0317 169.192L57.8077 169.864V170.2V170.649L58.0317 171.097L58.7037 171.994L59.0397 172.554L59.2637 173.227L59.3757 174.236L59.4877 175.02L56.7997 185.444L55.3437 184.772L54.6717 184.66L51.4237 185.108L50.1917 184.996L48.3997 184.66L47.7277 184.436L47.1677 184.099L47.0557 183.875L46.8317 183.315L46.7197 182.979V182.418V181.97L46.4957 181.521L45.9357 180.961L45.4877 180.849L45.1517 180.961L44.9277 181.185L44.0317 182.418L43.6957 182.642L43.2477 182.866H42.9117L42.5757 182.418L42.4637 181.858V180.737L42.2397 179.952H42.0157H41.7917L41.2317 180.625L40.5597 180.737L39.7757 180.849L36.8637 180.513L36.3037 180.4L35.7437 179.952L35.2957 179.616L34.9597 179.167L33.7277 176.926L32.2717 173.227L31.8237 172.442L31.1517 171.882L30.7037 171.545L30.2557 171.433L28.5757 171.77L25.9997 172.554L25.4397 172.89L24.9917 173.003H24.5437H23.5357L23.0877 172.89L22.6397 172.666L22.1917 171.882L21.9677 171.209L21.7437 170.761L21.4077 170.2L19.1677 168.407L17.5997 166.501L17.2637 166.053L17.0397 165.38L16.9277 164.372V164.035V162.802L17.1517 162.13L17.7117 160.897L17.5997 160.112L16.4797 158.767L15.3597 158.095V157.87L14.3517 156.077L14.0157 155.18L14.1277 153.947L14.6877 152.042V151.257L13.9037 150.36L11.1037 148.791L9.98368 147.894L8.19168 145.541L6.17568 144.083L6.51168 143.971L5.50368 143.299L4.71968 144.308L4.38368 144.532L4.04768 144.083L4.38368 142.85L5.39168 140.833L6.17568 137.47L7.29568 134.556L7.51968 133.211L6.62368 124.468L6.39968 122.899L6.06368 122.226L4.71968 120.769L3.93568 119.536L3.71168 118.975L3.48768 117.854L3.15168 113.819L2.70368 112.474L1.47168 108.999L3.03968 105.3L7.74368 98.911L8.86368 95.885L9.31168 95.1L9.98368 94.428L11.3277 94.204L11.9997 93.867L13.0077 92.858L16.8157 85.909L17.4877 85.124L17.9357 84.788L19.0557 84.34L19.6157 83.891L19.9517 83.219L20.3997 81.201L20.7357 80.417L23.3117 77.726L30.0317 67.863L32.4957 65.06L34.8477 63.379L36.6397 60.465L50.8637 44.996L53.6637 42.754L57.0237 40.176L58.8157 38.719L63.7437 33.451L64.5277 32.106L65.4237 29.416L66.0957 27.959L66.8797 27.174L67.9997 26.614L70.128 25.941L81.328 25.829L84.576 24.484L85.92 21.233L86.256 20.224L86.368 18.879L86.256 17.086L86.48 15.853L90.4 13.723L91.632 12.49L92.416 11.369V11.145L92.08 10.921L91.744 9.576L91.072 4.98L92.528 2.51401V2.40199L92.976 1.73L93.536 1.28101L94.32 1.05701H95.216L96 1.505L96.336 3.299L96.896 3.74699L97.792 4.084L98.352 4.756L98.688 5.765L99.248 6.437L100.032 6.774L101.152 7.222L101.824 7.783V7.11L102.944 6.886L103.504 6.55L104.176 6.325L105.744 6.101L105.968 5.989L106.528 5.541L106.864 4.98L107.2 4.532L107.424 4.42H107.984L108.544 4.756L109.328 5.317L110.448 6.437L110.784 7.11V7.558V7.895V8.343L110.896 8.567L112.688 10.361L113.024 10.585L113.472 10.697L114.144 10.585L115.264 10.248L115.6 10.136L116.272 10.361L116.832 10.697L118.624 12.827L118.96 13.387L119.184 14.06L119.072 14.844L118.96 15.18L118.624 15.741L118.176 16.189L117.616 16.413L114.48 17.198L113.92 17.534L113.808 17.758L113.696 18.095L113.808 18.431L114.144 18.879L116.72 21.009L117.056 21.457L117.168 22.018V22.466L117.056 23.139L116.944 23.587L117.056 23.923L117.28 24.148L117.728 24.372L118.624 24.26L119.072 24.148L119.408 23.811L119.632 23.251V22.13V21.682L119.856 21.345L120.08 21.121H120.416L120.752 21.345L121.088 21.794L121.312 22.13L121.648 22.803L121.984 23.139L122.432 23.251L124.448 23.363L124.784 23.475L125.12 23.587L125.344 24.035V24.484L125.456 25.156L125.904 25.605L128.48 27.174L129.04 27.847L129.376 28.407L129.264 29.192L129.376 29.528L129.488 29.864L129.936 30.2L130.608 30.425L133.744 30.649H134.64L135.2 30.425L135.76 30.088L136.32 29.864L136.992 29.64L138.336 29.304L142.256 29.976L143.04 29.864L143.488 29.528L143.376 28.407V28.071L143.6 27.847L144.16 27.959L144.944 28.407L146.736 29.528L147.968 30.2L149.872 29.864H150.544L150.768 30.088L151.104 30.313L151.44 30.649L151.776 31.321L151.888 32.33L151.664 35.132Z" fill="#FFD700" stroke="#0057B8" stroke-width="2" stroke-linecap="round" stroke-linejoin="round"/>
</svg>
