<svg width="185" height="167" viewBox="0 0 185 167" fill="none" xmlns="http://www.w3.org/2000/svg">
<path d="M103.672 157.215L101.432 160.802L98.632 159.569L97.176 159.233L95.832 159.12L94.936 159.681L93.928 160.69L93.592 161.138L93.368 161.811L93.256 162.707L93.368 165.509L91.912 161.698L91.464 161.138L90.568 160.802L83.288 153.404L82.28 151.274L84.296 152.955L85.976 154.637L86.872 155.197L97.736 154.301L99.864 154.973L103.336 157.103L103.672 157.215ZM177.032 25.173L177.704 25.734L177.592 26.294L177.256 27.191L176.808 28.872V29.433L176.92 29.769L177.256 29.993H177.928L178.264 29.881L178.712 29.993L179.16 30.217L179.72 31.114L179.944 31.675V32.011L179.496 32.571L179.384 32.908L179.272 33.356L179.16 35.486L179.048 35.934L178.824 36.494L178.6 37.727V42.771V43.444L178.824 43.892L179.272 44.229L179.608 44.565L179.944 45.125L180.28 46.358L180.168 46.807L179.944 47.143L177.256 47.367L174.904 48.04L174.568 48.152L174.12 48.6L173.784 48.824L173.896 49.385L174.232 50.281L175.24 52.075L175.688 53.196L176.024 54.205L176.136 55.101V55.662L175.912 56.11L175.576 56.558L174.904 57.343L174.456 58.016L174.344 58.688V59.136L174.456 59.361L174.68 59.585L175.128 59.809L180.392 60.594L180.28 61.378L180.168 62.499L180.28 63.172L180.392 63.732L180.728 64.293L181.624 65.077L181.96 65.414L182.184 65.974V66.31L181.736 67.319V67.655V68.216L182.184 69.112L182.408 69.785L182.632 70.233V71.018L182.408 71.691L182.296 72.475V72.924L182.408 73.596L182.856 74.605V75.277L182.744 75.614L182.52 75.838L181.96 76.062L180.728 76.174L180.056 75.95L179.944 75.726L179.832 75.502L179.496 74.269L178.824 72.924L178.712 72.699L178.488 72.587L178.264 72.699L178.152 73.26L177.928 74.044L177.704 74.493L176.808 75.838L176.472 76.622V76.847L176.696 77.407L177.032 77.855L177.48 78.304L178.152 78.528H180.28L180.504 78.64L180.84 78.752L180.952 78.976L182.296 82.003L182.52 82.899V83.46V84.02L182.296 84.805L181.736 86.486L181.4 87.607L181.288 88.392V89.064L181.512 89.625L181.848 90.522L183.192 92.875L183.304 93.212V93.436L182.968 94.221L182.744 94.893L182.632 95.229L182.296 95.454H181.848L181.512 95.341L180.728 94.893L180.392 94.781L180.056 94.893L179.608 95.117L177.816 97.247L177.48 97.471L177.032 97.695L176.136 97.807H174.68L174.568 97.695L173.896 96.911L173.672 96.799L173.336 96.911L173 97.359L172.44 98.928L170.872 102.403L169.752 103.86L169.528 104.533L169.64 105.093L169.752 105.766L169.864 106.662L169.976 106.887L170.2 107.111H170.536L171.432 106.999L172.104 107.111L175.688 109.241L178.488 111.931L178.6 112.267V112.491L178.376 113.164L177.928 113.948L176.808 115.181L176.584 115.518L176.472 115.966V116.526L176.36 116.638L174.68 115.518L174.344 115.181L174.008 114.733L173.672 114.285L173.224 113.948L172.664 114.172L171.992 114.733L171.768 115.181L171.656 115.63L171.768 116.638V117.311L171.992 117.871L172.44 118.32L172.664 118.432H174.904L175.352 118.656L175.688 119.104L175.8 119.329L175.464 119.777L174.792 120.113L172.328 120.786L171.432 121.234L170.088 122.803L169.528 123.028L163.48 124.036L163.144 124.148L162.808 124.597V124.933L162.92 125.269L163.144 125.494L163.592 125.718L164.04 125.942L165.496 126.054L168.856 125.718L169.304 125.83L169.864 126.166L170.2 126.278L170.76 126.166L170.984 126.278L171.208 126.502L170.536 126.951L169.528 127.511L164.712 129.192L164.152 129.529L163.816 129.641L160.792 129.529L157.432 129.977H156.76L156.312 129.753L156.088 129.529L155.752 129.08L155.304 128.296L154.968 127.847L154.632 127.735L153.288 127.287L152.952 127.063L152.504 126.727L152.056 126.614H149.592L148.92 126.502L148.472 126.278L148.248 126.166L147.688 126.054L147.464 125.942L147.016 125.494L146.792 125.381H146.456L146.232 125.494L146.12 125.942V127.287V127.623L145.896 128.408L145.56 128.856L145.224 129.08L144.776 129.192L142.536 129.417L141.976 129.305L141.528 129.08L141.192 128.184L140.968 127.959L140.744 127.847H140.408L139.064 127.959L136.936 128.52L136.488 128.744L136.04 129.305L135.816 129.753L135.032 131.995L134.92 132.219L134.584 132.443L134.136 132.555L132.456 132.443L128.872 131.098H128.2L127.416 131.21L126.968 131.434L126.632 131.658L126.072 132.107L125.848 132.555L125.736 133.004L125.064 134.685L124.504 135.806L124.28 136.142L123.944 136.59L123.496 136.927L122.376 137.375L120.472 137.935H119.8L119.016 137.711L118.008 137.039L117.336 136.927L116.888 137.039L116.328 137.151L115.32 137.935L114.76 138.496L113.864 138.832L110.728 138.72L110.616 139.168L110.392 138.608L109.72 137.375L109.16 135.806L108.824 132.107L110.056 129.192L111.736 126.614L112.968 123.476L113.304 121.682L113.192 120.225L112.52 119.329L109.496 118.768L108.824 117.984L109.048 116.863L110.84 114.06L111.4 113.052L111.064 112.379L109.384 112.155L106.584 112.715L105.464 112.603L104.456 111.482L106.248 107.671L106.472 105.43L105.576 103.076L104.68 102.291L103.896 102.067L103.224 101.731L102.776 100.273L102.552 98.592V97.583L102.328 96.911L101.432 95.902L97.848 94.221L97.176 93.1L97.512 91.194L97.4 90.522L96.84 90.297L96.616 90.634L95.72 92.203L95.496 92.763L95.832 93.772L96.84 94.893L98.072 95.678L100.76 96.35L101.432 97.471V102.739L101.656 103.3L103.224 103.636L103.672 104.084L103.896 104.421L104.232 104.645L105.016 105.317L104.568 106.887L103.672 108.456L103.224 109.016L102.776 113.164L104.68 114.06L107.48 113.612L109.496 113.948L107.704 116.078L106.92 117.535L106.584 118.992L107.144 120.562L108.264 120.898L109.608 120.45L110.84 119.665L111.176 121.57L110.504 124.261L109.384 126.727L108.04 127.735L106.584 128.184L105.24 129.529L104.456 131.546V133.9L106.808 137.039L107.032 137.711L106.584 141.747L106.808 143.204L107.032 143.988L107.144 144.549L106.584 145.67L106.136 146.23L104.792 147.239L104.008 147.575L101.32 148.136L98.632 147.687L92.584 145.333L88.888 145.67L87.88 146.342L87.32 147.575L86.76 148.584L85.304 148.808L84.856 148.584L83.96 147.687L83.4 147.575L82.056 147.687L81.384 147.575L80.936 147.239L80.6 146.006L81.272 144.437L84.632 138.608L85.528 136.702V135.806L86.312 135.133L89.112 130.874L88.44 129.753L87.88 130.201L87.432 131.546L86.984 132.667L86.536 133.004L85.416 133.564L84.856 133.9L84.52 134.349L83.288 136.254V136.59L83.064 136.815L82.28 137.039L81.496 136.59L80.712 135.806L79.816 133.564L79.144 132.443L78.136 131.995L78.808 134.349L78.92 134.909L79.032 136.254L79.48 136.702L80.04 137.039L81.944 138.608L82.168 139.281L81.72 140.514L80.6 142.307L80.488 142.643L79.48 143.428L77.352 146.791L76.568 147.575L75.448 147.799L72.648 149.369L71.752 150.041L70.856 149.593L69.176 149.369L68.392 148.808L67.944 149.481L66.712 148.696L62.456 147.575L61.56 142.531V140.85L61.672 140.401L61.896 139.841L61.784 139.281V138.72L61.448 137.823L61 130.65L60.888 129.753L59.768 128.856L58.872 128.408L58.424 127.847L57.752 126.278L57.304 125.494L56.968 125.045L54.28 123.252L53.944 122.579L53.384 121.458L52.824 119.553V118.656L52.936 118.208H53.16L56.296 117.984L56.744 117.647L57.416 116.526L57.64 116.302L57.864 116.19H58.536L58.76 116.302L59.208 116.638L59.432 116.751L60.328 116.526L64.136 116.19H64.472L64.696 115.966L65.032 115.181L65.256 114.845L65.48 114.733L66.712 114.06L67.048 113.724L67.384 112.603L67.72 111.258L68.056 110.698L68.392 110.249L68.728 109.913L69.064 109.353L69.176 108.792V108.12V107.223L69.848 105.654L69.736 104.981L69.624 104.645L69.4 104.421L69.176 104.309L68.056 104.197L67.72 104.084L67.496 103.86L67.272 103.412L67.16 102.739L66.712 101.955L66.6 101.731L65.928 101.058L65.48 100.385L65.144 99.489L64.92 99.04L64.696 98.816H64.024L63.464 99.04L62.68 99.377L62.12 99.489L61.56 99.265L60.888 98.704L60.328 98.368L58.872 98.032L58.536 97.919L58.312 97.583L58.088 97.247L57.976 96.574V95.79L58.088 95.005L58.312 94.781L58.872 94.557L59.432 94.333L59.992 94.108L60.216 93.884L61.112 92.988L61.224 92.651L61.448 91.979L61.336 91.194L61.224 90.634L60.776 89.625L60.328 89.177L60.104 89.064L55.176 90.185L53.272 90.97H52.936L52.6 90.858L51.928 89.625L51.704 89.401H51.48L49.016 89.289L45.544 88.616L44.76 87.383L43.752 85.029L40.84 76.174L40.504 74.717L41.288 72.699L41.624 71.242L41.848 70.345L41.96 69.449L41.848 68.776L41.96 68.216L42.408 67.88L42.632 67.655L42.856 66.983V66.086L42.632 64.181L42.296 63.62L41.4 62.611L40.728 61.378L40.392 60.818L39.944 60.482L37.816 60.369L37.48 60.257V59.921L37.592 59.697L37.816 59.136V58.464L37.704 56.783L37.48 56.222L37.144 55.886L33.672 56.671L33.448 56.895L33.224 57.119V57.567L32.888 59.024L32.552 59.697L32.216 60.145H31.88L31.544 59.921L31.32 59.585L30.984 58.912L30.648 57.231L30.424 56.895L30.088 56.671L27.848 56.558H27.512L27.064 56.334L26.28 55.662L25.944 55.55H25.608L25.272 55.662L24.712 56.334L23.704 57.007L23.144 57.343H22.92H22.584L22.248 57.119L21.8 56.558L21.464 56.446H21.128L18.328 57.007L17.992 56.895L17.208 55.998L16.984 55.774L15.528 54.989L14.856 54.541L14.52 53.756L14.296 52.859L13.848 51.739L13.736 50.954L13.848 50.281L14.296 49.385L14.408 49.048L14.52 48.6V47.928L14.072 47.255L13.288 46.695L12.504 45.798L12.28 45.462V45.013L12.392 44.677L12.616 44.453L13.176 43.78L13.4 43.556L13.624 43.108V42.659L13.288 41.314L12.952 40.866L12.616 40.642L11.048 39.969L10.376 39.521L9.36801 38.624L8.92001 37.839L8.80801 37.055L7.23999 27.079L7.12799 26.743L6.90399 26.406L5.784 24.949L5.112 24.052L4.664 23.492L4.44 23.38L2.87201 22.932L2.42401 22.707L2.20001 22.147V21.25L2.31201 20.578L2.76001 19.793L2.87201 19.121L2.76001 18.784L2.87201 17.551L2.76001 17.103L2.64801 16.767L1.86401 16.206L1.75201 15.982L1.86401 15.758L2.53601 15.085L4.664 14.189L5.672 14.301L5.896 14.189L6.23199 13.74L6.45599 13.516H6.79199H7.12799L7.79999 13.74L8.13599 13.628L8.35999 13.404L8.47198 12.956V12.507L8.13599 12.171L7.35199 11.723L7.12799 11.498L7.01599 11.05V9.36899L8.80801 9.48099L9.25601 9.36899L9.59201 8.80801L10.04 7.12701L10.376 6.79099H19.896L20.456 6.90302H21.016L21.464 7.01501L24.264 8.02399L26.616 8.58401H27.288L27.624 8.35999L27.96 7.91199L28.184 7.12701L28.296 6.90302L28.856 6.56601L29.64 6.11801L32.552 5.10901L33.224 4.99701L35.016 5.33301H36.92L37.704 5.44601L38.264 5.67001L38.376 6.34201L38.6 6.67899L38.824 7.01501L39.496 7.23901H39.832L40.056 7.01501L40.504 5.78201L40.728 5.44601L40.952 5.22101L41.512 4.77301L41.96 4.66101L42.296 4.77301L42.632 4.88501L43.08 5.33301L43.192 5.67001V6.34201L43.416 6.67899L43.64 7.01501L44.536 7.35101L44.984 7.46301L45.432 7.35101L45.88 7.01501L46.104 6.79099L46.44 6.34201L46.888 6.00601L48.904 5.33301L49.352 5.10901L49.576 4.88501L49.8 4.21301L49.912 3.42801L50.472 2.86801L51.256 2.41901L53.384 1.63501L54.728 1.522L59.208 1.85901L60.216 2.19501L61.224 2.30701L61.784 2.53101L62.232 2.64301L62.344 3.31601L62.568 5.78201V6.11801L62.792 6.34201L63.24 6.67899L64.696 7.01501L64.92 7.23901L65.032 7.68701V9.14499V9.48099L65.144 9.81699L65.368 10.265L65.704 10.49L66.376 10.826L72.088 11.611H72.648L73.656 10.826L74.664 10.378L74.888 10.49L75.112 10.714L75.336 11.386L75.672 11.611L76.12 11.947L76.568 12.059L76.792 11.947L77.016 11.723L77.576 11.498L78.36 11.274L81.832 10.938L82.28 11.274L82.504 11.723L82.616 12.395L82.392 14.413L82.168 15.085L81.832 15.87V16.43L82.168 16.767L82.504 16.879H82.952L83.176 16.767L83.4 16.542L83.512 15.87L83.624 14.749L83.736 14.301L83.96 13.964L84.408 13.628H84.744L84.968 13.852L85.192 14.189L85.528 14.301H85.864L86.76 14.189L87.32 13.852V13.516V12.507V12.171L87.432 11.835L87.656 11.611L87.992 11.386L89 10.938L89.448 11.05L89.672 11.162L90.568 12.171L90.904 12.395L91.464 12.619L92.248 12.507L92.696 12.619L93.144 12.731L93.704 13.18L94.152 13.292L94.488 13.404L96.952 12.844L97.512 12.956L97.848 13.18L97.96 13.404L98.408 14.973L98.744 15.87V16.542L98.632 17.327L98.52 17.663L98.072 18.112L97.4 18.672L94.936 19.793L94.712 19.905L94.824 20.466L95.72 22.035L97.624 25.398L98.408 26.406L99.192 27.079L99.528 27.191L101.096 26.855L101.432 26.967L101.768 27.079L102.104 27.527L102.328 28.088L102.44 29.097L102.664 29.657L102.888 29.881L104.232 31.562L104.456 32.123L104.568 32.795V33.132L104.232 33.692L103.224 35.374L102.888 35.934V36.27L103 36.943L103.672 37.952V38.624L103.56 39.409V39.857L103.672 40.305L103.896 40.754L104.232 40.978H104.68H110.056L110.392 40.866L110.616 40.642L110.84 39.633L111.288 39.409L111.96 39.297L114.2 39.633L114.648 39.857L115.32 40.53L116.776 41.314L117 41.426L117.448 41.987L118.008 42.996L118.232 43.556L118.456 44.004L119.016 44.341L120.248 45.013L120.92 45.237L121.368 45.349L122.04 45.237L122.6 45.013L122.936 44.901L123.272 44.453L124.056 43.444L124.84 41.763L126.184 39.521L126.52 39.072L126.856 38.848L127.304 38.624L129.656 38.288L130.664 38.512L131.336 38.736L133.016 39.745L134.136 40.866L134.36 40.978L134.696 40.866L135.368 40.53L136.04 40.418L136.824 40.53L137.048 40.754L141.192 42.211L141.752 42.323L152.504 40.53H152.84L152.952 40.193L153.064 39.969V38.512V38.176L153.176 37.391L153.288 37.055L153.512 36.943L154.744 36.719L154.968 36.494L155.08 36.27V36.046L154.52 35.374L154.408 35.037V34.701L154.52 33.916L154.408 33.244L153.96 32.459L153.736 31.899L153.848 31.562L154.072 31.002L154.296 30.89L154.968 30.666L156.648 30.442H156.872L157.096 30.217L157.208 29.545V28.76L157.096 28.536L156.872 28.424L155.864 28.2L155.528 28.088L155.192 27.639L155.08 26.967L155.192 26.182L155.416 25.51L155.752 24.949L155.976 24.725L156.424 24.389L157.208 23.94L159.784 23.492L161.016 23.044H161.352L161.576 23.268L162.248 24.277L162.472 24.501L162.808 24.837L163.48 25.173H163.928L164.264 25.061L164.376 24.837L164.824 23.828L164.936 23.492L165.16 23.268L167.064 22.932L167.512 22.595L167.736 22.371V21.923L167.512 21.026L167.4 20.353L167.512 19.681L167.624 19.345L167.848 19.008L168.296 18.784L169.08 18.56H169.752L171.32 18.896L171.656 18.784L173 17.888H173.336L173.56 18L173.784 18.672L173.896 19.233L174.12 19.905L174.344 20.353L175.464 21.699L175.688 22.147L175.8 22.707V23.828V24.165L176.024 24.389L177.032 25.173Z" fill="#FFD700" stroke="#0057B8" stroke-width="2" stroke-linecap="round" stroke-linejoin="round"/>
</svg>
