<svg width="195" height="275" viewBox="0 0 195 275" fill="none" xmlns="http://www.w3.org/2000/svg">
<path d="M100.888 238.48L96.072 240.497L99.208 238.816L100.552 237.807L101 236.911L101.336 236.126L102.12 235.79L103.128 235.678L103.912 235.341L104.92 234.557L106.712 232.539L107.72 231.642L117.464 222.675L120.6 220.994L107.16 233.884L100.888 238.48ZM131.016 9.36899V11.05L131.128 11.498L131.352 11.723L132.136 12.171L132.472 12.507V12.956L132.36 13.404L132.136 13.628L131.8 13.74L131.128 13.516H130.792H130.456L130.232 13.74L129.896 14.189L129.672 14.301L128.664 14.189L126.536 15.085L125.864 15.758L125.752 15.982L125.864 16.206L126.648 16.767L126.76 17.103L126.872 17.551L126.76 18.784L126.872 19.121L126.76 19.793L126.312 20.578L126.2 21.25V22.147L126.424 22.707L126.872 22.932L128.44 23.38L128.664 23.492L129.112 24.053L129.784 24.949L130.904 26.406L131.128 26.743L131.24 27.079L132.808 37.055L132.92 37.84L133.368 38.624L134.376 39.521L135.048 39.969L136.616 40.642L136.952 40.866L137.288 41.314L137.624 42.659V43.108L137.4 43.556L137.176 43.78L136.616 44.453L136.392 44.677L136.28 45.013V45.462L136.504 45.798L137.288 46.695L138.072 47.255L138.52 47.928V48.6L138.408 49.048L138.296 49.385L137.848 50.281L137.736 50.954L137.848 51.739L138.296 52.86L138.52 53.756L138.856 54.541L139.528 54.989L140.984 55.774L141.208 55.998L141.992 56.895L142.328 57.007L145.128 56.446H145.464L145.8 56.558L146.248 57.119L146.584 57.343H146.92H147.144L147.704 57.007L148.712 56.334L149.272 55.662L149.608 55.55H149.944L150.28 55.662L151.064 56.334L151.512 56.558H151.848L154.088 56.671L154.424 56.895L154.648 57.231L154.984 58.912L155.32 59.585L155.544 59.921L155.88 60.145H156.216L156.552 59.697L156.888 59.024L157.224 57.567V57.119L157.448 56.895L157.672 56.671L161.144 55.886L161.48 56.222L161.704 56.783L161.816 58.464V59.137L161.592 59.697L161.48 59.921V60.257L161.816 60.37L163.944 60.482L164.392 60.818L164.728 61.378L165.4 62.611L166.296 63.62L166.632 64.181L166.856 66.086V66.983L166.632 67.655L166.408 67.88L165.96 68.216L165.848 68.776L165.96 69.449L165.848 70.345L165.624 71.242L165.288 72.699L164.504 74.717L164.84 76.174L167.752 85.029L168.76 87.383L169.544 88.616L173.016 89.289L175.48 89.401H175.704L175.928 89.625L176.6 90.858L176.936 90.97H177.272L179.176 90.185L184.104 89.064L184.328 89.177L184.776 89.625L185.224 90.634L185.336 91.194L185.448 91.979L185.224 92.651L185.112 92.988L184.216 93.884L183.992 94.108L183.432 94.333L182.872 94.557L182.312 94.781L182.088 95.005L181.976 95.79V96.574L182.088 97.247L182.312 97.583L182.536 97.92L182.872 98.032L184.328 98.368L184.888 98.704L185.56 99.265L186.12 99.489L186.68 99.377L187.464 99.04L188.024 98.816H188.696L188.92 99.04L189.144 99.489L189.48 100.386L189.928 101.058L190.6 101.731L190.712 101.955L191.16 102.739L191.272 103.412L191.496 103.86L191.72 104.084L192.056 104.197L193.176 104.309L193.4 104.421L193.624 104.645L193.736 104.981L193.848 105.654L193.176 107.223V108.12V108.792L193.064 109.353L192.728 109.913L192.392 110.249L192.056 110.698L191.72 111.258L191.384 112.603L191.048 113.724L190.712 114.06L189.48 114.733L189.256 114.845L189.032 115.181L188.696 115.966L188.472 116.19H188.136L184.328 116.526L183.432 116.751L183.208 116.638L182.76 116.302L182.536 116.19H181.864L181.64 116.302L181.416 116.526L180.744 117.647L180.296 117.984L177.16 118.208H176.936L176.824 118.656V119.553L177.384 121.458L177.944 122.579L178.28 123.252L180.968 125.045L181.304 125.494L181.752 126.278L182.424 127.847L182.872 128.408L183.768 128.856L184.888 129.753L185 130.65L185.448 137.823L185.784 138.72V139.281L185.896 139.841L185.672 140.401L185.56 140.85V142.531L186.456 147.575H184.664L181.528 148.584L178.168 149.032L175.592 149.929L174.248 150.041L173.688 150.49L172.232 151.722L171.784 151.61L171 151.274L170.216 151.61L166.52 154.188L165.848 154.413L163.16 153.852L162.6 153.74L161.816 154.413L160.024 156.991L159.576 157.775L159.8 159.008L160.92 161.25L161.256 163.044H161.592L162.04 163.492L162.264 164.052L161.816 164.501L161.368 165.509L160.808 168.2L160.696 168.536L158.12 172.011L157.112 172.907L153.752 172.683L153.192 173.244L153.528 173.692L154.984 174.701L155.432 175.485V176.382L155.096 177.279L153.304 180.866L148.936 187.031L147.704 189.609L146.808 190.842L145.8 191.402L145.24 192.187L144.008 195.662L143.448 196.895L135.832 204.293L129 213.484L125.528 216.959L121.384 220.209L121.496 218.976L121.16 214.044L120.712 213.82L120.152 214.381L119.704 215.277L119.368 216.286L119.144 218.64L119.032 219.312L118.808 219.873V220.321L118.696 220.658L118.136 220.77L117.688 220.209L117.352 220.097L117.128 220.433L116.568 220.77L113.768 218.416L112.2 217.743L110.856 218.528L110.408 220.209L110.184 222.451L109.848 224.469L109.288 223.46L108.616 222.675V222.003L109.064 220.994L108.728 220.545L108.28 220.77L107.72 222.003V223.46L107.944 224.693L108.504 225.59L109.064 226.262L108.616 228.728L108.28 227.831L107.832 227.271L106.488 226.262L106.376 225.926V225.477V225.253L105.816 225.029L105.48 225.253L105.144 226.038L105.032 226.262H103.576L101.896 226.598L100.552 227.495L100.104 229.288L100.664 230.521L101.448 231.082L103.128 231.642L104.024 232.651L104.472 233.324L104.136 233.66L103.016 234.108L102.008 234.893L101 235.453L99.768 234.781L99.544 235.453L99.432 235.565V235.902L99.768 236.574L98.76 237.135L97.08 237.695L96.296 238.48L96.408 236.126L95.736 233.772L94.504 231.867L93.16 231.194L93.272 230.521L92.936 226.262L93.272 224.805L93.72 224.132L93.832 223.572L93.384 222.675L93.048 222.115L92.6 221.778L91.368 220.77L90.92 220.321L90.696 219.537L90.36 219.649L90.136 220.097L89.912 220.77L90.136 221.33L91.032 222.563L91.256 222.899L91.032 223.684L89.8 225.253L89.464 226.262V227.607L89.576 228.392L89.912 228.952L90.36 229.961L88.232 231.642L87.784 235.117L88.008 239.377L87.336 243.412L88.904 244.196L89.8 244.421L91.032 244.533L92.152 244.308L93.048 243.748L94.616 242.067L93.832 243.075L91.816 246.326L91.032 246.999L90.36 247.335L90.024 248.232L89.688 249.016L89.352 249.465L88.344 249.801V250.585L89.352 252.603L89.8 253.276L90.584 253.724L91.256 253.612L91.48 252.827L91.368 251.818L91.48 250.922L92.488 250.585V252.715L92.712 253.051H93.048L93.384 252.715V252.379L93.832 252.491H94.392L94.728 252.827L95.064 254.284L95.4 252.939L95.736 251.482L96.184 250.81L97.192 251.818L97.64 253.276V254.957L97.192 256.19L95.96 256.078L96.856 257.087L97.304 258.768L97.528 260.674L97.64 264.372V265.157L97.416 265.942L96.856 267.175L96.744 267.847L96.072 269.977L95.96 270.874V271.658V271.882L94.728 273.003L93.72 273.676L92.6 273.9L91.704 273.676L92.04 273.115L92.152 272.443L92.04 271.77L91.704 271.21L92.488 268.632L92.152 265.269L91.144 262.243L89.8 260.898L89.016 260.561L86.104 257.871L77.48 254.733L72.776 254.284L72.104 254.06L71.432 253.724L70.76 253.612L70.2 253.948L69.864 254.396L69.416 254.957L68.856 255.293L68.296 255.517H66.952L65.944 255.293L64.936 255.405L63.592 256.078L62.696 256.862L62.136 257.535L61.912 258.208L61.576 258.432L60.12 258.544L59.56 258.768L58.664 259.665L57.656 260.225L55.08 260.898L51.944 263.588L51.048 264.036H49.704L49.144 264.148L48.696 264.485L48.36 265.269L48.136 266.951L47.912 267.623L46.456 268.184L45.224 267.399L44.216 266.278L43.432 265.718L41.976 265.493L40.408 264.372L39.4 264.036L37.72 264.372V265.718L37.832 266.951L36.04 267.847L35.928 268.52L36.04 269.417L36.376 269.977L36.824 270.425L38.616 271.21L37.832 271.995L37.048 272.331L35.144 272.443L32.792 272.779L24.616 270.874L19.464 268.184L13.976 266.726L11.736 265.493L10.728 265.157L9.272 264.26L8.04001 262.019L6.24799 257.311L6.58401 255.517L5.35199 253.836L3.56 252.827L1.992 253.051L1.20801 252.043L1.32001 251.37L1.76801 250.249L2.216 249.24L5.57599 246.662L9.944 246.999L14.648 248.232L18.568 248.456L19.912 247.783L20.248 246.774L19.8 243.748L19.688 243.412L20.136 242.627L20.472 242.291L22.04 241.506L21.256 240.385L20.92 239.152L20.808 237.919L20.472 236.686L19.688 235.79L18.792 235.229L18.232 234.557L18.568 233.548L20.024 231.418L20.696 230.634L21.816 229.961L23.608 229.401L23.944 228.728L23.608 227.047L24.504 225.365L28.76 224.917L30.328 224.02L30.552 223.124L30.44 222.227L30.328 221.442V220.882L30.776 220.433L32.568 220.097L33.8 219.425L34.584 218.64L35.032 217.519V215.726L34.808 214.156L33.912 211.13L34.024 209.561L34.696 208.328L35.816 207.543L46.568 204.741L48.136 203.956L48.248 202.275L47.128 198.352L47.016 196.11L47.464 194.765L49.592 192.299L51.048 189.945L51.72 187.815L51.384 185.798L47.8 182.323L46.68 180.866V179.745L47.128 178.4L47.464 176.831L47.352 175.373L46.344 171.114L45.784 167.863L46.232 165.285L47.464 163.268L52.056 160.129L55.416 158.896L60.904 155.758H62.248L63.256 157.103L63.592 159.008L63.704 166.63L63.592 167.639L63.144 168.536L62.584 169.433L62.136 170.217L62.248 171.226L63.256 172.123L64.6 171.226L66.84 168.76L67.624 168.424L68.072 168.648L68.408 168.424L68.744 167.303L68.856 166.518L68.52 164.725L68.744 163.604L69.864 161.698L70.648 162.035L72.104 165.173L73.224 166.855L74.008 166.742L76.696 162.595L77.928 161.362L79.16 160.578L80.616 160.802L80.952 161.362L81.064 162.035L80.952 162.595L80.28 163.94L80.168 164.613L80.28 165.285L80.616 165.958L81.512 166.406L83.528 166.742L84.424 167.079L85.208 167.863L86.104 169.881L87 171.002L87.896 171.562L89.016 171.674L90.024 171.338L90.808 170.441L91.256 168.984L91.032 166.742L91.368 166.182H93.16L94.392 165.734L95.064 164.389V161.811L95.848 163.268L99.096 166.294L100.44 168.424L100.776 169.096V169.993V171.674L100.888 172.347L102.12 173.692L103.352 173.468L105.704 171.45L106.712 170.778L107.72 170.666L115.112 171.002L117.8 170.554L119.48 168.984L120.936 166.182L120.152 165.622L119.144 165.509L118.248 165.622L117.576 166.182L116.568 164.949L113.656 162.707L114.104 161.923L113.432 160.353L112.984 159.793L112.536 159.345H112.088L111.416 159.793L110.968 160.017L110.744 159.793L110.408 158.896L110.296 158.672L107.608 157.551L106.712 156.43L106.488 154.413L107.608 154.301L108.952 154.076L109.736 152.059L109.512 151.274L108.728 149.369L108.504 148.472L108.616 147.239L108.84 146.454L109.064 145.558L109.4 144.549L109.848 138.944L109.736 137.263L109.512 136.59L108.84 135.245L108.616 134.573L108.504 133.788V131.771L108.392 131.21L107.72 130.874L107.048 131.098L106.488 131.546L105.928 131.434L105.704 130.986L105.144 129.305L104.92 128.632L103.128 127.175L101.336 126.951L99.544 127.175L97.528 126.839L96.408 125.942L94.952 123.588L93.944 122.579L93.048 122.243L91.032 122.019L90.024 121.683L89.464 121.234L88.456 120.113L87.896 119.777L86.328 120.001L85.992 119.889L85.432 118.88L85.544 117.647L85.88 116.19L86.328 112.827L87 111.819L87.672 111.034L88.232 109.801L88.12 108.344L87.672 107.111L87 106.102L86.104 105.542L84.984 105.654L84.312 106.775L83.752 107.895L83.08 108.456L82.52 107.895L80.616 104.309L80.392 103.748L80.504 103.524L80.616 103.188L82.296 103.076L83.64 102.627L84.536 101.618L84.984 99.265L84.312 94.557L84.536 92.539L86.104 91.755L86.776 90.185V88.056L86.104 85.926L85.32 84.357L84.312 83.348L83.08 83.012L81.848 82.9L80.616 83.012L79.944 84.469L79.72 85.814L79.272 87.159L78.152 88.168L77.144 88.504L76.248 88.392L75.24 87.944L74.456 87.159L73.56 85.814L73.448 84.469L73.336 83.124L73.112 81.667L72.216 80.546L71.32 80.097L70.312 79.873L69.416 79.425L68.968 78.416L68.632 77.295L68.296 76.286L66.392 75.053L65.272 73.148L64.376 72.587L63.368 73.148L62.696 74.044L62.136 74.605L61.016 73.708L60.456 72.811L59.448 70.009L58.888 68.776L58.104 65.077L58.888 62.723L60.456 60.594L62.136 57.791L62.696 54.317V51.066L63.032 48.152L64.824 45.798L65.608 44.565L65.384 43.556L64.6 42.884L62.472 42.099L61.8 41.539V40.53L62.36 38.848L63.144 37.84L64.264 36.607L65.272 35.261L65.384 34.028L64.824 33.58L62.36 32.796L61.464 32.123L61.016 30.778L60.456 27.639L60.008 26.182L59.224 24.949L58.44 24.277L57.656 23.94L56.536 23.828L54.632 24.837L51.832 28.424L49.592 28.872L47.688 28.088L45.56 26.406L43.544 24.165L42.2 21.923L43.32 21.026L48.584 18.672L49.928 17.776L50.6 16.767L51.384 15.87L51.944 15.422L52.952 14.861L53.624 14.301L53.848 14.077L53.96 13.74L53.848 13.068L53.4 10.714V10.153V9.81699L53.624 9.48099L53.848 9.36899L55.64 8.58401L56.2 8.47198H56.536L57.208 8.69601L57.544 8.92001L58.104 9.36899L59.224 10.378L60.008 10.938L60.232 11.162L60.792 11.835L61.352 12.171L64.6 13.516L65.72 14.077L66.056 14.189L71.768 13.964L77.704 11.498H78.712L79.272 11.947L81.624 13.404L82.408 13.628L87.112 13.964L90.584 13.628L91.144 13.404L91.48 13.292L91.816 13.404L92.376 13.628H92.712L92.936 13.404L93.944 10.378L94.056 9.81699V9.36899L93.72 8.80801L92.488 7.12701L92.152 6.56699L92.04 6.34201L92.152 5.89401L92.376 5.55801L93.16 5.10901L93.72 5.22101L94.168 5.33401L94.728 5.22101L95.288 5.10901L98.872 3.09201L100.44 2.86801L101.448 2.41901H101.672L102.008 2.53101L102.344 2.64301L103.464 3.54001L104.584 4.99701L104.92 5.22101L105.144 5.33401H105.48L105.816 5.10901L106.152 4.77301L107.496 2.19501L107.944 1.63501L108.056 1.41L108.392 1.298L108.84 1.41L109.624 2.19501L109.96 2.53101H110.296L110.856 2.41901L111.64 1.85901L112.648 1.52301L113.656 3.54001L114.552 5.78201L115.784 7.57501L118.024 8.69601L131.016 9.36899ZM120.824 170.554L120.04 172.011L119.928 172.683L119.704 173.244L119.592 173.804L119.704 174.813L119.928 175.373L120.6 176.831L124.744 181.538L125.864 182.099L127.208 182.323L131.576 184.116L133.928 186.022L135.496 188.376L139.08 195.998L139.528 196.67L140.312 196.895L140.76 196.67L142.328 195.213L142.552 194.765L142.776 194.317L143.224 193.644L143.672 192.971L143.896 191.963V191.29L143.672 191.066L143.224 190.73L142.552 190.169L138.968 186.694L138.408 185.574L138.52 184.789L138.744 183.556V182.771L138.52 181.875L138.408 181.314L138.072 180.866L137.512 180.305L133.816 178.176L133.256 176.943V175.149L133.032 173.356L132.696 171.674L132.024 170.554L131.688 172.683L131.464 174.925L131.128 176.27L129.896 176.046L128.888 175.037L127.88 173.468L127.32 171.562L127.768 169.881L127.432 169.321L126.984 168.872L126.312 168.536H125.64L120.824 170.554Z" fill="#FFD700" stroke="#0057B8" stroke-width="2" stroke-linecap="round" stroke-linejoin="round"/>
</svg>
