<svg width="214" height="176" viewBox="0 0 214 176" fill="none" xmlns="http://www.w3.org/2000/svg">
<path d="M177.176 40.592L177.736 41.937V47.205L177.624 48.55L177.512 49.335L177.064 49.896L174.264 52.586L173.704 53.482L173.032 54.491V54.715L173.928 57.293L174.04 57.63L174.376 60.32L174.712 60.88L175.048 61.217L175.272 61.441L175.944 62.674L176.168 63.01L176.504 63.122L177.736 63.458L178.296 63.907L178.856 64.579L179.304 65.028L179.976 65.364L180.76 65.476H183.336L183.784 65.7L184.232 65.924L185.016 67.157L185.352 67.494L189.272 69.399L189.944 69.511L190.616 69.399L191.4 68.839L192.072 68.615L192.408 68.727L192.744 68.839L193.192 69.063L194.2 70.072L194.648 70.856L194.76 71.529L194.872 72.313L194.648 75.004V76.461L194.76 76.909L195.096 78.478L195.432 79.039L195.656 79.487L195.88 79.711L197.112 80.608L197.336 80.944L197.448 81.281L197.56 82.514L197.672 83.186L197.896 83.522L198.344 83.634L200.024 83.971L200.248 84.307L200.36 84.643V85.092L200.584 85.428L200.92 85.54L204.056 86.549L204.84 86.661H205.176L205.4 86.437L205.512 86.1L205.736 85.316L205.96 85.092L206.184 84.867L206.52 84.755H208.424L208.872 84.867L209.096 85.204L209.208 85.428L209.432 86.773V87.109L209.208 87.221L208.648 87.558L208.536 87.782L208.424 88.342L208.648 89.015L208.872 89.575L211.672 94.843L212.12 96.189L212.344 96.973L211.784 97.309L210.44 97.534H207.528L207.192 97.646L207.08 97.87L207.192 98.542L207.416 98.879L208.648 99.551L209.656 100.672L211 101.457L211.672 102.129L211.896 102.69L211.784 103.138L211.672 103.25L211.336 103.362L210.328 103.474L209.992 103.586L209.768 103.811L209.432 104.371L209.208 104.595H208.872L205.288 103.699L204.952 103.586L204.616 103.699L204.056 103.923L203.048 104.147L202.824 104.371L202.712 104.595L202.376 105.38L202.264 105.828V106.501L202.488 107.061L202.936 107.958L203.048 108.63L203.384 108.967L204.168 109.415L204.616 109.751L204.728 110.088V110.424L204.504 110.872V111.321L205.176 112.217L205.288 112.666L205.176 113.114L203.608 115.244L202.04 117.822L200.136 119.952L199.128 120.736L195.88 122.417L194.536 122.642L188.488 122.081L188.04 121.969L187.368 121.633L186.696 121.072L186.136 120.288L185.576 119.952L185.24 119.839L184.904 119.952L184.344 120.176L181.208 123.65L180.648 124.547L180.2 125.444L179.976 126.341V126.901V127.237L180.088 127.574L181.32 129.703L181.544 130.264L181.768 131.273L182.104 132.393L182.216 133.514L182.104 134.187L181.88 134.747L179.976 133.514L179.304 133.178L178.632 132.954H178.296L177.848 133.066L177.512 133.29L176.952 133.851L176.728 134.411L176.392 135.644L176.056 136.317L175.72 136.429L175.384 136.653L174.6 136.541L174.264 136.429L174.04 136.092L173.928 135.868L174.04 135.532L174.264 135.308L174.712 134.859L174.824 134.635V134.299L174.712 134.075L174.488 133.851L172.696 133.178H172.36L172.024 133.29L171.464 133.739L171.016 133.851L169.448 133.739L169.112 133.851L168.552 134.075L168.104 134.411L167.432 135.084L166.872 135.868L166.424 136.205L165.864 136.429L160.824 137.998L158.696 138.334L147.496 143.266L146.824 142.93H146.488L146.152 143.042L145.928 143.49V143.827L146.04 144.499L145.928 145.284L145.816 145.62L145.032 146.741L144.136 147.638L142.568 148.983L142.344 149.207L142.12 149.767L142.232 150.328L142.68 150.44H143.352L143.576 150.552L143.688 150.776V151.112L143.352 151.449L142.904 151.673H142.12L141 152.121L140.328 152.682L139.992 153.018L139.544 153.69L138.648 156.381L138.088 157.614L137.864 158.398L137.752 159.631V160.304L137.976 160.864L139.768 162.658L139.992 162.882L140.216 163.442L140.44 165.46L140.328 165.796L139.992 166.132L139.32 166.581L138.088 167.926L137.976 168.262L137.864 168.598V169.271L137.976 169.607L138.2 169.831L138.984 170.392L139.096 170.728L139.208 170.952L139.096 171.289L138.648 171.737L137.304 173.082L135.512 174.315L134.728 174.203L132.824 171.737L130.92 170.728L127.672 170.168L126.552 169.719L126.216 169.383L125.432 168.71L125.096 168.486H124.648L123.752 168.598L123.304 168.486L116.36 163.554L115.8 162.994L114.568 161.088L114.12 160.528L113.112 159.967L112.104 159.855L109.976 159.743L108.856 159.407L107.064 157.614L105.16 157.95L105.048 158.286L104.6 158.51L104.04 158.735L102.92 158.847L102.248 158.959L101.912 159.183L101.576 159.855L101.352 161.537L101.24 161.985L101.016 162.321L100.568 162.658H100.344L100.12 162.433V161.873L99.896 161.2L99.448 160.08L99.224 159.855L98.552 159.183L98.104 158.735L95.864 157.614H95.304L94.856 157.726L94.184 158.959L93.96 159.183L93.512 159.407L92.84 159.631L92.504 159.519L92.28 159.183L91.944 158.847L91.384 158.286L88.696 157.165L88.248 156.829L87.8 156.381L87.128 155.82L85.224 154.923L84.328 154.699H83.656L83.096 155.708L82.536 156.044H82.312L82.088 155.82L81.864 155.372L81.528 155.148L80.408 154.363L80.184 154.139L79.96 153.578L78.84 152.121L78.616 151.897L77.72 151.112L77.384 150.776L77.496 150.552L78.056 150.216L78.392 149.767L78.616 149.543V149.207V148.198V147.862L78.84 147.75L79.736 147.526L80.072 147.413L80.296 147.189L80.408 146.853L80.296 146.517L79.96 146.18L78.504 145.732L78.056 145.508L77.72 145.172L77.496 144.275L77.272 144.163L71.448 143.602L71 143.266L70.776 142.93L70.104 141.809L69.656 140.688L68.536 138.895L68.088 138.446L67.64 137.998L61.144 133.066L45.688 125.444L45.912 120.96V119.391L45.8 118.606L43.224 111.769L42.888 111.209L40.424 107.958L40.088 107.51L39.416 106.613L38.856 105.492L38.744 104.932V104.483L41.208 100.336L41.32 100.112L41.88 99.663L43.224 98.879L43.336 98.655L43.56 98.206L43.784 97.646L43.896 96.637V95.964V95.516L43.448 93.835L43 93.162L41.432 91.929L41.096 91.705L40.872 91.257L40.536 90.584L40.424 90.136L40.312 87.333L40.088 86.773L39.752 86.325L33.032 83.747L32.696 83.41L32.248 83.074L32.024 82.289L32.136 79.711V79.151L32.024 78.142L31.912 77.582L31.688 77.245L29.672 75.564L29.336 75.452L29.112 75.564L28.552 75.788L27.992 75.9L27.656 75.564L27.432 75.116L26.984 74.443L26.088 73.546L25.864 73.322L25.528 73.21H25.304L24.968 73.322L24.408 73.659H24.072H23.848L23.288 73.322L22.168 71.865L19.928 67.83L19.592 66.933L19.368 66.149L19.48 65.812L19.704 65.588L19.928 65.364L20.264 65.252L20.6 65.364L21.16 65.588H21.384L21.832 65.364L22.056 65.028L22.168 64.467L22.056 62.786V61.889L22.616 59.872V59.311L22.728 58.751L22.616 57.854L22.392 57.406L22.168 57.069L20.712 56.173L20.488 55.948L20.04 55.276L17.24 49.671L16.904 49.559H16.568L15.672 49.896H15.336H15L13.544 49.223L13.096 48.999L12.648 48.663L12.424 48.214L11.192 43.843L11.08 43.282L11.304 43.058L13.432 42.386L13.656 42.049L13.88 41.489L13.768 40.368L13.656 39.92L13.544 39.583L13.096 39.135L12.872 39.023H12.536L11.976 39.359L11.64 39.808L11.08 40.144L10.52 40.48H10.184L9.84802 40.256L8.72803 38.575L8.39203 38.35L7.71997 38.014L6.37598 37.79L6.03998 37.566L5.59198 37.117L5.36798 36.557L5.14398 35.884L5.03198 35.436L4.80798 35.1L4.58398 34.876L3.68799 33.755L3.35199 32.746L3.01599 32.073L2.67999 31.737H2.34399H1.784L1.112 31.625L2.79199 29.159L3.12799 28.374L3.01599 28.038L2.67999 27.478L2.56799 27.029L2.67999 26.805L2.90399 26.469L3.91199 25.012L5.47998 20.752H9.17603L9.51202 20.864L9.96002 21.313L10.296 21.425H10.632L11.192 21.201L11.864 20.752L12.536 19.968L13.768 17.838L14.216 17.39L14.664 16.941L18.584 15.148L20.152 15.036L20.6 15.148L20.824 15.372L21.384 16.045L21.832 16.605L22.056 16.717L22.392 16.605L24.296 15.26L24.744 15.148H25.64H26.088L26.424 15.26L26.76 15.708L26.984 16.381L27.208 17.39L27.432 17.95L27.768 18.51L27.992 18.847L29.448 19.295L35.72 19.519L38.184 19.071H38.744L39.08 19.295L39.304 19.856L39.64 19.968H41.88L47.144 17.053L48.152 16.829L50.392 16.605L50.952 16.381L51.288 16.157L51.624 15.82L51.96 14.924L52.296 13.915L52.632 13.466L52.968 13.018L54.424 12.121L55.432 11.785L55.768 11.561L56.104 11.225L56.44 10.104L56.776 9.65501L57.112 9.20702L57.896 8.75902L59.352 8.08601L60.248 6.96501L62.6 2.37001L64.952 3.71501L70.888 4.49901L71.56 4.38701L71.784 4.16301L72.12 3.49002L72.232 3.15402L72.68 2.70601L73.352 2.25801L75.032 1.69702L75.928 1.58502L76.488 1.69702L76.712 1.92102L77.272 2.37001L77.832 2.70601L79.512 3.49002L79.96 3.71501L98.776 7.63802L103.48 9.76802L104.152 9.88002H104.6L105.16 9.09502L106.952 8.64702L109.528 8.53502L110.424 8.19801L110.984 7.86201V7.52602L110.76 7.30202L108.856 6.18102L108.744 5.73201L108.856 5.39601L109.192 4.94801L112.44 3.49002L114.568 2.93001L115.128 3.04202L115.464 3.15402L116.136 4.27501L117.032 5.17201L119.048 6.85301L123.752 8.98302H124.2L124.536 8.87102L124.648 8.53502L124.536 7.52602L124.648 7.18901L124.872 6.96501L125.208 6.62901L125.768 6.40501L126.216 6.51701L127.56 6.85301L127.896 6.74101L128.12 6.51701V6.06902L128.008 5.39601L128.12 5.06001L128.344 4.83601L129.688 4.49901L130.136 4.38701L130.472 4.05101L131.032 3.71501L132.376 3.49002L132.936 3.15402L133.272 2.81801L133.384 2.37001L133.608 2.03302H134.056L136.072 2.81801L136.296 3.04202L136.52 3.26602V3.60301L136.296 5.62001L136.408 10.552V11.225L136.632 11.785L136.856 12.458L138.312 14.475L140.44 16.941L143.128 19.295L143.576 19.743L143.912 20.304L144.136 20.864L144.248 21.537L144.136 22.209L143.576 23.218L143.352 24.003L143.24 24.675L143.464 27.253L143.576 27.926L143.688 28.262L144.024 28.711L144.472 29.159L144.808 29.271L145.032 29.159L145.48 28.486L145.816 28.262L146.488 28.038L146.936 28.15L147.272 28.374L147.608 28.935V29.271L147.72 29.944V30.28L147.944 30.616L148.504 31.177L148.728 31.513V31.849L148.952 32.297L149.288 32.858L151.528 34.539L151.976 34.988L152.2 35.548L152.312 36.221V37.005L152.088 37.79L151.64 38.35L151.08 38.575L149.736 38.799L149.512 38.911L149.288 39.247L149.176 40.48V40.928L149.288 41.489L149.848 42.161L150.072 42.498V42.946V43.731L150.184 44.291H150.52H150.744L151.64 43.506L151.976 43.282L153.096 42.834L154.104 42.722L160.152 43.619L162.392 43.506L162.616 43.394L163.064 42.946L163.288 42.61L163.512 41.937L163.624 41.04L163.848 40.704L164.072 40.368L164.52 40.144H164.856L165.304 40.368L166.2 41.153L166.648 41.377H166.984L168.104 40.816L169.672 39.471L171.352 39.247L177.176 40.592Z" fill="#FFD700" stroke="#0057B8" stroke-width="2" stroke-linecap="round" stroke-linejoin="round"/>
</svg>
