<svg width="167" height="192" viewBox="0 0 167 192" fill="none" xmlns="http://www.w3.org/2000/svg">
<path d="M163.056 45.4383L161.04 45.7746L159.584 46.5592L158.912 46.7834L158.352 47.1197L158.128 47.2318L157.904 47.9043L157.68 48.801L157.456 50.7065L157.568 51.4912L157.68 52.0516L158.688 53.0604L159.024 53.6209L159.248 54.1813V54.6297L159.136 54.966L159.024 55.3022H158.576H158.24L158.016 55.078L155.552 52.9483L155.104 52.3879L154.768 51.3791L154.432 50.8186L153.984 50.3703L153.76 50.2582L153.424 50.1461L153.088 50.2582L152.976 50.4824L152.752 51.267L152.08 55.6385V56.871L152.192 57.768L153.2 58.665L153.536 59.225V59.674L153.424 60.234L152.976 61.131L152.64 61.915L151.968 62.588L151.408 62.924L147.936 63.709L147.712 63.933L147.6 64.157L147.712 64.606L149.728 68.865L149.84 69.313L149.952 69.874V70.322L149.84 70.883L149.616 71.555L149.168 72.676L148.832 73.124L148.496 73.461L147.04 74.357L146.816 74.582L146.48 75.142L145.696 77.608L145.36 78.168L145.136 78.617L144.688 79.065L144.128 79.738L144.016 80.074L143.904 80.634L143.792 81.307L143.68 83.549L143.456 84.221L143.12 85.006L142.56 85.791L141.888 86.463L141.664 86.687L141.44 87.136L140.656 88.929L140.32 89.49L140.096 89.826L138.64 90.498L136.176 91.059L135.616 91.395L135.392 91.619L135.168 92.068L134.608 94.085L134.16 94.534L134.048 94.982L134.496 95.879L135.168 97.112L135.28 97.56V98.12L135.392 99.017L135.616 99.465L135.84 99.802L136.288 100.25L136.4 100.586L136.512 100.923L136.176 101.483L135.952 101.819L135.28 102.044L135.168 102.38L135.392 102.94L135.616 103.277L136.4 104.285L136.624 104.958L136.736 105.63L136.624 106.639L135.728 111.347L135.616 111.907V112.58L135.728 113.701L135.84 114.261L136.176 115.046L136.736 116.167L137.968 118.072L138.416 118.969L138.64 119.978L138.528 120.65L138.304 121.659L136.848 125.358L136.4 126.255L135.168 127.824L134.944 128.273L134.272 130.066L133.936 131.075L133.712 131.635V132.084L134.048 132.868L134.272 133.317L134.608 133.541L135.84 134.213L136.288 134.662L136.4 135.11L135.952 136.567L133.712 139.145L130.688 138.473L130.352 138.136L130.016 137.8V136.903V136.455L129.904 135.895L129.568 135.11L129.232 134.886L128.784 134.662H127.888L127.44 134.886L126.992 135.334L126.768 136.007L126.432 137.128L126.32 137.464L125.76 137.8L124.416 138.136L123.184 138.697L122.736 139.033L121.728 139.93L121.28 140.49L120.944 140.827L120.384 141.275L119.824 141.499H119.376L118.592 141.275L117.36 140.602L116.128 140.042H115.68L115.344 140.154L114.112 141.275L109.856 143.068L109.52 143.517L109.296 144.189V144.974L109.408 146.095V146.543L109.184 146.879L108.848 147.104L108.512 147.216L108.176 147.104L106.72 146.543L106.048 146.431L105.712 146.543L105.488 146.879L105.376 147.328V148.112L105.152 148.673L104.928 149.121L104.256 149.682L103.92 150.13L103.696 150.578V150.915L103.36 151.587L102.8 152.26L100.112 154.389L100 154.726V155.062V155.734L99.888 156.295L99.664 156.855L99.328 157.192L96.416 159.321L96.08 159.77L95.52 160.666L95.072 161.675L94.736 162.124L94.176 162.572L91.936 164.253L91.712 164.477L91.04 165.598L90.592 166.047L89.584 167.168L89.024 167.504L88.576 167.616L87.12 167.84L86.672 167.728L85.888 167.504H85.328L84.544 167.616L83.984 167.84L83.536 168.064L82.64 168.961L82.192 169.409L79.616 173.445L78.608 174.678L77.264 175.574L74.24 177.031L74.016 174.117L73.904 173.669L73.456 173.22L73.008 172.884L72.448 172.436L72.336 171.987V171.427L72.448 170.754L72.784 170.082L73.008 169.409L73.68 168.625L73.904 168.288L74.128 167.616L74.016 167.168L73.904 166.831L73.568 166.383L73.232 166.271L73.008 166.383L72.336 167.168L71.888 167.504L70.096 168.288H69.76H69.312L68.864 168.176L64.944 166.271L64.16 166.047H63.488L62.816 166.271L61.136 167.168H60.576L59.68 166.943L57.888 166.271L57.104 166.159L56.544 166.047L54.976 167.28L49.264 173.557L48.816 173.893L47.92 174.341L40.752 175.014L39.632 175.238L39.072 175.574L38.176 176.471L37.84 176.807L37.168 177.144H36.832L36.496 177.031L36.048 176.359L35.712 176.135H35.376L35.152 176.247L33.808 177.592L33.472 177.816L32.912 178.152L32.576 178.04L31.568 177.368L30 176.919L28.656 176.359L27.088 175.911L26.416 175.798L25.856 176.023L25.632 176.583L25.296 178.152L25.184 178.937L25.296 179.61L25.744 180.058L26.416 180.73L26.64 180.955L26.752 181.179V181.515L26.304 182.412L26.192 182.748L25.968 183.196L25.632 183.645L23.84 184.766L23.616 184.99L23.392 185.774L23.504 186.895V187.232V188.128L23.28 189.025H23.056L22.608 188.577L22.272 188.352L21.376 188.128L21.04 188.24L20.816 188.577L20.704 189.025L20.592 190.482L16.112 187.68L10.288 182.524L9.728 181.739L9.28 179.385L9.168 178.152L9.28 176.471L9.728 174.117V173.669L9.504 173.108L8.272 171.763L8.048 171.091V170.642L8.16 170.418L9.952 168.625L10.4 168.064L10.624 167.504L10.736 166.943L10.624 166.159L10.4 164.926L10.176 164.253L9.952 163.805L9.392 163.469L8.72 163.244L8.272 163.132L7.936 163.244L7.26401 163.357L5.584 164.365L5.024 164.59L4.24001 164.702L3.008 164.59L2.112 164.141L1.664 163.132L5.36 159.658L6.70399 158.088L7.37601 156.967L7.936 156.631L8.496 156.407L9.056 156.295L9.84 155.847L10.288 155.286L10.4 154.838V154.389L10.288 154.053L10.176 153.717L9.84 153.605L8.72 153.381L8.384 153.268L8.16 153.044L6.592 150.242L6.032 149.457L5.136 148.561L4.01601 147.888L3.79201 147.552L3.56799 147.328L3.45599 146.879L3.56799 146.543L3.79201 146.431H4.12801L5.36 146.543H5.696L6.032 146.431L6.256 146.319L6.70399 145.871L7.15199 145.198L8.16 143.292L8.272 143.068L8.16 142.844L7.48801 142.172L5.696 140.827L5.472 140.49L5.136 140.042L5.248 139.594L5.36 139.257L6.032 138.361L6.368 138.136L6.70399 138.024H6.92799L9.84 138.809L14.544 139.257L15.104 139.145L15.552 138.921L16.224 138.361L16.56 137.912L16.672 137.352V137.015V136.231V135.783L16.336 134.886L15.552 133.429L15.44 132.98L15.552 132.308L15.776 132.084L16.112 131.859L20.48 132.532L20.928 132.42L21.488 132.196L21.6 131.971L21.488 131.635L21.264 131.411L19.92 130.514L19.696 130.29L19.584 129.842L19.696 129.169L20.144 128.497L20.368 128.048V127.6L20.032 126.591V126.255V125.807L20.368 125.694L20.48 125.807L21.488 126.703L22.272 127.152L23.504 127.712L25.072 128.048H25.632L26.192 127.824L28.096 126.703L30.224 125.919L32.576 124.574L33.92 123.565L35.152 122.892H38.4L39.184 123.116L39.52 123.228L40.416 124.125L41.648 125.582L41.872 125.919V126.255L41.76 126.815L41.984 127.04L42.208 127.264L44.672 127.6L45.344 127.936L45.792 128.385L47.136 129.73L47.584 130.178L48.032 130.29L48.48 130.402L49.04 130.29L49.376 130.178L49.6 129.842L50.16 126.591L50.384 126.255L50.72 125.47L51.168 125.022L51.616 124.237L51.728 123.565V122.78V121.995L51.392 120.09L51.616 115.606L51.728 115.27L52.064 114.485L52.4 114.149L52.736 113.925L52.96 113.813L55.76 111.571L56.208 111.235L56.544 111.123H57.328L58.448 111.459L59.008 111.347L59.344 111.235L59.568 111.011L60.016 110.338V110.114L59.792 109.666L59.456 109.441L58 108.657L57.776 108.545L57.664 108.096L57.888 107.424L58.672 106.191L60.24 104.734L60.464 104.397L60.688 103.613V102.828L60.576 102.492L60.464 102.268L60.128 101.931L59.904 101.595L59.68 101.259L58.672 100.474L58.448 100.25L58.224 99.914V99.465L58.448 98.793L58.784 98.457L59.12 98.12L63.488 97.56L64.048 97.336L64.496 97.112L65.392 96.439L65.616 95.991L65.728 95.542L65.616 94.87L65.504 93.637L65.28 92.964L64.72 92.18V91.843L64.608 91.059L64.384 90.498L63.376 88.705L62.368 87.584L61.808 87.136L61.248 86.799L60.576 86.911L59.904 87.024L59.792 87.136L59.12 87.696L58.896 87.808H58.56L56.992 87.136L56.656 86.911L56.432 86.687V86.127L56.768 83.437L56.88 82.876L57.104 82.652L61.472 81.755L62.032 81.307L62.704 80.634L63.264 79.626L63.6 78.953V78.393L63.712 77.272V76.823L63.488 76.151L63.264 75.927L60.128 72.788L55.424 70.434L54.976 69.874L54.64 69.313L53.408 67.856L51.616 66.399L51.168 65.951L51.056 65.614V65.278L50.944 64.494L50.72 63.933L50.384 63.597L49.264 63.036L48.592 62.7L48.256 62.14L47.92 61.579L47.808 61.243L47.92 60.458L48.144 59.45L48.704 57.208V56.311L48.592 56.087L48.368 56.199L47.472 57.096L46.912 57.32L46.464 57.432H45.68L45.344 57.32L44.672 56.984L44.336 56.423L44.112 55.8627L43.888 55.6385H43.552L43.328 55.7506L43.104 55.9748L42.88 56.311L42.432 57.096L42.208 57.432L41.76 57.88L41.536 58.104L41.2 58.217H40.864H40.528L39.184 57.656L38.4 57.544L37.616 57.656L36.944 57.768L36.272 57.992L35.488 58.553L35.264 58.777L34.928 59.45L34.592 60.458L34.368 60.795L34.144 61.019L33.92 61.131L33.36 61.019L33.136 60.907L32.688 60.346L32.352 59.786L32.24 59.45L32.128 58.665L32.576 54.966V54.6297L32.464 53.3967V52.6121L32.576 51.267L32.8 49.5856L32.912 48.6889V48.3527L32.8 47.568L32.128 44.8779L31.904 43.9812V43.5328L32.016 41.9636L32.128 41.4031L32.24 40.9548L32.576 40.3943L33.024 39.946L34.144 38.9371L34.48 38.4888L35.04 37.48L35.152 36.8074V36.3591L34.816 35.6865L34.368 35.3503L33.248 35.014L32.912 34.7898L32.8 34.5656L32.576 33.4448L32.352 33.2206L32.128 33.3327L31.456 33.4448H31.008L30.224 33.3327L29.664 32.9964L29.328 32.436L29.216 31.6513V30.4183L29.104 28.4007V26.7194L29.44 24.7018L29.552 23.693L29.776 23.0204L30.224 22.0116L33.248 17.6401L35.488 15.7346L35.936 15.2863L36.72 14.0533L37.392 12.8203L37.504 12.2598L37.616 11.8115V11.3631L37.504 10.6906L37.056 9.6818L36.944 9.1213L36.832 8.4488V7.77629L36.944 7.2158L37.056 6.8795L37.28 6.5433L37.728 6.207L38.624 5.6466L38.848 5.4224L38.736 5.1982L38.4 5.0861L32.8 4.7498L32.016 4.30149L31.68 2.508L40.192 2.62009L45.344 1.6113L58.672 4.0773L62.928 3.96519L64.832 4.4136L68.752 8.0004L70.656 8.7851L85.104 9.3455L85.776 9.7939V10.4664L85.664 11.3631L85.776 12.3719L86.56 13.4928L87.456 13.9412L101.12 14.3895L112.768 19.5457L116.912 20.2182L123.184 18.0885L128.56 18.2006L131.136 18.8731L132.816 19.7698L133.264 21.3391L133.04 23.4688V26.1589L133.488 28.1765L134.384 28.9612L135.616 29.1854L137.184 28.9612L138.976 29.4095L138.864 31.0909L137.856 33.3327L137.52 35.014L138.416 35.7986L139.76 35.5745L142.224 34.7898L145.92 35.4624L147.152 35.3503L148.496 34.6777L150.288 32.7722L151.408 32.0997L153.536 32.2118L160.256 34.9019L163.728 35.014L164.736 35.5745L165.52 37.7042L165.072 40.1701L162.944 45.2142L163.056 45.4383Z" fill="#FFD700" stroke="#0057B8" stroke-width="2" stroke-linecap="round" stroke-linejoin="round"/>
</svg>
