<svg width="173" height="227" viewBox="0 0 173 227" fill="none" xmlns="http://www.w3.org/2000/svg">
<path d="M171.784 202.313L171.672 202.873L171.448 203.658L171.112 204.33L170.888 204.555L170.44 204.667L169.88 204.779L168.872 204.891L167.752 204.667L165.736 204.106L165.288 204.218L164.616 204.33L163.72 204.779L161.816 205.003L159.912 204.555L159.576 204.779V205.227L159.688 205.451L160.136 206.012L160.36 206.236L160.248 206.46L160.024 206.572L159.464 206.46L155.208 203.77L154.536 203.434L154.2 203.322H153.864L153.528 203.546L153.192 203.77L153.08 204.33V204.779V206.236V206.684L152.968 207.021L152.744 207.245L152.408 207.357H151.96L151.512 207.133L150.056 206.236L149.72 206.124L149.272 206.236L148.712 206.46L147.928 207.245L147.816 207.693V208.029L148.152 208.478V208.702L148.04 208.926L147.704 209.15H147.368L145.464 208.702L145.24 208.814L144.904 209.038L144.456 209.711L144.344 210.047L144.232 210.495L144.568 211.392L144.68 212.065L144.568 212.401L144.344 212.625L143.784 212.849L141.656 213.298L140.872 213.186L140.424 213.073L140.088 212.849L138.856 212.177L138.072 212.065L137.288 211.953L136.728 212.177L136.28 212.513L135.608 213.41L135.272 213.97L135.048 214.419L134.824 215.315L134.6 215.539L134.376 215.652L133.928 215.539L133.032 214.867L132.584 214.979L132.024 215.427L131.128 216.548L131.016 217.109V217.557L131.128 218.117L130.904 218.79L130.68 219.126L130.344 219.238L129.784 219.014L129.112 218.678L128.328 218.005L127.88 217.557L127.544 217.109H127.32L126.984 217.333L126.424 218.678L126.2 219.575L125.416 220.359L123.176 221.592L117.352 220.247L115.672 220.471L114.104 221.816L112.984 222.377H112.648L112.2 222.153L111.304 221.368L110.856 221.144H110.52L110.072 221.368L109.848 221.704L109.624 222.041L109.512 222.937L109.288 223.61L109.064 223.946L108.616 224.394L108.392 224.507L106.152 224.619L100.104 223.722L99.096 223.834L97.976 224.282L97.64 224.507L96.744 225.291H96.52H96.184L96.072 224.731V223.946V223.498L95.848 223.162L95.288 222.489L95.176 221.929V221.48L95.288 220.247L95.512 219.911L95.736 219.799L97.08 219.575L97.64 219.35L98.088 218.79L98.312 218.005V217.221L98.2 216.548L97.976 215.988L97.528 215.539L95.288 213.858L94.952 213.298L94.728 212.849V212.513L94.504 212.177L93.944 211.616L93.72 211.28V210.944L93.608 210.271V209.935L93.272 209.374L92.936 209.15L92.488 209.038L91.816 209.262L91.48 209.487L91.032 210.159L90.808 210.271L90.472 210.159L90.024 209.711L89.688 209.262L89.576 208.926L89.464 208.254L89.24 205.676L89.352 205.003L89.576 204.218L90.136 203.21L90.248 202.537L90.136 201.864L89.912 201.304L89.576 200.744L89.128 200.295L86.44 197.941L84.312 195.475L82.856 193.458L82.632 192.785L82.408 192.225V191.552L82.296 186.62L82.52 184.603V184.266L82.296 184.042L82.072 183.818L80.056 183.033H79.608L79.384 183.37L79.272 183.818L78.936 184.154L78.376 184.491L77.032 184.715L76.472 185.051L76.136 185.387L75.688 185.499L74.344 185.836L74.12 186.06L74.008 186.396L74.12 187.069V187.517L73.896 187.741L73.56 187.853L72.216 187.517L71.768 187.405L71.208 187.629L70.872 187.965L70.648 188.19L70.536 188.526L70.648 189.535L70.536 189.871L70.2 189.983H69.752L65.048 187.853L63.032 186.172L62.136 185.275L61.464 184.154L61.128 184.042L60.568 183.93L58.44 184.491L55.192 185.948L54.856 186.396L54.744 186.732L54.856 187.181L56.76 188.302L56.984 188.526V188.862L56.424 189.198L55.528 189.535L52.952 189.647L51.16 190.095L50.6 190.88H50.152L49.48 190.768L44.776 188.638L25.96 184.715L25.512 184.491L23.832 183.706L23.272 183.37L22.712 182.921L22.488 182.697L21.928 182.585L21.032 182.697L19.352 183.258L18.68 183.706L18.232 184.154L18.12 184.491L17.784 185.163L17.56 185.387L16.888 185.499L10.952 184.715L8.59998 183.37L10.728 177.205L11.288 174.963L11.4 173.73V173.282L11.176 172.161L11.064 171.488L11.176 171.152L11.4 170.816L12.072 170.479L12.52 170.031L12.632 169.583L12.744 169.246V167.677L12.968 166.668L13.192 165.996L13.528 165.547L13.976 165.211L14.536 164.763L14.984 164.09L15.208 163.418V162.745L14.984 162.297L14.648 162.073L14.2 161.849L13.416 161.176L12.744 160.503L12.632 160.055L12.408 159.27V158.262V156.468L12.52 155.459L13.976 149.855L14.2 149.295L14.424 148.958L14.648 148.846L14.984 148.622L15.432 148.398L15.992 147.501L16.104 146.829L16.216 146.268V145.147V142.905L16.44 141.897L16.328 141.336L16.104 141L14.872 139.879L14.648 139.543L14.424 139.094V138.31L14.536 138.086L15.544 136.965L16.216 136.292L17.112 134.499L17.672 133.378L17.56 132.929L17.336 132.705L16.664 132.369L15.88 132.145H15.544L15.32 132.369L14.088 135.171L13.864 135.395L13.64 135.62H13.304L10.056 134.947L8.71198 134.275L8.15198 133.826L7.59198 133.266L7.47998 132.929L7.59198 132.593L8.48798 132.033L8.82397 131.584L8.93597 131.136L8.82397 130.8L8.71198 130.576L8.48798 130.351H8.15198L6.91998 130.688L6.13599 130.576L3.784 129.455L1.43201 128.782L1.09601 128.446L1.20801 127.885L2.664 125.307L2.776 124.971L3 124.299L2.888 123.85L2.776 123.29L2.44 122.393V121.048L2.552 120.487L2.776 120.151L6.02399 119.03L6.58398 118.47L6.69598 117.797L6.80798 117.125L6.69598 116.004V115.443L6.91998 114.995L8.59998 114.098L8.93597 113.874L9.15997 113.426L9.27197 113.09L9.15997 112.753L8.82397 111.52V110.96L9.04797 110.624L9.38397 109.839V109.615L9.15997 109.279L8.37598 108.606L8.15198 108.27L7.92798 107.709V107.149L8.03998 106.588L8.26398 105.692V105.243V104.795L8.03998 104.571L7.81598 104.347L7.59198 104.235H6.80798H6.47198L6.24799 104.01L6.02399 103.562L5.79999 102.889L5.23999 101.769L4.90399 101.208V100.648V100.311L5.35199 99.4147L5.79999 98.8542L6.13599 98.7421L6.80798 98.9663L7.03198 99.1905L7.25598 99.5268L7.70398 100.76L8.03998 101.32L8.26398 101.544L9.04797 101.769H9.83197L11.064 101.544L11.736 101.208L11.96 100.984L12.184 100.648L12.408 100.087V98.9663L12.296 98.1817V97.6212L12.408 97.1729L12.856 96.5003V96.052L12.408 95.6036L12.072 95.1553L11.848 94.4827L11.512 92.9135L11.624 92.1288L11.736 91.6805L12.296 91.3442L12.632 91.12L12.968 90.5596V90.1112V89.6629L12.408 87.6453V87.4211H12.632L14.536 88.4299L15.096 88.6541L15.32 88.542L16.216 87.309L16.44 86.8606L16.216 86.3002L15.992 86.076L14.76 84.9551L14.424 84.5068L14.312 83.8342L14.2 82.6012L14.312 82.0408L14.648 81.7045L15.656 81.3682L15.992 81.1441L16.104 80.8078V80.5836L15.88 80.2473L15.432 79.799L15.096 79.5748L14.872 79.1264L14.648 75.0912L14.536 74.6429L14.312 74.3066L13.976 74.1945L13.64 73.9703L13.416 73.6341L13.192 72.7373L13.304 71.6164L14.312 70.2714V69.1505L10.952 65.7878L10.504 65.1153L10.056 64.3306L9.38397 62.0888L9.04797 61.3042L8.71198 59.1745L9.27197 56.8206L10.392 54.9151L11.176 54.1305L12.408 53.3459L12.968 51.7766L13.64 50.4315L15.208 49.9832V49.1985L14.76 47.9656L15.992 47.6293L18.792 47.8535L19.464 47.4051L21.704 45.4996L22.6 45.1633L24.056 44.9391L27.528 43.7062L28.2 42.5853L28.088 41.4644L27.08 39.783L26.744 39.5588V39.3347L27.528 38.4379L27.864 37.8775L27.976 37.3171V36.8687V33.6181L28.088 32.9456L28.312 32.6093L28.648 32.4972H28.872L29.208 32.9456L29.544 33.6181L29.768 33.7302L30.104 33.8423L30.888 33.9544L32.344 33.7302L33.688 33.3939L34.024 33.1697L34.36 32.7214L34.808 31.6005L34.92 31.04L35.032 30.4796V30.0312L34.92 29.8071L34.584 29.695L32.68 29.4708L32.344 29.3587L32.12 29.1345L31.784 28.2378L31.56 28.0136L30.888 27.229L29.768 25.6597L28.312 24.2026L27.976 23.9784L25.288 23.0817L25.064 22.8575L24.84 21.9608L24.504 17.1409L24.84 15.908L26.52 14.2266L27.08 13.2178L27.304 12.5453L27.416 10.6397L27.528 9.85511L27.864 9.18258L28.648 7.94959L28.76 7.27705L28.984 5.7078L29.432 4.02646L29.656 3.46601L29.88 3.69019L30.776 4.13855L31.896 4.02646L32.792 3.35392L33.688 2.68138L34.584 2.12094L35.816 3.80228L35.368 7.72541L36.488 9.29467L37.832 9.18258L42.088 4.92317L47.464 2.34512L50.264 1.78467L53.176 1.89676L54.632 2.45721L55.416 3.46601L55.864 4.81109L56.872 6.60452L58.104 7.8375L60.68 9.40676L61.8 11.0881L63.368 14.5629L64.264 15.6838L68.184 18.3739L69.192 19.4948L70.312 21.1762L70.872 22.2971L71.208 23.3059L71.432 24.3147V25.4356L70.312 27.6773V28.2378L70.536 29.9191L70.76 33.2818L71.096 35.1873L71.768 36.9808L73.112 39.1105L73.336 40.9039L72.776 42.3611V43.2578H75.912L77.144 44.1545L79.496 47.1809L79.832 47.5172L80.616 48.0776L80.952 48.526L81.176 48.9744L81.4 50.3194V50.6557L82.072 50.8799L83.304 50.3194H83.976L85.096 51.1041L87.112 53.4579L88.344 54.2426L90.696 56.7085L92.376 60.7438L92.488 64.8911L90.136 67.6933L89.016 67.9175H85.32L74.792 70.4956L72.328 71.8406L71.768 74.1945L72.44 75.2033L74.68 75.8759L75.464 76.4363L75.8 77.1088L76.024 79.2385L76.36 80.1353L76.808 80.9199L79.384 83.9463L80.168 85.2914L80.728 87.0848L80.84 89.2145L80.728 90.2233L80.168 92.0167L79.944 93.0256L80.056 94.0344L80.28 94.9311L80.504 95.7157L80.28 96.7245L79.832 97.285L78.376 97.6212L78.152 98.1817L78.376 99.0784L78.936 99.863L80.168 101.096L81.176 101.656L82.184 102.105L83.192 102.329H84.2L85.432 101.656L85.992 105.019L84.424 108.27L81.96 110.96L78.376 113.426L82.856 115.443L84.312 115.668L85.432 115.219L87.672 113.202L89.912 112.641L92.152 113.09L96.632 114.659L98.648 115.443L102.68 114.659L104.584 114.995L105.48 115.892L105.816 117.237L106.04 118.806L106.712 120.263L107.608 121.16L108.728 121.496L113.208 121.833L117.576 120.824L122.616 118.694L125.528 116.901L126.424 116.789L127.656 117.349L128.776 118.134L130.008 117.909L131.24 117.349L132.472 117.125L133.704 117.573L134.488 118.582L134.936 120.039L136.504 129.118L137.736 132.369L139.528 134.05L141.656 134.275L145.8 133.266L147.928 133.378L149.16 133.826L150.28 134.499L150.84 135.62L150.392 137.301L149.496 138.086L146.136 138.87L146.36 139.879V142.569L146.472 143.578L147.032 144.25L148.488 144.587L149.272 145.147L150.056 146.38V147.501L149.944 148.734L150.056 150.303L150.504 151.536L151.736 153.218L152.296 154.451L152.408 155.908L152.184 157.029L152.296 158.037L153.192 158.934L154.76 159.831L155.432 160.503L155.992 161.512L156.552 164.202L156.328 166.668L156.44 168.798L157.896 170.704L153.08 172.833L152.184 174.066L152.296 175.299L155.208 187.069L156.552 189.535L158.568 190.431L159.912 190.656L161.256 191.104L162.376 192.001L163.272 193.682L163.72 195.924L163.832 197.717L164.168 199.174L165.512 200.744L166.744 201.64L167.976 202.313L169.32 202.649L170.552 202.761L171.784 202.313Z" fill="#FFD700" stroke="#0057B8" stroke-width="2" stroke-linecap="round" stroke-linejoin="round"/>
</svg>
