<svg width="107" height="170" viewBox="0 0 107 170" fill="none" xmlns="http://www.w3.org/2000/svg">
<path d="M96.24 12.032L94.896 12.704L94.56 13.04L94.784 13.265L95.12 13.377L97.248 14.049L97.808 14.386L98.256 14.834L98.592 15.394L98.704 15.731V16.179L98.48 16.964L98.256 17.412L97.92 17.636L97.248 17.748L94.896 17.972L94.672 18.084L94.56 18.421L94.448 18.757L94.672 19.093L95.12 19.654L95.904 20.326L96.128 20.55V20.999L95.904 22.12L95.568 22.792L95.344 23.016L94.224 23.689L94 23.801L93.888 24.137L94 24.474L94.336 24.922L94.672 25.146L95.12 25.37H95.904L96.24 25.594L96.352 26.043L96.24 26.827L96.128 27.276L95.904 27.612L92.32 28.733L91.872 29.181L91.424 29.63L91.088 30.078L91.2 30.863L91.76 32.432L91.984 33.441L92.096 34.225L91.872 34.898L91.424 36.019V36.467L91.536 36.916L91.872 37.588L92.208 37.924L92.992 38.597L93.44 39.045L93.776 39.606V40.166V40.727L93.664 41.847L93.44 42.968L93.328 43.417V43.865L93.664 44.65L94.112 45.434L95.568 46.555L95.904 47.116L96.128 47.676L96.24 48.012L96.352 48.685V49.582L96.24 51.487L96.128 52.272L95.904 52.832L95.232 53.505L94.784 54.065L94.56 54.626L94.448 54.962V55.41L94.56 55.971L94.896 56.643L95.344 57.316L97.024 58.773L97.472 59.221V59.67V60.23L97.248 61.015L97.024 61.463L96.8 61.799L96.128 62.472L95.68 62.92L95.456 63.593L95.344 64.377L95.12 66.843L94.896 67.964L94.672 68.301L94.336 68.861L92.656 69.758L92.208 70.094L91.984 70.542L91.088 72.672L90.976 73.233V73.681L91.088 74.241L91.424 75.362L92.544 77.716L93.104 79.397L93.664 81.976L93.888 82.536L94.112 82.872L95.68 83.993L95.904 84.217L96.016 84.554V85.114V86.123L96.128 87.02L96.576 88.813V89.373V89.822L96.352 90.943L96.24 91.503L96.352 91.952L96.576 92.624L97.024 93.409L97.696 94.417L97.808 94.754V95.202L97.584 95.875L97.248 96.659L97.136 97.108V97.668V98.677L97.024 99.125L96.8 99.461L95.904 99.798L95.344 100.022L94.896 100.47L94.672 100.807L94.56 101.143L94.448 101.591V102.376V103.273L94.112 104.73V105.29V105.739L94.448 106.523L94.672 106.859L95.344 107.644L95.456 107.98L95.568 108.317L95.456 108.765L95.008 109.774V110.222L94.896 111.007V111.455L95.008 112.016L96.016 114.145L96.128 114.818V115.266L95.904 115.939L95.792 116.387L95.456 116.723L94.896 117.284L94.448 117.844L94.112 118.405V118.853L94.224 119.526L94.672 120.534L95.344 121.655L95.456 122.216V122.328L95.12 123L94.336 123.224L94.112 123.449V123.785L94.448 124.57L94.56 125.13L94.448 125.578L94.224 125.803L93.664 126.139L93.44 126.363L93.552 126.811L94 127.596L94.224 127.932L94.336 128.493V129.277L94.224 129.838L93.776 130.847V131.183V131.519L93.888 131.743H94.336L95.232 131.519L95.456 131.743L95.568 132.08V132.528L95.344 133.761L95.12 136.787V137.236L95.232 137.684L96.128 139.029L96.576 139.477L97.808 139.926L98.144 140.15V140.374L98.032 140.71L97.696 140.935L97.024 141.047L96.8 141.159L96.688 141.383L96.576 142.056L96.128 142.84L95.904 143.176L96.016 143.513L96.128 143.961L96.912 144.858L97.248 145.306L97.36 145.642L97.248 146.203L97.024 146.875L96.912 147.548V149.453L96.8 150.238L96.464 151.247L96.352 152.032L96.464 152.48L96.8 153.04L97.584 153.713L98.032 153.937L98.592 154.049L98.928 154.161L99.264 154.273L99.376 154.497L99.264 155.394V155.73L99.488 156.179L100.048 156.515L100.384 156.627L100.608 156.403L101.056 155.955L101.168 155.843L101.392 155.955V156.963L101.28 157.524L100.832 158.421L100.72 158.757V159.093L100.832 159.542L101.28 159.99L101.728 160.214L102.96 160.999L103.296 161.223L103.856 161.783L104.64 162.232L104.864 162.456L104.64 162.904L104.416 163.016L103.856 163.24L103.744 163.577L103.968 164.361L104.416 165.594L105.424 167.836L103.744 168.397L102.064 168.285L100.048 167.5L98.48 166.603L97.696 166.267L96.576 166.155L92.992 166.939L91.088 165.706L90.752 163.016L90.864 160.326L90.08 159.205L88.288 158.981L88.176 159.429V160.775L88.4 161.783L88.848 162.792L89.856 164.249L89.072 165.482L87.952 165.594L86.72 164.922L85.712 164.025L85.04 162.68V161.559L85.6 158.533V157.412L85.376 156.067L84.816 155.506L83.808 155.955L83.584 156.515L83.36 157.972L83.024 158.533H82.464L80.896 157.86L80.112 158.533L79.328 160.326L78.32 161.111L77.312 161.223L76.304 161.111L73.28 159.99V159.654V158.869L73.056 158.309L71.824 156.627L70.704 155.73L69.92 154.273L69.024 153.489L67.344 154.61L66.896 155.394L66.784 156.291L66.448 156.963L65.776 157.188L65.104 156.739L64.656 154.497L64.096 153.937L61.408 153.713L60.064 153.264L59.28 152.704V152.144L59.616 151.583L59.84 150.911L59.504 149.79L58.832 149.005L58.72 148.893V148.669L58.832 147.884L59.056 147.212L59.392 146.987L59.504 146.427L58.832 144.97L58.384 144.634L56.704 143.625L54.8 141.831L53.792 141.271L52.224 141.159L51.104 140.71L49.648 139.926L48.416 138.805L47.632 137.796L48.192 137.236L48.416 136.675L48.976 135.33L48.416 135.218L47.52 134.77L47.072 134.658L46.512 134.882V135.442L46.624 136.115L46.512 136.563L45.504 136.787L44.608 136.563L43.936 136.115L43.152 135.891L41.808 136.003L41.584 136.563L41.696 137.348L41.808 138.581L41.696 139.926H41.584L41.024 139.702L40.128 139.814L36.992 142.952L35.312 143.513L34.64 141.159L35.312 139.59L38.784 138.581L40.128 137.236L36.768 135.666L35.312 135.554L33.744 137.236L33.52 135.554L33.856 132.976L34.416 130.622L34.976 129.502V128.829L34.08 128.717L33.408 128.941L32.064 130.062L31.504 130.735L31.168 131.407L30.944 132.192L30.832 133.313L30.496 134.433L30.048 134.994L29.264 134.321L27.808 131.967L27.36 131.071V130.062L27.808 128.493V127.596L27.248 126.923L23.888 124.906L22.992 124.794L20.416 125.242H19.296L18.4 124.457L17.504 123L17.28 122.216L17.056 120.983L16.72 120.31L16.16 119.974L14.144 119.077L13.472 118.517L13.248 117.956V117.284L13.36 116.947L13.472 116.723L13.808 116.499H14.48L15.264 116.611L17.056 117.62L17.728 117.732L18.064 117.844L18.624 117.62L18.848 117.396L19.296 116.947V116.611V115.939L18.96 115.378L18.848 114.706V113.921L18.736 113.361L18.624 112.912L18.288 112.24L18.064 111.903L17.728 111.567L15.824 111.231L14.592 110.67H14.368L13.696 110.895L12.688 111.679L12.352 111.791H11.792L11.456 111.567L11.12 111.007L10.896 110.334L11.008 109.55L11.12 108.765V107.98L11.008 107.532L10.56 106.299V106.075L10.672 105.402L11.008 104.842L11.904 104.057L12.128 103.833L12.352 103.16L12.464 102.376V101.591L12.24 100.582L12.016 99.686L11.792 99.013L11.456 98.565L10.224 98.116L9.88797 97.78L9.77597 97.444L9.66397 97.108L9.55197 95.987L9.32797 94.193L9.10397 93.521L8.99197 93.185L8.87997 92.512V92.176L8.99197 91.391L9.32797 90.831L9.43997 90.494V90.046L8.99197 89.149L8.76797 88.477L7.64796 85.338L6.63997 83.433L1.59998 75.586L2.38397 73.793L2.60797 72.56L2.94397 69.534L3.27997 68.973L3.61597 68.749H4.39996L4.73596 68.861H5.29597L5.85597 68.637L16.608 62.584L16.944 62.248L18.624 58.997L19.072 57.988L19.408 56.98L20.752 54.289L21.088 53.953L21.424 53.729H21.76L22.32 54.402L22.656 54.514L23.328 54.626L23.888 54.514L24.336 54.402L25.68 53.617L26.016 53.169L26.352 52.832L26.464 52.048V51.711L26.352 51.039L26.128 50.703L25.12 49.133L24.672 48.237V47.9V47.116L25.008 45.434L25.232 44.762L25.568 44.426L25.904 44.313L28.816 43.977L29.488 43.753L30.048 43.529L34.64 42.632L34.976 42.52L37.216 41.287L38.56 40.951L38.896 40.727L40.128 39.942L40.464 39.83L41.36 39.718L42.032 39.606L43.04 39.045L43.6 38.597L43.936 38.261L44.272 37.7L44.384 37.364L44.272 36.691L44.16 36.019L43.824 35.458V35.01V34.562L44.16 33.777L44.496 33.441L44.832 33.217L45.728 33.104L46.288 32.992L46.624 32.656L46.736 32.32L46.624 31.647L46.288 31.087L45.616 30.078L45.392 29.742L45.168 29.181L44.832 28.621L43.488 27.724L43.264 27.5L42.928 27.052L42.704 26.715L42.592 26.155V25.482L42.704 24.025L42.816 23.577L43.04 23.241L43.376 23.129L44.272 23.353L44.608 23.577L45.056 24.025H45.28L45.504 23.129V22.232V21.896L45.392 20.775L45.616 19.99L45.84 19.766L47.632 18.645L47.968 18.197L48.192 17.748L48.304 17.412L48.752 16.515V16.179L48.64 15.955L48.416 15.731L47.744 15.058L47.296 14.61L47.184 13.937L47.296 13.153L47.632 11.583L47.856 11.023L48.416 10.799L49.088 10.911L50.656 11.359L52 11.92L53.568 12.368L54.576 13.04L54.912 13.153L55.472 12.816L55.808 12.592L57.152 11.247L57.376 11.135H57.712L58.048 11.359L58.496 12.032L58.832 12.144H59.168L59.84 11.807L60.176 11.471L61.072 10.574L61.632 10.238L62.752 10.014L69.92 9.341L70.816 8.89301L71.264 8.55701L76.976 2.28L78.544 1.047L79.104 1.159L79.888 1.271L81.68 1.944L82.576 2.168H83.136L84.816 1.271L85.488 1.047H86.16L86.944 1.271L90.864 3.177L91.312 3.289H91.76H92.096L93.888 2.504L94.336 2.168L95.008 1.383L95.232 1.271L95.568 1.383L95.904 1.83099L96.016 2.168L96.128 2.616L95.904 3.289L95.68 3.625L95.008 4.41L94.784 5.082L94.448 5.755L94.336 6.427V6.98801L94.448 7.436L95.008 7.884L95.456 8.22099L95.904 8.66901L96.016 9.117L96.24 12.032Z" fill="#FFD700" stroke="#0057B8" stroke-width="2" stroke-linecap="round" stroke-linejoin="round"/>
</svg>
