<svg width="171" height="180" viewBox="0 0 171 180" fill="none" xmlns="http://www.w3.org/2000/svg">
<path d="M130.488 23.342L133.624 23.791L133.96 24.015L134.52 24.351L134.632 24.687L134.744 25.024L134.632 25.696L134.408 26.593L133.736 27.826L133.624 28.162L133.512 28.947V29.731L133.624 30.74L133.736 31.188L133.96 31.749L134.408 32.421L134.856 32.87L135.192 33.094L137.656 34.327L137.88 34.663L137.992 35.112V35.784L137.88 36.905L137.656 37.353L137.208 37.69L136.76 37.914L136.424 38.25L136.312 38.586V38.923L136.536 39.483L137.88 42.397L138.104 43.182V44.415V45.2L137.768 45.872L137.544 46.096L134.52 48.114L134.072 48.562L133.848 49.011L133.736 49.683L133.848 50.58L134.744 52.373L134.968 53.046L135.192 53.606V54.391L135.416 54.727L135.752 55.176L136.648 55.624L137.32 55.848L139.112 56.072L139.336 56.184L139.56 56.521L139.896 56.857L140.68 58.762L141.8 60.444L142.248 61.341L142.36 61.789L142.584 62.013L143.032 62.237H143.816L144.824 62.125L145.496 62.461L146.056 63.807L144.6 65.376V66.16L144.936 66.272L145.832 66.833L146.168 67.057L146.504 67.393L146.84 67.954L146.952 68.402V68.851L146.504 69.523L146.28 69.971V70.42L146.392 70.868L146.504 71.429L146.728 72.437L146.616 72.886L146.504 73.11L145.272 73.782L145.048 74.007L144.6 74.455V74.903L144.712 76.473L144.6 76.921L144.376 77.257L143.256 77.706L141.128 79.051L140.568 79.387L139.896 80.508L139.672 81.068L139.56 81.629V82.301L139.784 83.086L140.232 83.646L140.792 83.983L141.128 84.095H143.032L143.704 84.319L144.152 84.767L144.488 85.44L144.6 86.449L144.488 86.897L144.264 87.121H143.928L143.592 87.345L143.256 87.682L142.808 89.027L142.584 89.475L142.248 90.035V90.372L142.36 90.596L143.592 91.268L144.488 92.053L144.712 92.165H145.72L146.056 92.277L146.616 92.614L147.064 93.062L147.4 93.846L147.624 94.631V95.079L147.4 95.416L146.728 95.976L146.504 96.2L146.28 96.649V97.097L146.392 97.882L146.728 98.666L147.176 99.115L148.744 99.451L148.968 99.675L149.304 100.46L150.424 106.288L150.648 107.073L150.984 107.185L153.224 107.521L154.904 107.409L155.24 107.521L155.688 107.746L156.248 108.53L156.584 108.867L157.032 109.203L157.368 109.315L157.592 109.539L157.928 109.875L157.816 110.212L157.704 110.436L157.48 110.66L156.472 111.22L156.136 111.557L156.024 112.005L155.912 112.902V113.35L156.024 113.798L156.472 114.247L156.92 114.695L158.936 116.152L161.624 117.273L162.072 117.497L162.184 117.834L162.296 118.17V120.86L162.408 121.645L162.52 122.093L163.08 123.214L163.752 124.223L164.872 125.68L165.768 127.585L166.104 128.818V129.267V130.051L165.88 130.5L165.544 130.948L165.208 131.397L164.984 131.509H164.536L164.424 131.845L164.312 132.405L164.088 132.854L163.752 133.414L163.528 133.638L162.408 134.647L162.296 134.871L162.184 135.208L162.072 135.88L162.184 136.216L162.408 136.441H162.632L163.192 136.328L166.104 135.095L166.776 134.871H167.448L168.008 135.095L168.568 135.656L169.576 136.553L168.008 138.682L167.224 139.131L165.096 139.467L164.648 139.691L164.424 140.027L163.528 141.597L162.184 143.278L161.512 143.838L161.064 144.063L160.952 143.838L160.616 143.278L160.28 141.709L160.168 141.373L159.72 140.588L159.608 140.252L159.72 139.467L159.608 139.131L159.384 138.794L158.488 138.57H157.928L157.592 138.682L156.472 139.691L156.024 140.14L155.352 141.26L155.016 141.821L153.672 143.502L151.656 145.408L151.096 146.192L150.984 146.641L151.096 147.537L150.984 148.322V149.107L150.872 149.555L150.424 150.9L149.976 151.573L148.856 153.254L148.52 153.927L148.632 154.151L148.744 154.375L149.304 154.711L150.872 155.16L151.432 155.384L151.544 155.72L151.32 156.617L151.656 157.401L151.544 157.738L151.432 158.186L151.096 158.634L150.76 159.419L150.872 160.091L147.288 162.109L146.728 162.221L146.168 162.333L145.72 162.221L145.16 162.109L144.376 162.557L144.152 162.894L144.04 163.342L144.152 163.566L144.488 164.127L145.72 165.808L146.056 166.368V166.817L145.944 167.377L144.936 170.404L144.712 170.628H144.376L143.816 170.404L143.48 170.292L143.144 170.404L142.584 170.628L139.112 170.964L134.408 170.628L133.624 170.404L131.272 168.947L130.712 168.498H129.704L123.768 170.964L118.056 171.188L117.72 171.076L116.6 170.516L113.352 169.171L112.792 168.834L112.232 168.162L112.008 167.938L111.224 167.377L110.104 166.368L109.544 165.92L109.208 165.696L108.536 165.472H108.2L107.64 165.584L105.848 166.368L105.624 166.481L105.4 166.817V167.153V167.714L105.848 170.067L105.96 170.74L105.848 171.076L105.624 171.3L104.952 171.861L103.944 172.421L103.384 172.87L102.6 173.766L101.928 174.775L100.584 175.672L95.32 178.026L94.2 178.923L93.864 178.25L92.856 177.353L92.408 176.681L92.296 176.12L92.072 173.766L91.064 171.3L90.952 170.628V170.067L90.728 169.395L90.392 168.61L88.6 167.489L86.36 167.041H82.104L76.392 164.575H74.376L73.032 165.135L71.912 168.498L71.464 170.516V172.085L71.128 172.982H70.568L69.336 172.085L68.552 171.3L66.76 167.714L67.768 166.481L67.88 165.135L67.32 163.79L66.312 163.118L64.856 163.342L64.072 164.463L63.4 165.92L62.504 166.929L61.16 167.265L60.488 166.481L60.376 165.135L60.824 163.902L61.72 162.67L62.616 162.109L63.288 161.212L63.736 159.307L63.624 157.625L62.952 156.841L61.944 156.729L59.032 157.065L58.024 157.738L57.016 158.522L55.672 159.307L54.216 159.643L53.208 159.307L52.536 158.298L52.312 156.505L51.864 154.935L50.856 155.047L48.952 156.729L47.944 156.953H46.6L45.704 156.28L46.936 152.581L46.6 150.9L45.48 149.667L44.248 149.107L38.76 148.434L36.184 147.425L34.84 145.296L34.392 144.847L32.376 141.821L31.48 140.812L27.448 137.898L25.432 136.889L17.704 137.001L16.472 136.328L16.248 133.862L14.904 133.75L13.336 134.759L12.552 134.983H10.088L9.41599 134.087L8.07199 127.922L7.17599 125.12L5.944 122.766L4.15201 121.084L1.79999 120.188L3.14401 115.144L3.59201 112.79L3.70401 110.66V110.212L3.48001 109.763L3.36801 108.754V107.858L3.48001 107.521L3.81601 107.409H4.48801H4.82401L5.16 107.073V106.737V106.401L4.82401 105.84L4.48801 105.28L4.04001 104.047L3.81601 102.814L3.59201 97.658L3.48001 96.985L3.25601 95.64L2.80801 94.071L2.13599 92.95L1.91199 91.941L1.79999 91.493L1.91199 91.044L2.13599 90.82L2.69601 90.484L3.03201 90.26L3.36801 89.811L3.48001 89.363V89.027L3.36801 88.802L2.80801 87.906L2.58401 87.457L2.35999 86.561V86.112L2.47198 85.664L2.80801 85.328L3.14401 84.095L3.25601 83.646L3.48001 83.31L3.92801 83.086L4.60001 82.413L5.048 82.077L5.496 81.629L5.832 80.844L6.056 79.835L6.392 79.275L6.616 79.051L7.62399 78.602L7.95999 78.154L8.07199 77.706V76.921L8.18399 76.585L8.40799 76.024L8.63199 75.352L9.07999 74.119L9.52802 73.67L9.86401 73.334H11.32L14.008 73.782L14.344 73.67L14.792 73.334L16.136 70.868L16.584 70.42L16.92 70.196L18.488 70.532L19.384 70.98L20.392 71.653L21.064 72.101L21.4 72.213L22.52 72.325L23.192 72.662L24.424 73.558L24.984 73.895L25.656 74.231L26.328 74.343L27 74.231L27.336 73.895L28.568 72.325L29.016 71.877L30.472 71.204L32.488 71.092L32.936 70.98L33.608 70.644L33.832 70.308L33.944 69.859L33.832 69.635L33.608 68.963L33.496 68.29L33.384 67.618V66.833V66.048L33.272 65.376L32.936 64.815L32.264 63.807L31.928 63.246L31.816 62.349L31.928 61.677L32.152 61.116L32.488 60.556L32.936 59.883L33.16 59.435V58.987L32.824 58.202L32.04 57.193L31.816 56.969L31.592 56.409V55.512L31.704 54.615V54.167L31.592 53.943L31.368 53.718L31.144 53.494L30.136 53.27L29.576 52.934L29.352 52.261L29.24 51.252L29.128 50.916L28.904 50.244L28.68 49.907L28.568 49.347L28.68 48.899L28.904 48.562L30.808 47.89L31.144 47.666L31.256 47.329V46.993L30.808 45.76L30.584 45.2L30.248 44.639L30.024 44.415H26.216L25.432 44.303L25.096 44.079L24.872 43.855L24.648 43.518L24.536 42.846L24.648 42.397L24.76 42.061L24.984 41.837L25.768 41.276L26.104 40.94V40.716L25.992 40.38L25.768 40.156L23.976 38.811L23.864 38.362L23.752 37.802V36.345L23.976 35.672L24.2 35.224L24.424 35.112L25.096 34.999L25.432 35.112L25.992 35.448H26.44L26.888 35.112L27.448 34.327L27.56 33.766V33.318L27.336 33.094L26.664 32.421L26.44 32.085L26.328 31.749V31.413L26.552 31.076L27.112 30.292L29.016 26.481L29.24 25.808L29.352 25.248V24.911L29.128 24.239L28.904 23.678L28.456 23.23L28.008 22.782L27.448 22.445L25.88 21.661L25.656 21.437L25.432 21.1L25.32 20.652V20.204L25.432 19.867L26.104 18.634L26.216 18.298L26.44 18.186H26.776L28.344 18.522H28.68L29.24 18.186L29.8 17.738L30.248 17.177L30.696 16.505V16.168L30.472 15.832L29.352 15.048L29.128 14.823L29.24 14.711L29.464 14.599L30.696 14.487L31.48 14.263L32.6 12.806L38.088 12.133L42.344 12.806L44.36 12.582L49.624 11.124L55.672 10.9L56.232 10.676L57.352 10.116H57.912L58.584 10.228L61.496 11.685H62.056H62.728L63.96 11.573L64.968 11.236L65.528 10.676L66.648 8.54601L66.872 8.32201L67.544 8.21001L73.032 8.32201L73.592 8.43401L75.16 9.33099L75.496 9.66701L75.944 10.116L76.168 10.228L77.512 10.004L78.408 9.66701L79.528 8.995L79.864 8.883H80.2L84.904 9.66701L85.464 9.55499L85.8 9.33099L86.136 8.771L86.584 7.425L87.368 5.856L87.816 5.408L88.6 4.847L90.056 4.287L90.616 3.951L91.064 3.502L91.4 2.942L91.736 2.269L91.848 1.485L92.184 1.261L92.632 1.14799L96.552 1.709L96.888 1.821L97.224 2.045L97.336 2.381L97.112 3.054L97.224 3.502L97.56 4.063L98.568 5.07201L98.904 5.632L99.016 5.968L98.792 6.86501L98.904 7.201L99.128 8.21001V8.54601V9.33099V9.66701L99.24 10.116L100.248 12.357L100.808 13.142L101.144 13.59L102.936 14.935L103.048 15.272V15.608L100.136 19.419L99.8 19.979L99.576 20.652V21.1L99.912 21.325L101.032 22.221L101.368 22.67L101.48 23.118L101.592 23.791L101.704 24.127L102.488 25.36L102.6 25.696V25.92L102.376 26.593L101.704 27.265L101.592 27.489L101.48 27.826L101.704 28.386L102.376 28.835L102.936 29.059L104.28 29.395L106.632 29.171L111 29.955L117.608 29.507L118.84 29.619H119.176L119.512 29.507L119.624 29.059V28.162L119.848 27.377L120.296 27.041L121.08 26.817L123.656 26.481L124.776 26.593L125.336 26.369L125.896 26.032L127.912 24.127L128.36 23.566L129.032 23.23L130.488 23.342Z" fill="#FFD700" stroke="#0057B8" stroke-width="2" stroke-linecap="round" stroke-linejoin="round"/>
</svg>
