<svg width="158" height="167" viewBox="0 0 158 167" fill="none" xmlns="http://www.w3.org/2000/svg">
<path d="M122.679 4.5083L123.015 6.3018L123.799 6.7501L129.399 7.0864L129.735 7.19851L129.847 7.4227L129.623 7.6469L128.727 8.2073L128.279 8.5436L128.055 8.8798L127.943 9.2161L127.831 9.7766V10.4491L127.943 11.1216L128.055 11.6821L128.503 12.6909L128.615 13.3634V13.8118L128.503 14.2601L128.391 14.8206L127.719 16.0536L126.935 17.2866L126.487 17.7349L124.247 19.6404L121.223 24.0119L120.775 25.0207L120.551 25.6933L120.439 26.7021L120.103 28.7197V30.401L120.215 32.4186V33.6516L120.327 34.4363L120.663 34.9967L121.223 35.333L122.007 35.4451H122.455L123.127 35.333L123.351 35.2209L123.575 35.4451L123.799 36.566L123.911 36.7901L124.247 37.0143L125.367 37.3506L125.815 37.6869L126.151 38.3594V38.8077L126.039 39.4803L125.479 40.4891L125.143 40.9375L124.023 41.9463L123.575 42.3946L123.239 42.9551L123.127 43.4034L123.015 43.9639L122.903 45.5331V45.9815L123.127 46.8782L123.799 49.5684L123.911 50.353V50.6892L123.799 51.586L123.575 53.2673L123.463 54.6124V55.397L123.575 56.63V56.9663L123.127 60.665L123.239 61.45L123.351 61.786L123.687 62.347L124.135 62.907L124.359 63.019L124.919 63.131L125.143 63.019L125.367 62.795L125.591 62.459L125.927 61.45L126.263 60.777L126.487 60.553L127.271 59.993L127.943 59.768L128.615 59.656L129.399 59.544L130.183 59.656L131.527 60.217H131.863H132.199L132.535 60.105L132.759 59.881L133.207 59.432L133.431 59.096L133.879 58.311L134.103 57.9751L134.327 57.7509L134.551 57.6388H134.887L135.111 57.863L135.335 58.423L135.671 58.984L136.343 59.32L136.679 59.432H137.463L137.911 59.32L138.471 59.096L139.367 58.199L139.591 58.087L139.703 58.311V59.208L139.143 61.45L138.919 62.459L138.807 63.243L138.919 63.58L139.255 64.14L139.591 64.7L140.263 65.037L141.383 65.597L141.719 65.933L141.943 66.494L142.055 67.278V67.615L142.167 67.951L142.615 68.399L144.407 69.857L145.639 71.314L145.975 71.874L146.423 72.435L151.127 74.789L154.263 77.927L154.487 78.151L154.711 78.824V79.272L154.599 80.393V80.953L154.263 81.626L153.703 82.635L153.031 83.307L152.471 83.756L148.103 84.652L147.879 84.877L147.767 85.437L147.431 88.127V88.688L147.655 88.912L147.991 89.136L149.559 89.808H149.895L150.119 89.696L150.791 89.136L150.903 89.024L151.575 88.912L152.247 88.8L152.807 89.136L153.367 89.584L154.375 90.705L155.383 92.499L155.607 93.059L155.719 93.844V94.18L156.279 94.965L156.503 95.637L156.615 96.87L156.727 97.543L156.615 97.991L156.391 98.439L155.495 99.112L155.047 99.336L154.487 99.56L150.119 100.121L149.783 100.457L149.447 100.793L149.223 101.466V101.914L149.447 102.25L149.671 102.475L150.679 103.259L150.903 103.596L151.127 103.932L151.463 104.268L151.575 104.492L151.687 104.829V105.613L151.463 106.398L151.239 106.734L149.671 108.191L148.887 109.424L148.663 110.097L148.775 110.545L148.999 110.657L150.455 111.442L150.791 111.666L151.015 112.114V112.339L150.567 113.011L150.343 113.235L150.007 113.347L149.447 113.459L148.327 113.123H147.543L147.207 113.235L146.759 113.571L143.959 115.813L143.735 115.925L143.399 116.15L143.063 116.486L142.727 117.27L142.615 117.607L142.391 122.09L142.727 123.996V124.78V125.565L142.615 126.238L142.167 127.022L141.719 127.471L141.383 128.255L141.159 128.591L140.599 131.842L140.375 132.178L140.039 132.29L139.479 132.403L139.031 132.29L138.583 132.178L138.135 131.73L136.791 130.385L136.343 129.937L135.671 129.6L133.207 129.264L132.983 129.04L132.759 128.816L132.871 128.255V127.919L132.647 127.583L131.415 126.126L130.519 125.229L130.183 125.117L129.399 124.893H126.151L124.919 125.565L123.575 126.574L121.223 127.919L119.095 128.704L117.191 129.824L116.631 130.049H116.071L114.503 129.712L113.271 129.152L112.487 128.704L111.479 127.807L111.367 127.695L111.031 127.807V128.255V128.591L111.367 129.6V130.049L111.143 130.497L110.695 131.17L110.583 131.842L110.695 132.29L110.919 132.515L112.263 133.411L112.487 133.636L112.599 133.972L112.487 134.196L111.927 134.42L111.479 134.532L107.111 133.86L106.775 134.084L106.551 134.308L106.439 134.981L106.551 135.429L107.335 136.886L107.671 137.783V138.231V139.016V139.352L107.559 139.913L107.223 140.361L106.551 140.921L106.103 141.146L105.543 141.258L100.839 140.809L97.927 140.025H97.703L97.367 140.137L97.031 140.361L96.359 141.258L96.247 141.594L96.135 142.042L96.471 142.491L96.695 142.827L98.487 144.172L99.159 144.844L99.271 145.069L99.159 145.293L98.151 147.198L97.703 147.871L97.255 148.319L97.031 148.431L96.695 148.543H96.359L95.127 148.431H94.791L94.567 148.543L94.455 148.88L94.567 149.328L94.791 149.552L95.015 149.888L96.135 150.561L97.031 151.458L97.591 152.242L99.159 155.045L99.383 155.269L99.719 155.381L100.839 155.605L101.175 155.717L101.287 156.053L101.399 156.39V156.838L101.287 157.286L100.839 157.847L100.055 158.295L99.495 158.407L98.935 158.631L98.375 158.968L97.703 160.089L96.359 161.658L92.663 165.133L92.887 162.33L92.775 161.322L92.439 160.649L92.103 160.313L91.767 160.089L91.543 159.864H90.871L88.967 160.201L87.735 159.528L85.943 158.407L85.159 157.959L84.599 157.847L84.375 158.071V158.407L84.487 159.528L84.039 159.864L83.255 159.977L79.335 159.304L77.991 159.64L77.319 159.864L76.759 160.089L76.199 160.425L75.639 160.649H74.743L71.607 160.425L70.935 160.201L70.487 159.864L70.375 159.528L70.263 159.192L70.375 158.407L70.039 157.847L69.479 157.174L66.903 155.605L66.455 155.157L66.343 154.484V154.036L66.119 153.587L65.783 153.475L65.447 153.363L63.431 153.251L62.983 153.139L62.647 152.803L62.311 152.13L62.087 151.794L61.751 151.346L61.415 151.121H61.079L60.855 151.346L60.631 151.682V152.13V153.251L60.407 153.812L60.071 154.148L59.623 154.26L58.727 154.372L58.279 154.148L58.055 153.924L57.943 153.587L58.055 153.139L58.167 152.467V152.018L58.055 151.458L57.719 151.009L55.143 148.88L54.807 148.431L54.695 148.095L54.807 147.759L54.919 147.535L55.479 147.198L58.615 146.414L59.175 146.19L59.623 145.741L59.959 145.181L60.071 144.844L60.183 144.06L59.959 143.387L59.623 142.827L57.831 140.697L57.271 140.361L56.599 140.137L56.263 140.249L55.143 140.585L54.471 140.697L54.023 140.585L53.687 140.361L51.895 138.567L51.783 138.343V137.895V137.559V137.11L51.447 136.438L50.327 135.317L49.543 134.756L48.983 134.42H48.423L48.199 134.532L47.863 134.981L47.527 135.541L46.967 135.989L46.743 136.101L45.175 136.326L44.503 136.55L43.943 136.886L42.823 137.11V137.783L42.151 137.222L41.031 136.774L40.247 136.438L39.687 135.765L39.351 134.756L38.791 134.084L37.895 133.748L37.335 133.299L36.999 131.506L36.215 131.057H35.319L34.535 131.282L33.975 131.73L33.527 132.403L31.959 128.591L31.399 126.574L31.847 124.332L30.167 123.884L28.487 122.875L27.591 121.306L28.375 119.624V119.064L26.695 118.84L25.127 118.167L24.231 116.934L24.119 115.029L24.903 113.347L26.359 112.226L28.039 112.002L29.719 112.899L30.951 112.339H32.967L34.871 112.002L35.655 110.209L34.871 108.976L29.719 106.174L25.463 102.25L24.567 100.681L24.231 99.448L24.119 98.551L24.007 97.767L23.335 96.646L22.551 96.198L21.767 95.861L21.319 95.413L21.543 94.628V94.068L20.871 89.921L20.311 88.576L18.631 85.997L17.735 84.092L17.959 83.195L18.967 82.635L18.295 81.402L15.383 78.375L12.247 76.47L10.791 74.676L7.43142 67.166L6.31142 66.494H5.07942L4.18343 65.933L3.73542 63.804L4.07143 62.459L4.96742 61.001L6.08743 59.881L7.20742 59.432L6.75942 58.087L6.87142 57.0783L7.31942 56.4058L7.99142 56.0695L7.54343 54.8366L4.96742 51.1376L4.85542 50.4651L5.86343 48.4475L4.96742 47.887L3.84742 47.4386L2.83942 46.7661L2.50343 45.421L2.39143 44.7485L2.95142 45.1969L3.51142 44.9727L3.73542 43.4034L3.62342 42.3946L1.94342 37.5748L1.60742 36.7901V36.0055L2.39143 34.6604L2.95142 33.9879L3.73542 33.6516L9.78342 32.0824H11.239L15.607 33.4275L17.175 33.5395L19.639 34.5484L21.319 36.6781L23.111 38.3594L25.575 37.911L34.871 29.5043L41.927 24.6845L43.607 22.2185L45.175 15.7173L46.071 13.6997L48.311 10.337L49.655 8.99191L50.999 8.4315L66.455 7.19851L70.263 8.2073H71.495L88.967 5.40511L94.567 2.3786L97.367 1.4819H100.167L110.583 4.2842L122.679 4.5083Z" fill="#FFD700" stroke="#0057B8" stroke-width="2" stroke-linecap="round" stroke-linejoin="round"/>
</svg>
