<svg width="158" height="114" viewBox="0 0 158 114" fill="none" xmlns="http://www.w3.org/2000/svg">
<path d="M46.36 8.095L47.48 8.767L48.6 10.112L48.712 10.897L48.152 12.13L47.928 12.803V14.036V14.372L48.04 15.381L48.264 16.053L48.6 16.502L50.168 18.407L52.408 20.2L52.744 20.761L52.968 21.209L53.192 21.882L53.64 22.666L54.088 22.891L54.536 23.003H55.544H55.992L56.44 22.891L57 22.554L59.576 21.77L61.256 21.433L61.704 21.546L62.152 21.882L62.824 22.442L63.272 23.227L64.728 26.926L65.96 29.168L66.296 29.616L66.744 29.952L67.304 30.401L67.864 30.513L70.776 30.849L71.56 30.737L72.232 30.625L72.792 29.952H73.016H73.24L73.464 30.737V31.858L73.576 32.418L73.912 32.867H74.248L74.696 32.642L75.032 32.418L75.928 31.185L76.152 30.961L76.488 30.849L76.936 30.961L77.496 31.521L77.72 31.97V32.418V32.979L77.832 33.315L78.056 33.875L78.168 34.1L78.728 34.436L79.4 34.66L81.192 34.996L82.424 35.108L85.672 34.66L86.344 34.772L87.8 35.445L90.376 36.117L92.728 37.238L96.648 41.946L97.768 42.843L98.216 42.955H98.776L99.672 42.618L100.344 42.506H101.128L101.912 42.618L102.584 42.843L102.92 43.067L103.144 43.403L103.368 44.188V44.748L103.144 45.981L103.256 46.654L103.48 47.102L103.816 47.55L107.288 50.465L107.848 50.801L108.408 51.025L109.192 51.137L109.752 51.361L110.2 51.698L110.76 52.37L110.984 52.819L111.432 53.827L111.544 54.388L111.656 54.948L111.432 55.733L111.208 56.405L111.096 57.078L110.984 57.863L111.096 58.199L111.32 58.535L111.656 58.759L112.328 59.096L112.776 59.208H113.224L113.784 58.983L114.344 58.647L114.568 58.423L115.576 57.302L116.92 56.405L119.608 55.957L120.84 55.397L123.864 53.379L124.424 53.267H124.76L125.096 53.491L125.32 53.827V54.5V54.948L125.208 55.845L125.096 56.405L125.208 57.414L125.432 58.087L125.544 58.759V59.096L125.432 59.88L125.32 60.216L124.872 62.57V63.355L124.984 64.476L125.432 67.278L125.544 67.614L125.768 68.063L126.104 68.623L126.888 69.408L127.336 69.744L127.784 69.968L129.688 70.417H131.256L132.712 70.192L133.272 69.968L134.056 69.408L134.392 68.959L134.952 68.063L135.288 67.166L135.512 66.942L135.736 66.83L136.184 67.166L136.632 67.502L137.304 68.063L137.64 68.511L137.864 69.071L138.088 70.192L138.2 71.313L138.424 71.65H138.648H140.216L140.664 71.874L141 72.21L141.56 72.883L142.232 73.555L143.464 74.452L147.496 78.263L147.944 78.823L149.064 81.177L150.296 83.195L150.408 83.531L150.52 83.979L150.296 84.54L149.96 85.324L149.624 85.885L149.288 86.445L149.064 87.118V87.566V88.015L149.176 88.575L149.512 89.472L149.736 89.92L150.184 90.481L154.44 94.74L156.456 97.766L156.568 98.103L156.456 98.551L153.208 103.371L152.872 104.492L152.312 107.742L152.088 108.863L151.64 108.527L150.408 108.191L146.936 108.303L143.352 107.406L142.12 107.518L140.776 108.191L138.312 110.32L135.288 110.433L131.144 112.562H129.8L126.104 111.105L125.992 111.217L124.872 110.993L122.632 108.751L121.4 108.191L118.376 107.406L117.368 106.621L115.352 106.509L109.08 109.087H107.848L107.4 107.742L104.152 104.716L103.144 104.156L98.776 104.38L97.432 104.156L94.856 103.371L90.824 102.923L89.704 102.474L87.352 102.923L86.68 103.147L86.008 103.707L85.784 104.268L85.448 104.828L85.112 105.276L84.664 105.613L83.32 105.725L79.288 103.707L79.064 103.595L78.504 103.819L78.056 103.931L77.496 103.819L77.048 103.707L75.704 102.026L72.792 99.448L70.216 96.421L69.096 95.637L64.84 94.067L63.384 93.955L62.152 94.516L60.92 96.421L59.464 100.793L58.68 102.362L55.992 104.38L55.096 104.604L54.088 104.268L53.08 103.707L52.072 103.035L50.952 102.474L50.056 102.586L49.496 103.707L50.056 105.501L49.496 106.846L48.488 107.518L47.144 107.967L44.904 106.061L44.344 104.94L45.464 103.707L45.576 102.25L45.912 101.353L46.136 100.344L45.8 98.663L45.128 97.318L44.344 96.309L42.44 94.516L40.2 93.283L39.976 92.834L38.968 92.162L37.96 92.498L36.84 93.171L35.72 93.619H31.24L30.456 94.067L30.344 93.955L30.008 93.619L28.888 91.377L27.992 88.463L27.208 86.557L22.616 80.505L22.056 80.28H21.832L20.6 80.953H19.704L18.696 80.841L17.464 80.28H17.016L16.68 80.393L16.232 80.841L15.784 80.953L15.336 80.841L14.888 80.393L11.864 75.685L11.192 73.779V72.546L11.304 71.425V70.529L10.856 69.744L10.408 69.632L8.728 69.744V68.287L9.624 65.485L7.384 64.364L5.256 64.027L3.24 64.812L2.68 65.597H2.456L1 65.26L1.112 58.535L1.784 57.078L2.008 55.621L1.224 51.81L1.336 49.904L2.344 48.335L6.376 45.084L6.712 44.412L7.384 42.843L7.832 42.17L8.616 41.722L10.296 41.161L10.968 40.713L11.976 39.368L12.76 37.574L13.208 35.557L13.096 33.539L13.32 32.306L13.768 31.746L14.328 31.185L14.888 30.401L15.336 29.392L15.448 28.719L15.336 25.581L15.224 24.796V24.011L15.672 22.891L16.232 21.994L17.688 20.761L18.248 19.976L18.472 19.304L18.36 18.183L18.472 17.622L19.256 15.941L20.6 12.018L21.72 11.121L24.072 10.785L25.08 10L24.968 8.431L25.304 6.189L25.752 4.06L26.2 2.48999L27.544 1.25699L28.776 1.59399L31.128 4.172L32.584 5.17999L33.928 5.405L35.272 5.293L37.512 5.405L38.968 4.95599L39.64 5.06799L40.2 5.629L41.32 7.31L42.104 7.534L43.112 8.095L44.568 9.328L45.8 9.888L46.472 8.319L46.36 8.095Z" fill="#FFD700" stroke="#0057B8" stroke-width="2" stroke-linecap="round" stroke-linejoin="round"/>
</svg>
