<svg width="190" height="175" viewBox="0 0 190 175" fill="none" xmlns="http://www.w3.org/2000/svg">
<path d="M148.552 28.494L148.664 32.305L149 33.314L149.672 33.651L150.456 33.763H151.128L152.696 33.538H153.144L153.368 33.651L153.48 33.875L153.592 34.547L153.704 35.892L153.816 36.453L155.608 40.264L156.392 42.618L156.84 43.178L157.176 43.514L158.744 43.851L159.192 44.075L159.304 44.299V44.523L159.08 44.747L158.52 44.972L157.96 45.196L157.624 45.308L157.512 45.644V46.429L157.736 46.877L157.96 47.213L158.184 47.438L159.304 47.662L159.528 47.886V48.222L159.304 49.343L159.192 49.904L159.304 50.464L159.528 50.8L159.752 50.912L160.424 50.8L162.328 50.016L163 50.464L164.008 51.361L166.472 54.051L167.48 55.06L168.264 55.508L168.488 55.284L168.936 54.948L170.504 53.602H170.952L171.4 53.715L174.088 55.396L174.536 55.844L176.216 57.974L181.032 62.233L181.256 62.458L182.488 64.363L182.824 64.699H183.16L183.608 64.363L183.72 63.803L183.944 63.578L184.28 63.466L186.856 63.915H187.976L188.424 64.027L188.536 64.251V64.587L188.312 64.924L187.416 66.717L187.192 67.389V68.174V68.51L186.52 69.743L186.296 70.528L186.184 70.864V71.537V72.321L186.408 73.106L186.296 73.442L185.96 73.891L185.512 74.227L184.952 74.339L184.84 74.227L184.616 73.667L184.168 72.882L183.496 72.209L183.272 72.097L182.712 71.873H182.152L181.928 71.985L181.48 72.321L181.032 72.77L180.808 73.442L180.584 74.227L180.248 74.9L179.688 75.796L179.464 76.469V76.805V77.814V78.15L179.352 78.486L179.128 78.711L178.904 78.935L176.664 79.719H175.32L174.2 79.607L173.416 79.383L172.744 78.711H172.52L171.848 78.598H171.512L170.952 78.038L170.392 78.15L169.832 78.374L169.608 78.711L169.496 79.047V80.056L169.832 80.84L170.728 82.746L170.84 83.306L170.952 83.867L171.176 86.221L171.064 86.893L170.616 87.229L170.056 87.454L166.808 87.678L166.472 87.79L166.136 87.902L165.912 88.238L166.136 88.799L166.472 89.247L167.928 90.816L168.488 91.152L171.176 92.273L172.296 92.946L172.52 93.17L172.856 93.618L173.752 95.188L174.312 96.197L174.984 98.999L175.208 99.559L175.544 99.895L177.672 101.689L177.896 101.801H178.12L178.568 101.016L179.016 100.68L179.464 100.792L180.472 101.913L181.48 102.586L181.704 102.81L182.152 103.37L182.376 103.706L182.264 104.043L182.04 104.267L181.368 104.939L180.92 105.388L180.696 105.948L181.928 108.078L182.04 108.638L181.928 109.087L181.032 109.759L180.472 109.984H180.248L179.912 109.871L179.016 109.423H178.68L178.008 109.871L177.784 110.096L175.992 111.777L175.768 112.001L175.432 112.562L175.32 113.01L175.432 113.682L177.224 117.157L176.664 117.269L175.992 117.606L173.864 119.287L173.192 119.735L171.064 120.52L167.816 123.771L165.8 123.995L166.36 126.237L165.464 128.254L164.232 130.272L163.672 132.514L163.224 134.867L162.104 137.333L160.536 138.791L158.968 138.342V137.67H159.416L160.648 138.23L161.88 135.764L162.552 132.514V130.944L162.104 130.496L159.864 127.806L158.856 127.245L156.84 126.573L156.056 125.9L154.936 126.573L153.816 126.461L152.136 125.9L151.128 126.237L150.456 126.909L149.896 127.582L149.448 127.806H145.304L142.728 129.375L139.704 130.048L137.688 130.944L135.896 132.401L131.64 136.885L130.52 138.903L130.072 141.481H129.624V140.248L129.4 139.911L128.84 140.248L128.168 140.472L128.056 141.256L127.72 140.36L127.944 140.024L128.056 139.463L127.944 139.015L127.16 138.342L126.6 137.333L126.264 136.885L125.816 136.549L124.584 135.988H123.464L121.224 136.549L116.744 135.876L108.232 137.445H106.776L98.6 142.041L96.808 143.61L91.88 149.439L89.864 151.345L82.472 155.044L81.352 155.94L80.344 157.061L78.44 159.751L77.544 160.648L75.304 162.217L74.408 163.114L68.472 172.866L68.136 173.314L67.24 172.754L68.92 169.839L71.16 167.485L72.056 166.028L72.28 163.787L71.272 164.907L70.152 165.804L68.92 165.916L67.464 164.683L66.904 162.666L67.24 160.312L68.472 156.837L68.024 156.613L67.016 156.501L66.344 156.277L65.896 156.052L65.112 155.268L64.104 154.595L63.32 153.362L62.76 151.793L62.536 150.112L61.192 151.793L61.64 153.586L62.76 155.268L63.32 156.613L63.544 157.734L63.88 158.406L64.104 159.191L63.88 160.536L63.32 161.545L61.192 163.787L57.608 169.391L57.384 169.727L55.144 169.279L54.584 168.718L54.472 167.037V166.701L54.136 164.907V164.235L54.248 163.562L54.584 162.554V162.105V161.657L53.016 155.156L52.68 154.371L52.232 154.035H50.552L49.88 153.698L48.872 153.138L48.424 153.026L47.528 152.465L46.184 151.232L45.736 151.12L42.824 151.457L42.04 151.345L41.816 151.232L41.704 151.008V149.775L41.816 149.439L42.264 149.103L42.488 148.767L42.6 148.43V147.87L42.376 147.646L42.04 147.421L39.128 147.197L37 147.309L36.44 147.197L36.104 146.973L35.88 146.749L35.544 145.74L34.088 143.386L33.64 142.602V141.929L33.752 141.369L34.088 140.808L34.76 140.136L34.872 139.799L34.984 139.127L34.872 138.23L34.648 137.333L34.312 136.549L33.976 136.212L33.528 135.988L32.184 135.764L31.736 135.652L31.288 135.428L30.168 134.531L29.832 134.419L29.272 134.643H28.824L28.264 134.419L27.928 134.195L27.816 133.859L27.704 132.85L27.816 132.177L28.152 131.729L28.376 131.505L28.936 131.393L30.616 131.281L31.176 131.168L31.4 130.944L31.736 130.384L32.072 129.823L32.52 129.487L33.08 129.263L33.304 129.151L33.752 128.59L34.088 127.469L34.312 126.909L34.76 126.349L34.984 125.788V123.658L35.208 122.986L35.32 122.874L35.656 122.65L36.216 122.538L37.896 121.865L38.12 121.641L38.232 121.192V120.52L37.896 119.063L37.672 118.502L37.448 117.942L37 117.606L36.664 117.494L35.992 117.381L35.544 117.269L35.096 116.933L34.76 116.373L34.088 113.458L33.864 112.898L33.64 112.562L33.304 112.45L30.392 111.441L29.832 111.104L29.048 110.544L28.488 110.208L26.92 109.871L26.584 109.647L26.36 109.311L26.248 109.087L26.136 107.742L25.912 106.845L25.688 106.397L25.576 106.06L25.24 105.836L24.456 105.724L23.896 105.388L23.672 105.164L23.56 104.827L23.448 104.267L23.336 101.128L22.328 96.869L22.104 96.421L21.768 96.197L20.984 95.972L20.424 95.636L20.2 95.3L20.088 94.964V94.291L19.752 93.058V92.385L19.64 91.377L19.864 89.471V88.799L19.304 86.333V85.66L19.416 85.324L19.528 85.1L19.864 84.763L19.976 84.539L20.088 84.091V83.418L19.976 83.082L19.864 82.746L18.968 82.073L18.52 81.625L18.408 81.289L18.296 80.616L18.408 79.831L18.52 79.047L18.968 78.598L19.864 78.262L20.2 77.926L20.312 77.478L20.088 77.029L19.64 76.917L15.384 77.365L14.824 77.59L14.6 77.814L14.488 78.15L14.376 78.823L14.264 79.159L13.704 79.944L13.368 80.616L13.256 80.84L12.696 81.064L12.024 80.84L11.128 80.392L10.792 80.28L9.896 80.392L9.672 80.504L9 81.064L8.44 81.289H8.104H7.76801L7.32001 81.064L7.20801 80.84L7.09601 80.504L6.98401 79.047L6.87201 78.374L6.20001 76.805L3.06403 66.493L1.49597 62.121L8.664 59.767L16.504 58.086L25.016 54.051L25.688 53.827L28.824 54.387L34.088 56.629L40.472 57.862L44.504 58.086L45.064 57.974L45.624 57.301L45.96 56.629L46.072 56.293L46.52 54.387V53.715L46.184 53.154L45.848 52.706L44.616 51.697L44.392 51.473V51.249L44.504 50.576L45.4 48.222L45.848 46.653L46.296 43.963L46.744 42.506L47.416 38.134V37.462L47.192 37.35L46.856 37.125L45.4 36.901L44.28 36.677L43.944 36.453L43.832 36.229V35.892L44.056 34.659V34.323L43.832 33.426V33.09V32.642L44.056 32.081L44.616 31.072L44.84 30.624V30.064L44.728 29.727L44.392 29.279L39.576 26.365L39.128 25.916L38.904 25.356V24.683L39.128 23.787L39.352 23.114L39.688 22.666L41.368 21.209L41.704 20.984L44.392 20.424L45.064 20.088L45.4 19.751L45.624 19.303L45.736 18.518L45.624 18.182L45.512 17.622L45.176 17.061L44.84 16.949L42.6 16.389L41.928 16.052L41.592 15.604L41.256 15.044V14.707V13.923L41.032 13.362L40.808 13.25L40.472 13.138H39.8L39.576 13.026L39.352 12.914L39.24 12.578V12.129L39.464 11.569L39.8 11.345L40.584 10.784L40.808 10.448L40.92 10.224L41.032 7.98199L41.144 7.422L41.368 6.86099L41.256 6.52499L40.92 5.73999L40.696 4.84399L40.584 4.39499L40.696 3.94699L40.92 3.04999L41.256 2.82599L41.592 2.60199H42.264L42.6 2.71399L42.824 2.93799V3.16199V4.28299V4.95599L42.936 5.62799L43.16 6.189L43.384 6.41299L43.72 6.52499H47.304L48.872 5.51599L51 3.72299L51.896 3.16199L52.568 2.93799L53.24 3.04999H53.8L54.92 2.93799L55.48 2.60199L55.816 2.37799L57.16 2.04099H58.168L58.84 2.15302L60.52 2.93799H61.08L61.64 2.82599L62.648 2.48999L66.008 1.92899H66.568L67.912 2.37799L71.944 4.39499L81.688 6.077L82.584 6.63699H83.144L83.704 6.52499L84.712 6.189L85.384 5.73999L86.728 4.28299L87.736 3.49799L88.296 3.16199L90.872 2.48999L92.664 2.26501L93.336 2.37799L94.008 2.60199L94.456 3.04999L94.904 3.83499L95.688 4.73099L96.248 5.06799L99.272 5.73999L99.608 5.85199L100.056 6.30099L100.952 7.758L101.512 7.87L102.184 7.758L105.544 6.41299L109.24 5.51599H109.912L110.36 5.62799L110.584 5.73999L110.808 5.96399L111.032 6.189V6.52499V6.86099L110.808 8.09399L110.696 8.54199L110.808 9.215L111.144 10V10.336V11.121L111.256 11.345L111.592 11.569H112.264L112.824 11.457L114.84 10L115.288 9.888L115.624 10L115.848 10.56L115.736 10.896L115.4 11.569L114.616 12.466L114.28 13.026L114.168 13.362V13.587L114.504 13.923L115.4 14.147L115.736 14.259L115.96 14.371L116.296 14.932L116.408 15.604L116.52 16.837V17.285L116.408 18.294L116.52 18.518L117.304 18.855L117.528 19.079L117.752 19.415L118.2 19.751L119.992 19.639H120.104V19.976L119.992 20.536L119.88 21.209L120.104 22.105V22.442V22.778L119.656 23.787L119.096 25.356L118.984 25.804L118.648 26.253L118.312 26.365L117.976 26.253L117.528 25.804L117.304 25.58H116.744L116.632 25.692L116.52 26.028L116.632 26.701L116.744 26.925L117.304 27.261L117.528 27.486L117.64 28.158L117.752 28.382L118.312 28.606L118.536 28.831L118.984 29.279H119.432L122.232 29.055L122.792 28.831L123.016 28.606L123.352 27.934L123.576 27.486L124.024 26.925L124.472 26.813L124.808 26.701H125.48L125.704 26.925L125.816 27.486L126.04 29.503L126.152 29.727L126.712 29.952L128.168 30.064L128.504 30.288L128.728 30.4L129.4 31.072L129.848 31.185L130.632 31.297H131.976L132.536 31.185L132.984 30.848L133.432 30.176L133.656 29.727L134.328 29.167L134.888 28.943L135.224 28.831L135.896 28.943L136.344 29.391L136.68 29.839L136.904 30.064L137.128 30.176L148.552 28.494Z" fill="#FFD700" stroke="#0057B8" stroke-width="2" stroke-linecap="round" stroke-linejoin="round"/>
</svg>
