<svg width="161" height="205" viewBox="0 0 161 205" fill="none" xmlns="http://www.w3.org/2000/svg">
<path d="M135.664 28.759L136.112 29.656L136.448 30.104L136.784 30.216L137.008 30.104L137.568 29.768L137.792 29.656L138.016 29.992V30.216L138.128 31.001L137.904 34.7L137.792 35.821L137.68 36.606L137.008 37.951L136.224 38.959L135.44 39.744L133.536 41.201L132.416 41.874L131.744 41.986L130.96 42.098L130.624 42.21V42.658L131.744 46.918L132.416 52.074L132.752 53.419L132.976 54.092L133.2 54.54L133.424 54.428L133.536 54.204L134.88 52.074L134.992 51.85H135.328H135.664L136.336 52.074L137.456 52.859L139.36 54.652L139.696 55.1L139.92 55.437L140.144 55.997L140.256 56.67L140.368 57.006L140.704 57.23L140.928 57.454L142.496 57.903L143.056 58.239L143.28 58.463L143.728 58.911L144.064 59.584L144.176 59.808V60.256V60.705L143.84 61.377L143.056 62.61L142.72 63.283L142.608 63.731L142.496 64.852V65.525L142.72 67.766V68.439L142.496 69.112H142.16L141.936 68.999L141.152 68.327L140.816 68.215L140.48 68.103H138.464L138.24 68.439L138.128 68.999L138.464 70.345L138.8 70.905L139.136 71.129H139.472L139.808 71.241L140.032 71.465L143.504 76.958L144.96 78.639L145.072 78.863L145.184 79.312L145.296 79.984L144.064 86.934V87.27L144.176 87.718L144.512 87.943H144.736L147.088 87.718L147.872 87.83L148.544 88.055L148.992 88.503L149.216 88.839L149.44 89.736L149.664 91.193L150.56 94.556V95.004L150.448 95.565L150.112 96.461L149.776 96.91L149.44 97.246L147.536 98.255L147.088 98.815L146.528 100.16L144.848 102.85L144.176 103.859L143.616 105.204L143.504 105.653V105.989L143.84 106.549L144.288 107.11L145.408 107.895L145.52 108.231L145.632 108.567L145.296 109.688L144.736 111.481L144.4 112.042L144.064 112.154L143.392 112.266L143.168 112.49V112.939L143.392 113.723L143.728 114.059L144.4 114.396L144.736 114.956L144.848 115.18L144.736 115.965L144.176 117.87L143.84 118.543L143.616 118.767L143.392 118.879H143.056L141.936 118.655H141.6L141.376 118.767L141.264 119.103V119.44L141.488 119.776L142.496 120.336L142.72 120.561V120.897L142.384 121.569L142.048 121.794L141.712 121.906L140.368 122.018L140.144 122.354L140.256 122.802L140.592 123.475L141.04 123.811H141.376L141.712 123.699L144.064 122.69H144.4L147.088 122.578L147.424 122.69L147.76 122.802L148.208 123.251L148.992 124.26L149.664 125.268L149.888 125.717L150.224 128.407L151.008 130.537L151.232 131.994L151.568 132.554L151.792 132.778H152.576L153.36 132.89L153.584 133.115L154.032 133.675L154.704 135.469L155.264 136.477L155.712 136.926L155.936 137.038L156.72 137.374L156.944 137.822V138.719L156.608 142.53L156.72 143.651L156.608 145.781L156.72 146.117L156.944 146.677L157.056 147.014L157.504 147.35L158.4 147.91L158.624 148.135L158.848 148.583V149.256V150.489L159.184 151.049L159.296 151.497V151.946L158.848 152.954L158.4 153.403L157.952 153.627L155.936 154.187L155.6 154.3L155.376 154.636L155.264 155.084V155.645L155.376 156.541L156.272 160.128L156.048 160.689L155.712 161.137L155.488 161.473V162.146L155.712 162.93L159.296 168.759L159.408 169.432L159.296 169.992L158.96 170.553L157.504 172.122L157.056 172.458L155.376 173.355L155.152 173.579L154.816 174.027L154.368 175.036L153.36 176.381L152.912 176.83L152.576 177.054L151.68 177.39L151.344 177.502L150.672 178.287L150.224 178.623L148.208 179.52L145.968 181.201L145.408 181.313L144.848 181.201L144.512 181.313L144.176 181.537L143.84 182.21L143.504 182.546L143.056 182.77L142.272 182.658H141.936L141.712 182.77L141.152 183.107L141.04 183.443L140.928 183.891L141.152 184.676L141.264 185.124L141.6 185.797L141.712 186.357L141.6 187.03L141.376 188.263L141.04 189.384L140.592 190.28L140.256 190.841L139.808 191.401V191.85L140.592 191.962H141.376L142.832 191.737H143.504L143.616 191.962L143.728 192.298V192.858V193.643L143.616 194.091L143.392 194.54L143.168 194.988L142.272 195.436L141.712 195.885L141.488 197.342L140.032 197.23L139.36 197.566L138.912 198.127L136.896 200.032L136.336 200.368L135.776 200.593L134.656 200.48L132.08 200.817L131.296 201.041L130.848 201.377L130.624 202.162V203.059L130.512 203.507L130.176 203.619H129.84L128.608 203.507L122 203.955L117.632 203.171L115.28 203.395L113.936 203.059L113.376 202.834L112.704 202.386L112.48 201.826L112.592 201.489L112.704 201.265L113.376 200.593L113.6 199.92V199.696L113.488 199.36L112.704 198.127L112.592 197.79L112.48 197.118L112.368 196.669L112.032 196.221L110.912 195.324L110.576 195.1V194.652L110.8 193.979L111.136 193.419L114.048 189.608V189.271L113.936 188.935L112.144 187.59L111.808 187.142L111.248 186.357L110.24 184.115L110.128 183.667V183.331V182.546V182.21L109.904 181.201L109.792 180.865L110.016 179.968L109.904 179.632L109.568 179.071L108.56 178.063L108.224 177.502L108.112 177.054L108.336 176.381L108.224 176.045L107.888 175.821L107.552 175.709L103.632 175.148L103.184 175.26L102.848 175.484L102.736 176.269L102.4 176.942L102.064 177.502L101.616 177.95L101.056 178.287L99.6 178.847L98.816 179.408L98.368 179.856L97.584 181.425L97.136 182.77L96.8 183.331L96.464 183.555L95.904 183.667L91.2 182.882H90.864L90.528 182.994L89.408 183.667L88.512 184.003L87.168 184.227L86.944 184.115L86.496 183.667L86.16 183.331L84.592 182.434L84.032 182.322L78.544 182.21L77.872 182.322L77.648 182.546L76.528 184.676L75.968 185.236L74.96 185.573L73.728 185.685H73.056H72.496L69.584 184.227L68.912 184.115H68.352L67.232 184.676L66.672 184.9L60.624 185.124L55.36 186.581L53.344 186.806L49.088 186.133L43.6 186.806L30.72 183.107L30.384 182.658L30.048 182.098L29.936 181.762L29.824 181.089L29.6 180.416L28.928 179.408L27.248 177.166L26.912 176.605L26.8 175.933L27.024 174.924V174.588L26.8 174.027L26.576 173.803L26.24 173.579L24 172.682L23.552 172.346L23.328 171.898L23.552 169.768L23.664 169.432L23.776 169.207L24.112 169.095L25.232 168.983L25.568 168.871L25.792 168.647V168.423L25.68 167.75L25.456 167.078L23.664 163.939L23.552 163.379V163.043L23.776 162.93L26.8 163.491L27.248 163.379L27.92 163.267L28.368 162.818L28.704 162.37L29.152 161.922L29.488 161.697L30.496 161.585L30.72 161.361L30.944 160.577L31.056 159.456L30.944 158.559L30.72 158.111L30.496 157.774L30.272 157.662L29.04 157.102L28.592 156.766L28.368 156.429L28.256 156.093L28.368 155.533L28.704 154.524L29.04 153.851L29.824 152.842L29.936 152.394L29.824 152.17L29.6 151.834L28.816 151.161L28.704 150.713V150.376L28.816 150.04L29.04 149.928L29.6 149.592L29.936 149.368L30.048 148.919V148.135L29.824 147.35L29.152 146.341L28.144 145.22L27.696 144.548L27.472 144.099L27.36 143.763V143.315L27.584 141.073V140.4L27.472 139.616L27.248 139.167L26.912 138.831H26.576H26.128L25.904 139.055L25.456 139.952L24.896 140.737L24.448 141.858L24.112 142.418L23.888 142.53L23.552 142.642L20.752 142.306H20.528L20.08 142.082L19.968 141.633L19.856 140.4L19.744 140.064L19.632 139.728L19.072 139.28L17.84 138.943L17.28 138.607L16.944 138.159L16.608 137.374L16.272 137.15L15.936 137.038L15.264 137.15H14.816L14.592 136.926L14.48 136.589L14.592 136.253L14.928 135.693L15.152 135.356L15.04 135.02L14.816 134.796L14.256 134.46L12.24 132.89L9.552 131.321L8.88 130.761L8.54401 130.312L8.32001 129.864L8.09601 128.743L7.87201 128.295L7.64801 128.071L7.08801 127.734L5.40799 127.398L4.95999 127.286L4.39999 126.838L4.064 126.613L3.952 126.165V125.38L5.18399 120.897L5.51999 120.224L5.85599 119.664L6.30399 119.216L6.86401 118.879L8.20801 118.095L8.65601 117.646V117.31L8.09601 116.974L6.86401 116.637L6.41599 116.525L5.96799 116.077L5.63199 115.629L5.40799 115.068L5.07199 114.172L4.62399 113.835L3.728 113.163L2.944 111.93L2.608 111.593L1.71201 111.145L3.952 108.567L4.39999 107.11L4.28799 106.662L3.84 106.213L2.608 105.541L2.272 105.316L2.048 104.868L1.71201 104.083V103.635L1.936 103.075L2.272 102.066L2.944 100.272L3.168 99.824L4.39999 98.255L4.84799 97.358L6.30399 93.659L6.52802 92.65L6.64001 91.978L6.41599 90.969L5.96799 90.072L4.73599 88.167L4.17599 87.046L3.84 86.261L3.728 85.701L3.616 84.58V83.907L3.728 83.347L4.62399 78.639L4.73599 77.63L4.62399 76.958L4.39999 76.285L3.616 75.276L3.392 74.94L3.168 74.38L3.28 74.043L3.952 73.819L4.17599 73.483L4.51199 72.923L4.39999 72.586L4.28799 72.25L3.84 71.802L3.616 71.465L3.392 71.017L3.28 70.12V69.56L3.168 69.112L2.496 67.879L2.048 66.982L2.16 66.533L2.608 66.085L3.168 64.067L3.392 63.619L3.616 63.395L4.17599 63.059L6.64001 62.498L8.09601 61.826L8.32001 61.489L8.65601 60.929L9.44 59.136L9.664 58.687L9.888 58.463L10.56 57.79L11.12 57.006L11.456 56.221L11.68 55.549L11.792 53.307L11.904 52.634L12.016 52.074L12.128 51.738L12.688 51.065L13.136 50.617L13.36 50.168L13.696 49.608L14.48 47.142L14.816 46.582L15.04 46.357L16.496 45.461L16.832 45.124L17.168 44.676L17.616 43.555L17.84 42.883L17.952 42.322V41.874L17.84 41.313L17.728 40.865L15.712 36.606L15.6 36.157L15.712 35.933L15.936 35.709L19.408 34.924L19.968 34.588L20.64 33.915L20.976 33.131L21.424 32.234L21.536 31.674V31.225L21.2 30.665L20.192 29.768L20.08 28.871V27.6384L20.752 23.2669L20.976 22.4823L21.088 22.2581L21.424 22.146L21.76 22.2581L21.984 22.3702L22.432 22.8185L22.768 23.379L23.104 24.3878L23.552 24.9483L26.016 27.078L26.24 27.3021H26.576H27.024L27.136 26.9659L27.248 26.6296V26.1812L27.024 25.6208L26.688 25.0603L25.68 24.0515L25.568 23.4911L25.456 22.7065L25.68 20.8009L25.904 19.9042L26.128 19.2317L26.352 19.1196L26.912 18.7833L27.584 18.5592L29.04 17.7745L31.056 17.4383L31.392 17.9987L32.176 18.8954L33.184 19.7921L34.08 20.1284L35.088 20.0163L35.76 19.3438L38.56 15.4206L38.896 14.7481L39.232 13.403L39.12 12.3942L39.008 11.2733V10.0403L39.344 8.02269L40.128 6.34139L41.36 5.22049L42.704 4.99629L44.048 5.66889L47.856 9.81619L48.976 10.4887L50.096 10.7129H56.144L57.376 10.2645L58.832 8.91949L60.848 5.10839L62.08 3.2029L63.424 1.96989L64.768 1.29739L66.112 1.40949L67.008 2.41829L67.232 3.42709V4.32379V5.22049L67.792 6.34139L68.576 7.12599L70.256 8.24689L71.04 9.03149L71.488 10.1524L72.16 12.8426L72.496 13.6272L73.28 13.9635L74.064 13.6272L75.744 12.058L78.768 9.92829L80.448 9.36779H82.128L87.616 10.4887L89.296 11.1612L89.744 12.5063L89.968 14.5239L90.864 20.1284L91.312 21.4735L91.872 22.5944L92.992 23.0427L93.888 22.7065L94.672 22.146L95.456 22.2581L95.904 23.4911L96.352 25.2845L97.024 26.2933L98.144 25.0603L98.368 23.6032L98.256 19.7921L98.48 18.1108L99.712 15.4206L101.392 13.2909L103.408 11.7217L105.312 10.6008L107.216 10.2645L111.024 10.1524L112.592 9.592L113.824 8.24689L115.28 5.10839L116.512 3.87539L117.744 3.42709H118.976L121.44 3.9875L123.008 4.99629L123.792 6.22929L125.024 9.81619L127.152 12.9547L127.824 14.636L128.048 17.2141L127.488 19.7921L127.936 20.913L128.944 21.6977L130.176 23.1548L130.96 25.0603L131.408 27.3021L132.192 29.096L133.648 29.88L134.88 29.432L135.664 28.759Z" fill="#FFD700" stroke="#0057B8" stroke-width="2" stroke-linecap="round" stroke-linejoin="round"/>
</svg>
