<svg width="188" height="204" viewBox="0 0 188 204" fill="none" xmlns="http://www.w3.org/2000/svg">
<path d="M180.656 3.46597L180.432 4.02642L179.984 5.70776L179.76 7.27701L179.648 7.94955L178.864 9.18254L178.528 9.85507L178.416 10.6397L178.304 12.5452L178.08 13.2178L177.52 14.2266L175.84 15.9079L175.504 17.1409L175.84 21.9607L176.064 22.8575L176.288 23.0816L178.976 23.9784L179.312 24.2025L180.768 25.6597L181.888 27.229L182.56 28.0136L182.784 28.2378L183.12 29.1345L183.344 29.3587L183.68 29.4707L185.584 29.6949L185.92 29.807L186.032 30.0312V30.4795L185.92 31.04L185.808 31.6004L185.36 32.7213L185.024 33.1697L184.688 33.3939L183.344 33.7301L181.888 33.9543L181.104 33.8422L180.768 33.7301L180.544 33.6181L180.208 32.9455L179.872 32.4972H179.648L179.312 32.6093L179.088 32.9455L178.976 33.6181V36.8687V37.317L178.864 37.8775L178.528 38.4379L177.744 39.3346V39.5588L178.08 39.783L179.088 41.4643L179.2 42.5852L178.528 43.7061L175.056 44.9391L173.6 45.1633L172.704 45.4995L170.464 47.4051L169.792 47.8534L166.992 47.6292L165.76 47.9655L166.208 49.1985V49.9831L164.64 50.4315L163.968 51.7766L163.408 53.3458L162.176 54.1304L161.392 54.9151L160.272 56.8206L159.712 59.1745L160.048 61.3042L160.384 62.0888L161.056 64.3306L161.504 65.1152L161.952 65.7878L165.312 69.1504V70.2713L164.304 71.6164L164.192 72.7373L164.416 73.634L164.64 73.9703L164.976 74.1945L165.312 74.3066L165.536 74.6428L165.648 75.0912L165.872 79.1264L166.096 79.5748L166.432 79.7989L166.88 80.2473L167.104 80.5836V80.8077L166.992 81.144L166.656 81.3682L165.648 81.7045L165.312 82.0407L165.2 82.6012L165.312 83.8342L165.424 84.5067L165.76 84.9551L166.992 86.076L167.216 86.3001L167.44 86.8606L167.216 87.3089L166.32 88.5419L166.096 88.654L165.536 88.4298L163.632 87.421H163.408V87.6452L163.968 89.6628V90.1112V90.5595L163.632 91.12L163.296 91.3442L162.736 91.6804L162.624 92.1288L162.512 92.9134L162.848 94.4827L163.072 95.1552L163.408 95.6036L163.856 96.0519V96.5003L163.408 97.1728L163.296 97.6212V98.1816L163.408 98.9663V100.087L163.184 100.648L162.96 100.984L162.736 101.208L162.064 101.544L160.832 101.768H160.048L159.264 101.544L159.04 101.32L158.704 100.76L158.256 99.5267L158.032 99.1904L157.808 98.9663L157.136 98.7421L156.8 98.8542L156.352 99.4146L155.904 100.311V100.648V101.208L156.24 101.768L156.8 102.889L157.024 103.562L157.248 104.01L157.472 104.234H157.808H158.592L158.816 104.347L159.04 104.571L159.264 104.795V105.243V105.692L159.04 106.588L158.928 107.149V107.709L159.152 108.27L159.376 108.606L160.16 109.278L160.384 109.615V109.839L160.048 110.624L159.824 110.96V111.52L160.16 112.753L160.272 113.09L160.16 113.426L159.936 113.874L159.6 114.098L157.92 114.995L157.696 115.443V116.004L157.808 117.125L157.696 117.797L157.584 118.47L157.024 119.03L153.776 120.151L153.552 120.487L153.44 121.048V122.393L153.776 123.29L153.888 123.85L154 124.298L153.776 124.971L153.664 125.307L152.208 127.885L152.096 128.446L152.432 128.782L154.784 129.455L157.136 130.576L157.92 130.688L159.152 130.351H159.488L159.712 130.576L159.824 130.8L159.936 131.136L159.824 131.584L159.488 132.033L158.592 132.593L158.48 132.929L158.592 133.266L159.152 133.826L159.712 134.274L161.056 134.947L164.304 135.62H164.64L164.864 135.395L165.088 135.171L166.32 132.369L166.544 132.145H166.88L167.664 132.369L168.336 132.705L168.56 132.929L168.672 133.378L168.112 134.499L167.216 136.292L166.544 136.965L165.536 138.086L165.424 138.31V139.094L165.648 139.543L165.872 139.879L167.104 141L167.328 141.336L167.44 141.897L167.216 142.905V145.147V146.268L167.104 146.828L166.992 147.501L166.432 148.398L165.984 148.622L165.648 148.846L165.424 148.958L165.2 149.294L164.976 149.855L163.52 155.459L163.408 156.468V158.262V159.27L163.632 160.055L163.744 160.503L164.416 161.176L165.2 161.848L165.648 162.073L165.984 162.297L166.208 162.745V163.418L165.984 164.09L165.536 164.763L164.976 165.211L164.528 165.547L164.192 165.996L163.968 166.668L163.744 167.677V169.246L163.632 169.583L163.52 170.031L163.072 170.479L162.4 170.816L162.176 171.152L162.064 171.488L162.176 172.161L162.4 173.282V173.73L162.288 174.963L161.728 177.205L159.6 183.37L157.248 187.965L156.352 189.086L154.896 189.759L154.112 190.207L153.776 190.655L153.44 191.104L153.104 192.225L152.768 192.561L152.432 192.785L151.424 193.121L149.968 194.018L149.632 194.467L149.296 194.915L148.96 195.924L148.624 196.82L148.288 197.157L147.952 197.381L147.392 197.605L145.152 197.829L144.144 198.053L138.88 200.968H136.64L136.304 200.856L136.08 200.295L135.744 200.071H135.184L132.72 200.519L126.448 200.295L124.992 199.847L124.768 199.511L124.432 198.95L124.208 198.39L123.984 197.381L123.76 196.708L123.424 196.26L123.088 196.148H122.64H121.744L121.296 196.26L119.392 197.605L119.056 197.717L118.832 197.605L118.384 197.045L117.824 196.372L117.6 196.148L117.152 196.036L115.584 196.148L111.664 197.941L111.216 198.39L110.768 198.838L109.536 200.968L108.864 201.752L108.192 202.201L107.632 202.425H107.296L106.96 202.313L106.512 201.864L106.176 201.752H102.48L98.672 199.511L98.336 199.062L98 198.502L98.336 198.053L99.232 197.157L99.344 196.82V196.372L99.232 196.148L98.896 195.924L98.224 195.812L97.44 195.924H96.992L96.432 195.812L95.536 195.363L95.088 195.027L94.752 194.691L94.528 194.13L94.416 193.458V192.561L94.304 191.888L94.08 191.552L93.856 191.328L92.4 190.095L92.176 189.535V189.086L92.288 188.75L92.624 188.19L93.296 187.181L93.52 187.069L93.856 186.957L95.2 187.181L95.536 186.957L95.76 186.732L95.872 186.06L95.984 184.715L95.872 183.37L95.536 182.809L95.2 182.473H92.624L91.84 182.361L91.504 182.249L90.944 181.8L90.384 181.128L88.144 178.101L87.36 177.541L85.568 175.748L84.896 175.299L84.336 175.075L82.992 175.187L81.76 175.636L81.2 175.972L81.088 176.308L80.976 177.317L80.864 177.653L80.528 178.101L80.416 178.438V178.774V179.447V179.671L80.192 179.895L79.632 180.119L79.408 180.343L78.624 181.464L78.176 182.025L77.952 182.137H77.504L75.04 181.913L74.368 182.025L73.808 182.361L73.36 182.809L73.024 183.37L72.8 183.594L72.464 183.706L71.792 183.818L71.456 183.93L71.008 184.266L70.336 185.051L70.112 185.275L69.888 185.499H69.552L68.656 185.387L68.32 185.499L68.096 185.611L67.536 186.06L66.976 186.284H66.64L62.832 185.387L62.272 185.499L61.824 185.836L61.152 186.62L60.48 187.181L55.664 185.948L54.432 185.836H53.536L53.2 186.06L52.864 186.172L52.192 186.396L51.744 186.172L51.408 186.06L50.848 185.611L50.288 185.387H49.616L49.168 185.275L48.832 185.163L48.608 184.939L48.272 184.378L48.048 183.818L48.16 182.473L48.048 182.025L47.824 181.576L47.488 181.352L47.04 181.24L45.808 181.352L45.472 181.128L45.136 180.904L43.344 179.11L43.008 178.55L42.896 178.214L43.008 177.877L43.12 177.093L43.344 176.756L43.568 176.644L44.24 176.756L44.464 176.644L44.688 176.42L45.136 175.86L45.36 175.187L45.472 174.739V173.954L45.36 172.945L45.024 171.6L44.8 171.04L44.576 170.479L44.128 169.919L43.344 169.022L41.888 167.789L41.664 167.453V166.556V166.108L41.44 165.884L40.992 165.772L40.096 165.66L39.2 165.547L38.864 165.323L38.64 164.987V164.651L38.864 163.866L38.976 163.53L38.864 163.194L38.416 162.633L37.856 161.848L37.632 161.288L37.408 160.952L36.96 160.84H36.624L36.064 161.176L35.392 161.736L35.056 161.848L34.384 162.073H33.712L30.352 161.848H29.568L28.896 162.073L28 162.969L27.552 163.081L26.768 162.969L23.856 162.185L23.52 162.297L23.296 162.409L22.848 163.418L22.512 163.642L22.176 163.866L21.616 163.978L21.28 163.866L21.056 163.642L20.608 163.081L20.272 162.633L19.6 161.961L19.04 161.736L18.592 161.624L16.8 162.185H16.128L15.792 161.961L15.568 161.736V161.288L15.792 160.728L16.688 159.158L17.248 157.813L17.696 156.692L17.808 155.908L18.144 153.778V153.554L17.92 153.106L17.36 152.545L15.344 150.976L14.784 150.64L11.424 149.407L10.864 149.07L10.416 148.734L10.304 148.398L10.192 147.725V146.941L10.304 146.492L10.64 144.811L10.976 143.13V142.345L10.864 141.56L10.64 140.551L10.416 139.991L10.08 139.543L8.51202 138.086L7.95203 137.749L7.39203 137.637H7.05603H6.49597L5.71198 137.413L5.03998 136.853L4.25598 136.404H3.91998L3.69598 136.628L3.13599 137.077L2.79999 137.301H2.12799L1.79199 137.077L1.67999 136.853L1.56799 136.404L1.34399 133.49L1.45599 127.437L1.56799 126.54L2.68799 121.048L2.79999 120.263L2.68799 119.479L2.57599 118.806L1.79199 116.901L1.67999 116.34L1.79199 115.892L2.01599 115.668L2.35199 115.556L3.58398 115.668H3.91998L4.14398 115.443L4.25598 115.219L4.36798 114.883L4.25598 114.098V113.986L4.36798 111.632L4.47998 111.408L5.59998 109.503L5.71198 108.046L7.61603 106.7L9.40802 104.795L9.07202 101.993L9.85602 101.656L9.74402 101.208L9.29602 100.648L9.07202 100.087L8.40002 97.2849L8.17603 96.6124L7.39203 96.0519L6.71997 95.9398L6.27197 95.7157L6.04797 94.5948L6.15997 93.2497L6.60797 92.5771L7.28003 92.353L8.17603 92.5771V91.7925L7.50403 91.5684L6.83197 91.12L6.27197 90.3354L6.04797 89.1024L6.38397 88.3178L6.15997 87.5331L5.48798 86.8606L4.70398 86.3001L5.26398 85.8518L5.59998 85.4034L6.04797 84.2825L5.03998 83.8342L2.91199 83.1616L2.23999 82.2649V81.5924L3.02399 81.0319L3.47198 80.9198V80.2473L2.91199 79.911L1.79199 78.9022V78.1176L3.58398 76.5484L4.36798 76.2121L4.14398 75.2033L3.91998 74.7549L4.25598 74.5307L4.70398 73.7461L5.15198 73.4098L4.81598 71.9527L5.48798 69.823L5.15198 68.4779L5.93597 68.2537H7.84003L8.51202 67.9175L8.96002 66.9086V65.6757L9.18402 64.5548L9.85602 63.7701V63.0976L9.40802 62.9855L8.17603 62.313L8.84802 61.5284L10.304 60.6316L11.424 59.3986L11.312 57.8294L10.864 56.9327V56.4843L11.088 56.2601L11.536 55.4755L12.88 53.6821L12.992 53.3458L13.44 53.1216L13.664 52.4491L14.112 51.7766L15.344 51.104L15.568 50.2073V49.3106L15.792 48.6381L16.352 48.526L18.144 48.6381L18.704 48.4139L19.264 47.7413L20.048 46.6204V45.9479L19.712 45.4995L19.6 44.827V44.4907L21.392 43.8182L22.288 43.2578L22.96 42.5852L23.744 41.9127L24.304 41.016V40.1193L24.416 39.5588L24.864 38.8863L25.424 38.55L25.76 38.3258L26.096 38.55L26.544 39.1104L28.224 38.9984L28.672 37.6533L28.112 36.3082L26.32 36.084L26.544 35.6357L26.88 34.6269L27.104 34.0664L26.768 32.3851L27.776 31.3763L29.344 30.8158L37.744 30.3675L40.208 30.5916L41.664 31.4884L44.576 33.9543L46.032 34.5148L47.488 33.8422L48.496 32.1609L49.392 30.1433L50.736 28.574L55.552 26.4443H61.264L72.128 28.574L79.184 28.2378L82.992 27.9015L85.008 28.2378L86.464 29.6949L86.8 31.2642L86.912 33.1697L87.136 34.739L88.256 35.4115L89.264 35.1873L92.624 33.506L94.864 33.2818L98.56 34.2906H99.792L108.304 30.2554L110.992 28.0136L112.896 24.0904L113.568 18.0376L114.128 16.2442L114.8 15.5716L115.584 15.1233L116.256 14.5628L116.592 13.3298L116.368 12.5452L115.136 10.4155L114.912 9.29463L115.696 5.81985L118.272 5.2594L123.648 7.27701L126.56 6.3803L138.768 12.8815H140.672L144.368 11.8727H146.16L147.168 12.321L149.072 13.8903L150.192 14.0024L151.312 13.4419L157.696 7.61328L158.816 7.05284L159.376 7.16492L160.16 7.61328L160.72 7.3891L161.28 6.94075L161.952 5.48358L162.624 5.14731L163.744 4.69895L164.528 3.91433L166.208 1.89672L167.216 1.22418L168 1L174.048 2.23298L178.08 2.1209L179.2 2.34507L180.656 3.46597Z" fill="#FFD700" stroke="#0057B8" stroke-width="2" stroke-linecap="round" stroke-linejoin="round"/>
</svg>
